<svg style="height: 512px; width: 512px;" xmlns="http://www.w3.org/2000/svg" viewBox="0 0 512 512"><rect fill="#000" fill-opacity="1" height="512" width="512" rx="32" ry="32"></rect><g class="" style="" transform="translate(0,0)"><path d="M181.986 23.803c-16.323-.428-17.824 35.266 6.703 47.611 17.074-41.51 91.76 3.27 81.506 21.332-8.48 14.94-46.323-9.947-49.625-5.96-8.974 10.835 25.097 31.978 55.448 45.96l30.187-30.187c10.459-10.46 21.69-17.505 33.002-21.653-33.48-19.082-97.109-51.439-156.432-57.054-.266-.026-.53-.042-.789-.05zM49.5 47.338c-9.199 16.433-19.965 32.102-8.08 82.387l47.209 193.818c3.722-5.93 8.336-11.744 13.93-17.338l39.203-39.203-48.826-148.857C82.873 89.377 66.722 64.11 49.5 47.338zm315.527 46.16c-14.54-.044-30.539 6.23-46.095 21.787L115.285 318.932c-31.113 31.112-25.102 63.994-5.656 83.44 19.445 19.445 52.327 25.456 83.44-5.657l203.646-203.647c31.113-31.112 25.102-63.994 5.656-83.44-9.723-9.722-22.804-16.086-37.344-16.13zm-295.011 22.16l14.953 53.432-17.334 4.851-14.953-53.433zm271.545 9.528l16.263 16.263 16.262-16.263 12.728 12.728-16.263 16.262 16.263 16.263-12.728 12.729-16.262-16.262-16.263 16.262-12.729-12.729 16.262-16.263-16.262-16.262zm81.863 63.189c-3.731 5.958-8.363 11.8-13.983 17.42l-25.896 25.896 18.338 12.38-12.592 19.144 21.979 12.144-12.823 19.666 21.576 13.9-16.746 22.415 22.862 9.894-11.028 20.198 20.233 14.687-7.893 35.412 56.138-29.733zM287.816 327.42l-12.726 12.726 14.084 13.881a9 9 0 0 0 8.662 2.28l13.002-3.51-12.313 27.574c-3.442 7.713 4.676 15.492 12.235 11.725l17.691-8.825-10.545 19.094c-4.299 7.788 4.1 16.427 12.006 12.35l16.725-8.63-7.172 12.997c-3.747 6.794 2.283 14.829 9.853 13.129l22.948-5.156c7.598.705 8.552.699 13.595-.634l-4.306-15.571a9 9 0 0 0-8.371-2.452l-8.293 1.864 11.81-21.4c4.291-7.787-4.103-16.419-12.006-12.346l-16.709 8.619 10.203-18.473c4.271-7.732-3.991-16.349-11.896-12.406l-21.092 10.521 9.795-21.933c3.088-6.924-3.242-14.33-10.562-12.358l-26.303 7.098zm-185.093 92.86l-83.924 69.415 112.773-55.672c-10.678-2.366-20.539-7.118-28.85-13.744z" fill="#b8e986" fill-opacity="1"></path></g><g class="" style="" transform="translate(256,256)"><g><circle cx="128" cy="128" r="128" fill="#000" fill-opacity="1"></circle><circle stroke="#b8e986" stroke-opacity="1" fill="#000" fill-opacity="1" stroke-width="18" cx="128" cy="128" r="101"></circle><path fill="#b8e986" fill-opacity="1" d="M145.2 58.45c-8.3 12.4-10.3 22.35 2.5 21.1 10.4-1.02 7.2-10.11-2.5-21.1zm-38.3.55c-6.7 13.14-7.73 23.5 3.7 21.69 9.3-1.45 5.6-10.72-3.7-21.69zm69.7 17.45c-12.8 15.11-11.2 26.75-.4 27.95 11.6.3 11.8-12.14.4-27.95zm-99.87 4.9C68.85 95.5 68.37 106 79.88 105.2c14.04-1 8.37-11.54-3.15-23.85zm68.27 4.9c-17.5.72-15.7 37.15.8 36.55 16.3-.6 16.3-37.25-.8-36.55zm-33.6.59h-.7c-17.48 1.5-13.91 37.96 2.6 36.46 16.2-1.4 14.4-36.81-1.9-36.49zM85.34 112.9c-.52 0-.94.1-1.47.1-17.33 2.2-11.98 38.4 4.41 36.4 15.72-2 12.82-36.3-2.94-36.5zm87.36.5c-17.5-.4-18.3 36.2-1.6 36.5 16.3.3 18.8-36.2 1.6-36.5zm-45.4 21.1c-17.9.4-4.1 18.9-35.65 29.6-24.49 8.3-9.67 33.2 11.35 33.4 11.6.1 15.6-9 25-9 10.7.1 11.5 8.2 27.1 8.2 20.1.1 31.6-25 8.8-33.6-29.1-10.9-16.9-28.4-35.7-28.6z"></path></g></g></svg>