<svg style="height: 512px; width: 512px;" xmlns="http://www.w3.org/2000/svg" viewBox="0 0 512 512"><defs><linearGradient x1="0" x2="1" y1="0" y2="1" id="delapouite-swipe-card-gradient-3"><stop offset="0%" stop-color="#d0021b" stop-opacity="1"></stop><stop offset="100%" stop-color="#4a90e2" stop-opacity="1"></stop></linearGradient></defs><rect fill="#000" fill-opacity="1" height="512" width="512" rx="32" ry="32"></rect><g class="" style="" transform="translate(0,0)"><g><path d="M396.6 69C390.4 68.85 383.3 69.95 375.1 72.47L54.52 171.3C38.08 176.4 28.58 183.7 23.85 192.7C19.07 201.6 18.46 213.7 23.49 230.1L29.39 249.3L439.7 122.9L433.8 103.6C428.7 87.18 421.4 77.6 412.4 72.93C407.9 70.52 402.7 69.14 396.6 69Z" class="" fill="#d0021b" fill-opacity="1"></path><path d="M455.9 175.7L45.65 302.2L78.31 408.5C83.34 424.8 90.63 434.4 99.6 439.1C108.6 443.9 120.6 444.6 137 439.6L457.5 340.8C473.9 335.7 483.4 328.4 488.1 319.4C492.9 310.4 493.6 298.4 488.6 282Z" class="selected" fill="url(#delapouite-swipe-card-gradient-3)"></path></g></g></svg>