<svg style="height: 512px; width: 512px;" xmlns="http://www.w3.org/2000/svg" viewBox="0 0 512 512"><rect fill="#000" fill-opacity="1" height="512" width="512" rx="32" ry="32"></rect><g class="" style="" transform="translate(0,0)"><path d="M71 32v135h18V32H71zm256 0v135h18V32h-18zm-208 95.604V167h18v-39.396h-18zm256 0V167h18v-39.396h-18zM57 185v99.27l16 16V487h110V300.27l16-16V185H57zm256 0v99.27l16 16V487h110V300.27l16-16V185H313zm-96 7v80h16.432v-80H217zm256 0v80h16.432v-80H473zm-393 7h96v18H80v-18zm256 0h96v18h-96v-18zM80 231h96v18H80v-18zm256 0h96v18h-96v-18zM80 263h96v18H80v-18zm256 0h96v18h-96v-18zm-224 41a24 24 0 0 1 24 24 24 24 0 0 1-24 24 24 24 0 0 1-24-24 24 24 0 0 1 24-24zm256 0a24 24 0 0 1 24 24 24 24 0 0 1-24 24 24 24 0 0 1-24-24 24 24 0 0 1 24-24z" fill="#9b9b9b" fill-opacity="1" transform="translate(25.6, 25.6) scale(0.9, 0.9) rotate(0, 256, 256) skewX(0) skewY(0)"></path></g></svg>