<svg style="height: 512px; width: 512px;" xmlns="http://www.w3.org/2000/svg" viewBox="0 0 512 512"><circle cx="256" cy="256" r="256" fill="#174a85" fill-opacity="1"></circle><g class="" style="" transform="translate(0,0)"><g><path d="M255.9 19.77C241.5 109.6 229.4 163 196.2 196.2C163 229.4 109.6 241.5 19.77 255.9C109.6 270.3 163 282.4 196.2 315.7C229.4 348.9 241.5 402.3 255.9 492.2C270.3 402.3 282.4 348.9 315.6 315.6C348.9 282.4 402.3 270.3 492.2 255.9C402.3 241.5 348.9 229.4 315.7 196.2C282.4 163 270.3 109.6 255.9 19.77Z" class="selected" fill="#fff" fill-opacity="1" stroke="#ccc" stroke-opacity="1" stroke-width="8"></path><path d="M423 89C377.2 122.1 342 145.9 310.6 159.2C315.7 168.6 321.6 176.6 328.4 183.4C335.2 190.2 343.2 196.1 352.7 201.3C366.1 169.9 389.9 134.7 423 89Z" class="" fill="#174a85" fill-opacity="1"></path><path d="M89.06 89.06C122.2 134.8 145.9 169.9 159.2 201.2C168.6 196.1 176.6 190.2 183.4 183.4C190.2 176.6 196.1 168.6 201.2 159.2C169.9 145.9 134.8 122.2 89.06 89.06Z" class="" fill="#174a85" fill-opacity="1"></path><path d="M352.7 310.5C343.2 315.7 335.2 321.6 328.4 328.4C321.6 335.2 315.7 343.2 310.5 352.7C342 366 377.2 389.8 423 423C389.8 377.2 366 342 352.7 310.5Z" class="" fill="#174a85" fill-opacity="1"></path><path d="M159.2 310.6C145.9 342 122.1 377.2 89 423C134.7 389.9 169.9 366.1 201.3 352.7C196.1 343.2 190.2 335.2 183.4 328.4C176.6 321.6 168.6 315.7 159.2 310.6Z" class="" fill="#174a85" fill-opacity="1"></path></g></g></svg>