<svg style="height: 512px; width: 512px;" xmlns="http://www.w3.org/2000/svg" viewBox="0 0 512 512"><rect fill="#000" fill-opacity="1" height="512" width="512" rx="32" ry="32"></rect><g class="" style="" transform="translate(0,0)"><g><path d="M255.7 136.9C168.2 136.9 108 175.4 48.65 243.2C115.7 223.4 182.7 211.6 249.2 210.5C251.6 210.5 254 210.4 256.4 210.4C318.6 210.1 380.4 219.1 441.7 239.7C423.4 221.5 407.1 201.9 388.1 184.9C357.5 157.9 320.7 136.9 255.7 136.9Z" class="" fill="#ffe0af" fill-opacity="1"></path><path d="M289.8 230C291.862 234.731 292.917 239.839 292.9 245C292.878 248.698 292.305 252.371 291.2 255.9C288.184 249.274 281.58 245.015 274.3 245C263.991 245.005 255.65 253.391 255.7 263.7C255.715 270.98 259.974 277.584 266.6 280.6C263.066 281.671 259.393 282.21 255.7 282.2C235.123 282.239 218.417 265.577 218.4 245C218.406 239.981 219.426 235.015 221.4 230.4C211.5 231 201.6 231.9 191.8 232.9C191 236.9 190.6 240.9 190.6 245C190.6 281.1 219.6 310 255.7 310C291.8 310 320.7 281.1 320.7 245C320.7 240.7 320.3 236.4 319.4 232.3C309.6 231.2 299.6 230.5 289.8 230Z" class="" fill="#48baff" fill-opacity="1"></path><path d="M339 234.7C339.4 238.1 339.6 241.5 339.6 245C339.6 291.2 301.9 328.9 255.7 328.9C209.5 328.9 171.9 291.2 171.9 245C171.9 241.7 172.1 238.5 172.5 235.3C130.5 241.1 88.47 250.8 46.08 263.6C111.6 295.8 183.5 336.3 255.7 336.3C316.9 336.3 377.2 322.3 459.7 266.3C419.6 250.8 379.4 240.4 339 234.7Z" class="selected" fill="#ffffff" fill-opacity="1"></path><path d="M465.9 284.9C450.7 295 436 303.8 421.9 311.5C357.9 386.1 261.2 415.8 154.5 420.2L155.4 439.1C265.7 434.5 369.4 402.7 437.6 322C418.4 374.3 376.3 414.6 333 456.4L346.2 470C399.6 418.4 456.2 365.2 465.9 284.9Z" class="" fill="#ffe0af" fill-opacity="1"></path></g></g></svg>