<svg style="height: 512px; width: 512px;" xmlns="http://www.w3.org/2000/svg" viewBox="0 0 512 512"><rect fill="#000" fill-opacity="1" height="512" width="512" rx="32" ry="32"></rect><g class="" style="" transform="translate(0,0)"><g><path d="M296.472 22.826C275.182 22.973 252.6 26.189 239.546 35.402L168.93 73.304L129.575 126.761C121.294 139.541 127.203 164.271 153.065 148.42L181.377 111.076C217.349 80.016 290.768 94.33 255.952 156.582C238.851 192.64 246.894 210.258 268.869 217.642L278.929 183.914C296.328 144.758 328.735 137.732 327.399 106.179C327.399 106.179 504.503 235.391 394.235 388.457C335.904 468.111 187.242 471.903 119.362 434.357C47.345 394.525 4.758 300.521 45.81 219.667C58.472 188.88 60.73 180.097 35.992 219.247C-9.691 300.765 52.346 439.495 122.929 470.023C222.587 513.127 388.559 478.034 434.343 418.91C456.224 390.652 481.759 346.326 489.249 295.828C496.884 244.356 485.705 198.825 465.087 155.603C428.352 78.594 348.128 29.886 348.128 29.886C343.071 26.434 320.601 22.659 296.472 22.826Z" class="" fill="#c9c9c9" fill-opacity="1"></path><path d="M226.798 111.14C214.138 110.943 201.738 116.16 192.697 123.78L164.31 161.111C172.073 167.301 179.854 163.996 187.658 156.494C196.841 161.131 203.906 153.924 209.742 139.548C212.146 129.734 215.712 122.789 226.798 111.14Z" class="selected" fill="#c9c9c9" fill-opacity="1"></path><path d="M130.212 172.662C128.585 172.649 127.012 173.015 125.484 173.757C122.424 175.295 118.987 178.811 115.867 185.39C129.895 194.91 145.825 205.399 158.462 220.412C159.402 219.872 160.397 219.411 161.38 219.015C161.483 218.993 161.583 218.974 161.644 218.931C159.129 202.256 150.925 186.181 141.908 178.273C137.643 174.551 133.793 172.69 130.212 172.662Z" class="" fill="#8b572a" fill-opacity="1"></path><path d="M186.691 180.212C181.757 188.54 176.469 197.138 173.324 206.881C172.286 210.14 171.534 213.485 171.079 216.875C171.329 216.855 171.583 216.81 171.827 216.855C174.912 216.855 178.074 217.557 181.011 219.058C181.323 215.956 182.049 212.981 182.947 210.002C185.611 201.802 190.417 193.765 195.435 185.414Z" class="" fill="#417505" fill-opacity="1"></path><path d="M98.029 187.539C95.959 187.508 93.753 188.07 91.337 189.162C90.987 189.307 90.655 189.475 90.38 189.685C85.093 192.285 79.617 197.552 75.933 203.32C72.229 209.149 70.479 215.418 71.103 219.431C71.728 223.514 73.499 226.116 80.89 227.369C99.958 230.676 119.55 233.363 138.931 239.607C140.973 236.068 143.595 232.673 146.589 229.591C147.656 228.429 148.841 227.348 150.049 226.24C136.909 211.042 119.429 200.3 103.894 189.474C102.029 188.194 100.098 187.57 98.029 187.539Z" class="" fill="#8b572a" fill-opacity="1"></path><path d="M220.169 205.736C213.126 205.676 206.587 207.131 200.579 209.754C194.666 212.436 189.339 216.287 184.509 221.22C184.863 221.537 185.232 221.807 185.589 222.142C187.587 223.891 189.378 226.135 190.917 228.782C199.85 218.909 210.465 214.749 224.127 216.102L225.124 206.025C223.478 205.848 221.824 205.751 220.169 205.736Z" class="" fill="#417505" fill-opacity="1"></path><path d="M171.784 226.992C169.517 227.011 166.87 227.738 164.122 229.027C163.749 229.237 163.352 229.424 162.962 229.656C159.842 231.363 156.671 233.76 153.882 236.591C148.342 242.333 144.802 249.787 144.743 254.183C144.743 256.409 145.219 257.555 146.488 258.66C147.219 259.404 148.678 260.116 150.8 260.595C152.925 256.177 155.525 252.267 158.63 249.015C165.437 242.023 172.911 236.86 180.843 233.279C181.049 233.154 181.323 233.069 181.533 232.943C180.653 231.571 179.743 230.491 178.822 229.699C176.619 227.718 174.409 227.011 171.785 226.992Z" class="" fill="#417505" fill-opacity="1"></path><path d="M212.128 236.666C202.699 236.668 193.638 238.43 185.108 242.332C178.32 245.458 171.887 249.996 165.978 256.138C159.692 262.588 155.022 275.438 153.338 291.035C151.692 306.686 152.781 324.922 156.671 342.142C160.541 359.297 169.473 373.847 175.91 386.654C224.222 482.774 385.322 398.333 322.435 310.541C311.935 295.881 299.971 276.851 281.818 263.152C263.602 249.578 242.132 239.583 221.673 237.236C218.505 236.861 215.318 236.67 212.128 236.666Z" class="" fill="#8b572a" fill-opacity="1"></path><path d="M79.31 237.381C79.142 238.441 78.974 239.501 78.933 240.523C78.411 246.935 79.993 252.163 82.472 255.054C84.926 257.885 88.049 259.216 94.152 257.515C107.121 253.973 123.232 251.62 134.978 250.183C135.07 249.811 135.139 249.434 135.185 249.054C117.115 243.313 98.355 240.692 79.31 237.381Z" class="" fill="#8b572a" fill-opacity="1"></path></g></g></svg>