<svg style="height: 512px; width: 512px;" xmlns="http://www.w3.org/2000/svg" viewBox="0 0 512 512"><rect fill="#000" fill-opacity="1" height="512" width="512" rx="32" ry="32"></rect><g class="" style="" transform="translate(0,0)"><g><path d="M28.47 52.22L55.125 158.47L127.375 319.906L84.405 275.156L105.375 358.626C117.593 341.602 137.515 330.683 159.438 330.563C161.695 330.55 163.988 330.653 166.281 330.875C170.557 331.288 174.709 332.113 178.688 333.281L28.47 52.22Z" class="" fill="#fff" fill-opacity="1"></path><path d="M110.094 54.53L351.656 180.937C349.516 175.77 347.98 170.257 347.186 164.469C346.956 162.771 346.789 161.087 346.688 159.405L238.594 91.655L362 112.78C365.004 109.15 368.38 105.818 372.094 102.875L110.094 54.531Z" class="" fill="#fff" fill-opacity="1"></path><path d="M85.97 81.313L269.25 292.72L196.687 235.03L314.562 396.375C317.709 378.257 326.238 362.091 338.375 349.469L258.687 250.405L366.531 329.625C374.329 326.112 382.678 323.668 391.407 322.499L85.97 81.312Z" class="" fill="#fff" fill-opacity="1"></path><path d="M414.375 107.126C411.941 107.086 409.455 107.223 406.969 107.564C380.449 111.194 362.086 135.42 365.719 161.938C369.349 188.458 393.543 206.82 420.061 203.188C446.581 199.558 464.974 175.363 461.343 148.845C458.165 125.641 439.23 108.668 416.78 107.22C415.98 107.167 415.186 107.138 414.375 107.125Z" class="" fill="#c9c9c9" fill-opacity="1"></path><path d="M403.5 340.405C402.275 340.401 401.053 340.411 399.844 340.469C363.576 342.189 333.974 370.999 332 408.061C329.893 447.595 360.06 481.141 399.594 483.249C439.127 485.356 472.644 455.187 474.75 415.655C476.857 376.121 446.72 342.605 407.187 340.499C405.952 340.433 404.725 340.411 403.5 340.405Z" class="" fill="#c9c9c9" fill-opacity="1"></path><path d="M159.5 349.25C134.96 349.35 114.194 367.898 111.78 392.875C109.207 419.517 128.545 442.989 155.187 445.563C181.83 448.136 205.301 428.798 207.875 402.156C210.449 375.514 191.111 352.043 164.469 349.469C162.803 349.307 161.135 349.242 159.499 349.249Z" class="selected" fill="#c9c9c9" fill-opacity="1"></path></g></g></svg>