<svg style="height: 512px; width: 512px;" xmlns="http://www.w3.org/2000/svg" viewBox="0 0 512 512"><rect fill="#000" fill-opacity="1" height="512" width="512" rx="32" ry="32"></rect><g class="" style="" transform="translate(0,0)"><g><path d="M167.549 17.846C163.987 17.82 160.29 18.551 156.695 19.98C151.817 21.92 147.322 25.026 144.039 29.512C151.035 31.888 157.303 36.459 162.506 42.094C170.945 51.232 177.613 63.372 183.5 76.854C195.274 103.817 203.686 136.423 210.39 159.709L193.096 170.689C186.273 146.993 177.892 108.988 167.006 84.057C161.563 71.591 155.433 60.964 149.283 54.305C145.51 50.219 142.114 47.721 138.693 46.539C138.631 49.394 138.866 52.485 139.461 55.836L173.911 188.822L185.021 181.273C169.511 202.127 162.258 229.667 167.931 257.603C172.701 259.383 180.463 261.327 189.981 262.857C189.333 260.629 189.004 258.32 189.002 256C189.002 242.3 200.3 231.002 214 231.002C227.7 231.002 238.998 242.3 238.998 256C238.998 259.823 238.117 263.457 236.551 266.713C242.525 266.897 248.591 267.002 254.68 267.002C261.625 267.002 268.578 266.872 275.412 266.632C273.825 263.312 273.002 259.679 273.002 256C273.002 242.3 284.3 231.002 298 231.002C311.7 231.002 322.998 242.3 322.998 256C322.998 258.276 322.68 260.483 322.098 262.586C331.33 261.093 338.985 259.253 344.094 257.437C349.751 229.156 341.854 201.244 325.551 180.303L338.09 188.823L372.54 55.836C373.134 52.486 373.369 49.394 373.307 46.539C369.886 47.721 366.49 50.219 362.717 54.305C356.567 60.965 350.437 71.591 344.994 84.057C334.108 108.988 325.727 146.993 318.904 170.689L301.609 159.709C308.314 136.423 316.726 103.817 328.5 76.854C334.387 63.372 341.055 51.232 349.494 42.094C354.697 36.459 360.965 31.888 367.961 29.512C364.678 25.026 360.183 21.921 355.305 19.98C343.801 15.405 331.255 17.981 325.424 29.643L325.133 30.225L324.762 30.758C318.189 40.206 311.34 60.25 305.222 82.605C299.106 104.961 293.306 129.807 286.566 150.755L278 148L278.121 148.082C270.709 146.033 263.053 144.995 255.363 144.998C249.119 144.998 243.053 145.688 237.207 146.968L225.434 150.756C218.694 129.807 212.894 104.961 206.777 82.606C200.66 60.25 193.811 40.206 187.238 30.758L186.868 30.225L186.576 29.643C182.568 21.625 175.385 17.903 167.549 17.846Z" class="" fill="#fff" fill-opacity="1"></path><path d="M156.055 191.658C130.83 195.182 108.061 199.953 88.881 205.707C67.768 212.041 50.949 219.595 40.066 227.314C29.184 235.034 24.998 242.112 24.998 248C24.998 253.888 29.184 260.967 40.066 268.686C50.949 276.404 67.768 283.959 88.881 290.293C131.106 302.96 190.455 311.002 256 311.002C321.545 311.002 380.894 302.96 423.12 290.293C444.232 283.959 461.05 276.405 471.934 268.686C482.816 260.966 487.002 253.888 487.002 248C487.002 242.112 482.816 235.033 471.934 227.314C461.051 219.596 444.232 212.041 423.119 205.707C403.939 199.953 381.169 195.182 355.945 191.658L355.047 195.127C356.914 199.521 358.505 204.027 359.809 208.619C400.562 216.604 424.409 228.837 424.486 241.797C424.42 258.03 387.186 272.815 328.726 279.822C323.966 280.618 318.921 281.317 313.541 281.939C295.805 283.993 275.196 284.999 254.68 284.999C234.163 284.999 213.775 283.993 196.455 281.936C189.714 281.135 183.508 280.25 177.859 279.152C122.362 271.875 87.564 257.487 87.514 241.797C87.531 228.844 111.294 216.611 151.971 208.613C153.288 203.858 154.91 199.192 156.828 194.646Z" class="" fill="#4a4a4a" fill-opacity="1"></path><path d="M132.529 318.888L130.357 349.308C210.497 368.476 293.309 371.962 381.643 349.313L379.471 318.889C343.123 325.34 301.009 328.999 256 328.999C210.99 328.999 168.877 325.34 132.53 318.889Z" class="" fill="#d0021b" fill-opacity="1"></path><path d="M129.059 367.488L121.109 478.781C122.049 479.531 124.289 480.837 127.579 482.09C134.343 484.667 145.177 487.15 158.319 489.098C184.601 492.991 220.333 495.002 256 495.002C291.667 495.002 327.399 492.992 353.682 489.098C366.823 487.151 377.657 484.667 384.422 482.09C387.712 480.837 389.95 479.531 390.891 478.781L382.945 367.533C293.792 389.812 209.628 386.37 129.059 367.488Z" class="selected" fill="#4a4a4a" fill-opacity="1"></path></g></g></svg>