<svg style="height: 512px; width: 512px;" xmlns="http://www.w3.org/2000/svg" viewBox="0 0 512 512"><rect fill="#000" fill-opacity="1" height="512" width="512" rx="32" ry="32"></rect><g class="" style="" transform="translate(0,0)"><g><path d="M253.713 25.463L249.553 40.986C147.833 33.02 69.483 164.754 40.46 273.08L51.834 330.53C105.83 169.524 184.77 82.474 254.436 83.35L390.596 119.836L405.02 66.008L253.713 25.465Z" class="" fill="#9b9b9b" fill-opacity="1"></path><path d="M418.408 88.243L413.572 106.293L437.818 112.791C436.588 114.431 435.468 116.167 434.465 117.966C429.052 127.664 426.115 140.001 426.115 153.516C426.115 167.029 429.052 179.366 434.465 189.064C439.878 198.762 448.645 206.692 459.925 206.692C471.203 206.692 479.968 198.762 485.381 189.065C490.795 179.365 493.733 167.03 493.733 153.515C493.733 140.003 490.795 127.667 485.383 117.969C481.238 110.544 475.123 104.169 467.427 101.582L467.477 101.392L418.41 88.24Z" class="" fill="#9b9b9b" fill-opacity="1"></path><path d="M255.528 102.26C238.723 107.525 222.198 116.37 206.701 128.293L250.185 139.945C258.247 127.461 266.622 116.578 275.163 107.521L255.528 102.261Z" class="" fill="#417505" fill-opacity="1"></path><path d="M296.166 113.148C287.582 121.108 278.639 131.946 269.752 145.188L336.248 163.006C335.173 147.096 332.848 133.236 329.393 122.053L296.166 113.148Z" class="" fill="#417505" fill-opacity="1"></path><path d="M459.924 119.025C462.154 119.025 465.621 120.908 469.064 127.075C472.504 133.241 475.044 142.819 475.044 153.515C475.044 164.209 472.504 173.789 469.064 179.955C465.621 186.121 462.154 188.005 459.924 188.005C457.694 188.005 454.224 186.121 450.784 179.955C447.342 173.789 444.804 164.209 444.804 153.515C444.804 142.818 447.342 133.238 450.784 127.072C454.224 120.906 457.694 119.025 459.924 119.025Z" class="selected" fill="#000000" fill-opacity="1"></path><path d="M350.396 127.68C353.266 139.793 355.074 153.405 355.814 168.248L404.342 181.252C396.882 163.178 386.996 147.255 375.076 134.292L350.396 127.68Z" class="" fill="#417505" fill-opacity="1"></path><path d="M189.646 143.072C171.59 160.578 155.536 182.492 142.883 207.862L208.913 225.557C218.248 199.964 228.796 176.703 240.139 156.602L189.644 143.072Z" class="" fill="#417505" fill-opacity="1"></path><path d="M259.408 161.766C248.004 181.304 236.978 204.556 227.244 230.469L330.422 258.112C334.95 230.804 337.027 205.154 336.92 182.532L259.408 161.765Z" class="" fill="#417505" fill-opacity="1"></path><path d="M356.186 187.696C355.958 210.776 353.463 236.196 348.75 263.026L419.826 282.07C421.554 253.772 418.609 226.766 411.726 202.578L356.186 187.698Z" class="" fill="#417505" fill-opacity="1"></path><path d="M135.036 225.109C130.561 235.949 126.686 247.319 123.514 259.157C120.746 269.487 118.621 279.775 117.098 289.954L185.138 308.184C187.308 298.144 189.762 287.957 192.523 277.651C195.687 265.844 199.121 254.369 202.777 243.259L135.037 225.109Z" class="" fill="#417505" fill-opacity="1"></path><path d="M220.966 248.132C217.233 259.209 213.741 270.675 210.576 282.487C207.814 292.795 205.393 303 203.286 313.047L309.879 341.607C313.077 331.855 316.083 321.807 318.845 311.499C322.01 299.686 324.722 288.011 327.028 276.552L220.963 248.132Z" class="" fill="#417505" fill-opacity="1"></path><path d="M345.213 281.425C342.823 292.875 340.063 304.528 336.898 316.335C334.138 326.64 331.168 336.692 328.028 346.472L401.113 366.054C404.883 356.477 408.185 346.507 410.953 336.177C414.126 324.337 416.453 312.554 417.996 300.927L345.213 281.425Z" class="" fill="#417505" fill-opacity="1"></path><path d="M114.957 308.725C112.957 334.233 114.76 358.758 119.817 381.215L173.51 395.6C174.332 374.14 176.977 350.907 181.453 326.543L114.955 308.725Z" class="" fill="#417505" fill-opacity="1"></path><path d="M199.757 331.448C195.451 356.141 193.123 379.57 192.604 400.715L275.297 422.873C285.419 404.301 295.117 382.847 303.734 359.309L199.758 331.449Z" class="" fill="#417505" fill-opacity="1"></path><path d="M322.037 364.211C313.732 387.549 304.407 408.994 294.391 427.991L353.131 443.728C368.736 426.808 382.561 406.47 393.581 383.381L322.038 364.211Z" class="" fill="#417505" fill-opacity="1"></path><path d="M125.65 402.125C133.424 425.168 144.907 445.292 159.393 461.043L179.029 466.305C175.479 451.293 173.559 433.975 173.269 414.885L125.649 402.125Z" class="" fill="#417505" fill-opacity="1"></path><path d="M192.648 420.078C193.278 440.598 195.814 458.262 200.035 471.934L233.252 480.834C243.744 471.104 254.772 457.076 265.578 439.619L192.648 420.077Z" class="" fill="#417505" fill-opacity="1"></path><path d="M284.958 444.811C275.162 461.199 264.84 475.239 254.26 486.464L278.94 493.077C299.363 486.679 319.37 474.995 337.623 458.925L284.957 444.812Z" class="" fill="#417505" fill-opacity="1"></path></g></g><g class="" style="" transform="translate(256,256)"><g><circle cx="128" cy="128" r="128" fill="#000" fill-opacity="1"></circle><circle stroke="#48baff" stroke-opacity="1" fill="#000" fill-opacity="1" stroke-width="18" cx="128" cy="128" r="101"></circle><path fill="#48baff" fill-opacity="1" d="M119 64v55H64v18h55v55h18v-55h55v-18h-55V64h-18z"></path></g></g></svg>