<svg style="height: 512px; width: 512px;" xmlns="http://www.w3.org/2000/svg" viewBox="0 0 512 512"><rect fill="#000" fill-opacity="1" height="512" width="512" rx="32" ry="32"></rect><g class="" style="" transform="translate(0,0)"><g><path d="M279.31 24.574L269.97 40.762L296.31 55.962L305.658 39.777L279.311 24.574Z" class="" fill="#9b9b9b" fill-opacity="1"></path><path d="M335.002 26.344L311.962 66.224C320.659 69.341 329.278 73.314 337.678 78.16C346.885 83.473 355.315 89.538 362.893 96.184L386.18 55.874L335.002 26.344Z" class="" fill="#48baff" fill-opacity="1"></path><path d="M263.512 76.361C258.714 76.381 254.019 76.711 249.472 77.345C225.212 80.729 205.407 92.442 194.462 111.388L165.572 161.398L182.33 171.068L205.275 130.928L221.5 140.204L198.518 180.407L247.365 208.595L270.139 168.755L286.362 178.03L263.552 217.936L320.544 250.822L343.124 211.316L359.351 220.59L336.731 260.162L351.611 268.748L380.505 218.73C391.45 199.784 391.695 176.79 382.499 154.104C373.304 131.417 354.542 109.469 328.337 94.348C308.682 83.008 287.792 77.208 268.341 76.448C266.721 76.384 265.111 76.355 263.511 76.361Z" class="" fill="#48baff" fill-opacity="1"></path><path d="M389.207 87.99L379.859 104.174L433.505 135.131C428.765 138.735 424.707 143.541 421.499 148.961C414.614 160.597 410.769 175.665 410.769 192.177C410.769 208.689 414.614 223.759 421.499 235.394C428.384 247.028 439.143 255.909 452.299 255.909C465.452 255.909 476.212 247.029 483.097 235.394C489.981 223.759 493.823 208.689 493.823 192.177C493.823 175.665 489.981 160.597 483.097 148.962C478.137 140.582 471.163 133.654 462.737 130.42L389.207 87.99Z" class="" fill="#9b9b9b" fill-opacity="1"></path><path d="M452.299 147.137C453.149 147.137 454.023 147.25 454.913 147.482L460.077 150.462L460.197 150.256C462.505 152.089 464.817 154.776 467.011 158.481C471.774 166.529 475.134 178.653 475.134 192.177C475.134 205.7 471.774 217.827 467.011 225.877C462.248 233.925 456.918 237.22 452.298 237.22C447.678 237.22 442.345 233.924 437.582 225.875C432.819 217.825 429.459 205.699 429.459 192.175C429.459 178.652 432.819 166.528 437.583 158.479C442.346 150.429 447.678 147.134 452.298 147.134Z" class="selected" fill="#000000" fill-opacity="1"></path><path d="M174.66 188.217L112.25 296.254L260.88 382.018L323.29 273.982L174.662 188.217Z" class="" fill="#f8e71c" fill-opacity="1"></path><path d="M84.467 301.8L55.572 351.816C44.626 370.764 44.382 393.759 53.576 416.446C62.769 439.126 81.524 461.066 107.719 476.186C107.725 476.19 107.732 476.196 107.739 476.199L107.741 476.199C133.947 491.319 162.348 496.587 186.606 493.202C210.866 489.818 230.67 478.106 241.616 459.159L270.506 409.149L253.911 399.573L228.056 444.808L211.829 435.531L237.724 390.231L180.731 357.346L155.069 402.24L138.843 392.965L164.543 348.005L115.696 319.818L90.202 364.416L73.978 355.141L99.508 310.478L84.465 301.798Z" class="" fill="#48baff" fill-opacity="1"></path></g></g></svg>