<svg style="height: 512px; width: 512px;" xmlns="http://www.w3.org/2000/svg" viewBox="0 0 512 512"><rect fill="#000" fill-opacity="1" height="512" width="512" rx="32" ry="32"></rect><g class="" style="" transform="translate(0,0)"><path d="M80 33c-12.62 0-21.38 6.47-28.26 18.09C44.86 62.7 41 79.33 41 96c0 16.7 3.86 33.3 10.74 44.9C58.62 152.5 67.38 159 80 159h39V33zm57 0v126h174V33zm192 0v126h39c12.6 0 21.4-6.5 28.3-18.1 6.8-11.6 10.7-28.2 10.7-44.9 0-16.67-3.9-33.3-10.7-44.91C389.4 39.47 380.6 33 368 33zM119 177v32H41v94h366v-94h-78v-32h-18v32H137v-32zm306 48v30h46v-30zm-337.54 4.2l17.04 5.6-15.96 48-17.08-5.6zm48.04 0l17 5.6-16 48-17-5.6zm48 0l17 5.6-16 48-17-5.6zM84.95 321L65 440.7c12.89-22.1 26.47-44 42.9-64 18-21.8 39.6-41.3 67.1-55.7zm123.15 5.1c-37.8 13.2-64.3 35.2-86.3 62-22.2 27-39.57 59.1-58.07 90.9H144c5 0 10.7-2.4 17.6-9.4 6.8-6.8 14.3-17.8 21.9-32.7zM247 328v23h-26l-4 18h30v23h18v-64z" fill="#d0021b" fill-opacity="1"></path></g><g class="" style="" transform="translate(256,256)"><g><circle cx="128" cy="128" r="128" fill="#000" fill-opacity="1"></circle><circle stroke="#f5a623" stroke-opacity="1" fill="#000" fill-opacity="1" stroke-width="18" cx="128" cy="128" r="101"></circle><path fill="#f5a623" fill-opacity="1" d="M99.016 83.18c0 27.973 28.984 32.635 28.984 55.946 0 9.325-9.661 23.312-24.153 23.312-14.492 0-24.153-13.987-14.492-37.298-14.491 9.324-19.322 18.649-19.322 27.973 0 23.312 24.153 46.623 57.967 46.623 33.813 0 57.966-13.987 57.966-41.96.216-41.378-49.4-55.2-62.797-74.597-9.66-13.987-4.83-23.311 4.83-32.636-19.321 4.663-28.983 17.717-28.983 32.636z"></path></g></g></svg>