<svg style="height: 512px; width: 512px;" xmlns="http://www.w3.org/2000/svg" viewBox="0 0 512 512"><defs><linearGradient id="lorc-ray-gun-gradient-1"><stop offset="0%" stop-color="#9b9b9b" stop-opacity="1"></stop><stop offset="100%" stop-color="#50e3c2" stop-opacity="1"></stop></linearGradient></defs><rect fill="#000" fill-opacity="1" height="512" width="512" rx="32" ry="32"></rect><g class="" style="" transform="translate(0,-35)"><path d="M258.78 48.375c-1.777.065-3.554.135-5.342.22l-13.032 3.468L256.47 112l-41.533 5.156L198.03 54.03c-20.15 2.995-40.295 7.085-59.81 12.314C115.13 72.53 94.522 82.558 77.405 95.03 70.596 84.966 57.93 79.804 45.53 83.126c-15.64 4.19-24.908 20.266-20.718 35.906 2.092 7.807 7.145 14.028 13.625 17.782-13.334 22.34-17.896 46.636-11.687 69.813 7.424 27.71 28.982 49.112 59.094 61.344 4.684 1.902 9.568 3.573 14.625 5-71.813 84.106-81.31 251.344 62.905 216.624-9.176-3.423-16.616-11.07-19.344-21.25-4.475-16.706 5.438-33.865 22.126-38.375-4.744-3.99-8.367-9.403-10.094-15.845-3.81-14.222 2.81-28.797 15.157-35.594-3.558-3.692-6.237-8.32-7.657-13.624-3.76-14.035 2.622-28.374 14.656-35.28l.124-1.532c-6.032-4.078-10.687-10.26-12.72-17.844-3.646-13.61 2.256-27.53 13.595-34.656 4.71-.89 9.443-1.948 14.186-3.22.394-.104.794-.236 1.188-.343 1.04-.28 2.083-.584 3.125-.874 9.006 47.493 36.058 68.614 59.468 52.97-21.67-19.01-29.08-40.428-29.75-62.282 7.994-2.776 15.968-5.737 23.875-8.906l-19.625-73.282 38.937-14.875 18.438 68.845 10.75-2.875c2.3-1.19 4.608-2.38 6.875-3.594l-18.532-69.062 38.97-14.875 15.593 58.218 10.81-2.875c2.214-1.547 4.396-3.095 6.533-4.657L344.688 136.5l37.468-14.313 11.5 42.938.5-.125c5.458-5.49 10.303-10.95 14.438-16.313L399.72 115.5l12.28-4.688 15.875-4.25c7.277 14.404 23.744 22.138 40 17.782 18.66-5 29.593-23.936 24.594-42.594-4.376-16.325-19.402-26.752-35.595-25.75-2.313.143-4.668.53-7 1.156-14.772 3.958-24.703 16.657-25.72 31.032l-20.75 5.562-9.217 1.156-7.938-29.687c-5.85-2.44-12.264-4.647-19.188-6.595l-1.812.47 10.22 38.155-39.97 4.938-13.906-51.938c-1.898-.2-3.82-.39-5.75-.563L303 53.094l13.78 51.437-41.592 5.126-16.407-61.28z" fill="url(#lorc-ray-gun-gradient-1)"></path></g><g class="" style="" transform="translate(256,256)"><g><circle cx="128" cy="128" r="128" fill="#000" fill-opacity="1"></circle><circle stroke="#50e3c2" stroke-opacity="1" fill="#000" fill-opacity="1" stroke-width="18" cx="128" cy="128" r="101"></circle><path fill="#50e3c2" fill-opacity="1" d="M128.133 49.472L98.398 66.735l16.032 27.789a35.849 35.849 0 0 0-8.432 4.889L89.967 71.64 60.282 88.87v33.958h32.211a36.405 36.405 0 0 0-.348 4.956c0 1.69.123 3.356.349 4.99H60.281v34.357l29.651 17.212 16.132-27.938a35.877 35.877 0 0 0 8.397 4.938L98.363 189.25l29.768 17.28 29.752-17.23-16.148-27.955a35.929 35.929 0 0 0 8.397-4.956l16.185 28.038 29.402-17.029v-34.624h-32.031c.226-1.634.35-3.298.35-4.99 0-1.679-.127-3.336-.35-4.955h32.03V88.587l-29.436-17.03L150.2 99.43a35.908 35.908 0 0 0-8.43-4.905l16.08-27.855-29.716-17.197zm-.05 52.136c14.485 0 26.193 11.689 26.193 26.176 0 14.488-11.705 26.176-26.193 26.176-14.488 0-26.176-11.69-26.176-26.176 0-14.486 11.69-26.176 26.176-26.176z"></path></g></g></svg>