<svg style="height: 512px; width: 512px;" xmlns="http://www.w3.org/2000/svg" viewBox="0 0 512 512"><rect fill="#000" fill-opacity="1" height="512" width="512" rx="32" ry="32"></rect><g class="" style="" transform="translate(0,-35)"><g><path d="M481.14 125.357C462.36 130.833 446.228 139.844 434.188 158.33L481.141 158.33L481.141 125.357Z" class="" fill="#9b9b9b" fill-opacity="1"></path><path d="M292.225 175.367L279.1 175.369L278.984 211.109L491.47 211.109L491.127 175.369L292.225 175.369L292.225 175.366Z" class="" fill="#9b9b9b" fill-opacity="1"></path><path d="M263.1 175.369L230.03 175.372L132.732 175.38C116.714 203.353 115.842 233.16 133.772 269.45L262.8 269.45L262.863 249.23L168.09 249.23C161.932 249.23 158.083 242.563 161.162 237.23C162.591 234.755 165.232 233.23 168.09 233.23L262.89 233.23L262.89 210.55L167.74 210.55C161.582 210.55 157.733 203.883 160.812 198.55C162.241 196.075 164.882 194.55 167.74 194.55L263.04 194.55L263.1 175.37Z" class="" fill="#9b9b9b" fill-opacity="1"></path><path d="M101.723 175.379C93.889 204.102 89.375 220.989 82.993 234.069C76.213 247.962 67.243 257.949 50.693 275.769C11.077 351.204 17.48 389.416 20.46 432.083C32.53 446.211 50.13 453.365 69.184 455.623C86.887 457.72 105.319 455.337 120 451.026C119.728 404.01 128.213 357.73 160.84 311.186L166.104 303.679L172.828 309.909C191.068 326.809 213.75 331.181 236.033 327.626C258.316 324.071 279.789 312.162 293.287 297.341C303.207 286.447 305.779 274.267 304.947 259.409L278.832 259.409L278.748 285.449L278.053 285.449C268.493 296.441 244.149 309.532 230.25 309.595C216.694 309.655 194.41 296.398 182.354 285.45L123.88 285.45L121.627 281.184C101.343 242.749 99.799 206.976 114.567 175.381L101.723 175.381Z" class="" fill="#8b572a" fill-opacity="1"></path><path d="M26.843 177.849C34.173 201.396 45.97 221.396 61.668 238.645C64.401 234.823 66.62 231.137 68.613 227.052C70.943 222.28 73.053 216.682 75.328 209.612C75.103 209.47 74.925 209.364 74.693 209.218C67.013 204.364 57.233 197.991 47.576 191.638C37.068 184.722 34.099 182.695 26.842 177.848Z" class="" fill="#9b9b9b" fill-opacity="1"></path><path d="M278.933 227.109L278.891 240.769L278.891 243.407L361.611 243.407L361.611 227.11L278.935 227.11Z" class="" fill="#9b9b9b" fill-opacity="1"></path><path d="M88.642 293.9C105.116 293.9 118.642 307.425 118.642 323.898C118.642 340.372 105.116 353.898 88.642 353.898C72.169 353.898 58.642 340.372 58.642 323.898C58.642 307.425 72.169 293.9 88.642 293.9Z" class="" fill="#4a4a4a" fill-opacity="1"></path><path d="M88.642 309.898C80.816 309.898 74.642 316.072 74.642 323.898C74.642 331.725 80.816 337.898 88.642 337.898C96.469 337.898 102.642 331.725 102.642 323.898C102.642 316.072 96.469 309.898 88.642 309.898Z" class="" fill="#4a4a4a" fill-opacity="1"></path><path d="M70.617 377.574C77.649 377.777 83.244 383.537 83.242 390.572C83.242 400.579 72.409 406.834 63.742 401.83C59.72 399.508 57.242 395.216 57.242 390.572C57.24 383.244 63.292 377.363 70.617 377.574Z" class="selected" fill="#4a4a4a" fill-opacity="1"></path></g></g></svg>