<svg style="height: 512px; width: 512px;" xmlns="http://www.w3.org/2000/svg" viewBox="0 0 512 512"><rect fill="#000" fill-opacity="1" height="512" width="512" rx="32" ry="32"></rect><g class="" style="" transform="translate(0,0)"><g><path d="M406.125 71.563L406.125 100.375L120.875 100.375L68.312 153.5L68.312 230.47L22 403.312L116.438 428.624L128.5 383.594L91.375 373.624L118.219 314.624L267.155 314.624L267.155 314.718L441.685 314.718L441.687 100.373L424.812 100.373L424.812 71.562L406.124 71.562Z" class="selected" fill="#9b9b9b" fill-opacity="1"></path><path d="M460.375 127.531L460.375 180.345L494.531 180.345L494.531 127.53L460.376 127.53Z" class="" fill="#f5a623" fill-opacity="1"></path><path d="M298.969 135.595L407.779 135.595L407.779 168.565L298.97 168.565L298.97 135.595Z" class="" fill="#000000" fill-opacity="1"></path><path d="M152.75 238.78L178.188 238.78L212.375 280.125L218.5 238.781L267.156 238.781L267.156 295.938L126.75 295.938L152.75 238.782Z" class="" fill="#000000" fill-opacity="1"></path><path d="M296.47 333.25L296.47 372.188L410.625 372.188L410.625 333.25L393.562 333.25L393.562 356.78L374.875 356.78L374.875 333.25L332.595 333.25L332.595 356.78L313.905 356.78L313.905 333.25L296.47 333.25Z" class="" fill="#9b9b9b" fill-opacity="1"></path></g></g><g class="" style="" transform="translate(256,256)"><g><circle cx="128" cy="128" r="128" fill="#000" fill-opacity="1"></circle><circle stroke="#d0021b" stroke-opacity="1" fill="#000" fill-opacity="1" stroke-width="18" cx="128" cy="128" r="101"></circle><path fill="#d0021b" fill-opacity="1" d="M128 53.346l8.997 46.964 34.883-32.706-20.325 43.283L199 104.93 157.115 128 199 151.07l-47.445-5.957 20.325 43.283-34.883-32.706L128 202.654l-8.997-46.964-34.883 32.706 20.325-43.283L57 151.07 98.885 128 57 104.93l47.445 5.957L84.12 67.604l34.883 32.706z"></path></g></g></svg>