<svg style="height: 512px; width: 512px;" xmlns="http://www.w3.org/2000/svg" viewBox="0 0 512 512"><rect fill="#000" fill-opacity="1" height="512" width="512" rx="32" ry="32"></rect><g class="" style="" transform="translate(0,0)"><g><path d="M80 33C67.38 33 58.62 39.47 51.74 51.09C44.86 62.7 41 79.33 41 96C41 112.7 44.86 129.3 51.74 140.9C58.62 152.5 67.38 159 80 159L119 159L119 33Z" class="" fill="#f5a623" fill-opacity="1"></path><path d="M137 33L137 159L311 159L311 33Z" class="" fill="#f5a623" fill-opacity="1"></path><path d="M329 33L329 159L368 159C380.6 159 389.4 152.5 396.3 140.9C403.1 129.3 407 112.7 407 96C407 79.33 403.1 62.7 396.3 51.09C389.4 39.47 380.6 33 368 33Z" class="" fill="#f5a623" fill-opacity="1"></path><path d="M119 177L119 209L41 209L41 303L407 303L407 209L329 209L329 177L311 177L311 209L137 209L137 177Z" class="" fill="#9b9b9b" fill-opacity="1"></path><path d="M425 225L425 255L471 255L471 225Z" class="" fill="#9b9b9b" fill-opacity="1"></path><path d="M87.46 229.2L104.5 234.8L88.54 282.8L71.46 277.2Z" class="" fill="#000000" fill-opacity="1"></path><path d="M135.5 229.2L152.5 234.8L136.5 282.8L119.5 277.2Z" class="" fill="#000000" fill-opacity="1"></path><path d="M183.5 229.2L200.5 234.8L184.5 282.8L167.5 277.2Z" class="" fill="#000000" fill-opacity="1"></path><path d="M84.95 321L65 440.7C77.89 418.6 91.47 396.7 107.9 376.7C125.9 354.9 147.5 335.4 175 321Z" class="" fill="#9b9b9b" fill-opacity="1"></path><path d="M208.1 326.1C170.3 339.3 143.8 361.3 121.8 388.1C99.6 415.1 82.23 447.2 63.73 479L144 479C149 479 154.7 476.6 161.6 469.6C168.4 462.8 175.9 451.8 183.5 436.9Z" class="" fill="#9b9b9b" fill-opacity="1"></path><path d="M247 328L247 351L221 351L217 369L247 369L247 392L265 392L265 328Z" class="selected" fill="#9b9b9b" fill-opacity="1"></path></g></g><g class="" style="" transform="translate(256,256)"><g><circle cx="128" cy="128" r="128" fill="#000" fill-opacity="1"></circle><circle stroke="#f5a623" stroke-opacity="1" fill="#000" fill-opacity="1" stroke-width="18" cx="128" cy="128" r="101"></circle><path fill="#f5a623" fill-opacity="1" d="M99.016 83.18c0 27.973 28.984 32.635 28.984 55.946 0 9.325-9.661 23.312-24.153 23.312-14.492 0-24.153-13.987-14.492-37.298-14.491 9.324-19.322 18.649-19.322 27.973 0 23.312 24.153 46.623 57.967 46.623 33.813 0 57.966-13.987 57.966-41.96.216-41.378-49.4-55.2-62.797-74.597-9.66-13.987-4.83-23.311 4.83-32.636-19.321 4.663-28.983 17.717-28.983 32.636z"></path></g></g></svg>