<svg style="height: 512px; width: 512px;" xmlns="http://www.w3.org/2000/svg" viewBox="0 0 512 512"><rect fill="#000" fill-opacity="1" height="512" width="512" rx="32" ry="32"></rect><g class="" style="" transform="translate(0,0)"><path d="M406.125 71.563v28.812h-285.25L68.312 153.5v76.97L22 403.312l94.438 25.312 12.062-45.03-37.125-9.97 26.844-59h148.936v.094h174.53l.002-214.345h-16.875V71.562h-18.688zm54.25 55.968v52.814h34.156V127.53h-34.155zm-161.406 8.064h108.81v32.97H298.97v-32.97zM152.75 238.78h25.438l34.187 41.345 6.125-41.344h48.656v57.157H126.75l26-57.156zm143.72 94.47v38.938h114.155V333.25h-17.063v23.53h-18.687v-23.53h-42.28v23.53h-18.69v-23.53H296.47z" fill="#ffffff" fill-opacity="1"></path></g><g class="" style="" transform="translate(256,256)"><g><circle cx="128" cy="128" r="128" fill="#000000" fill-opacity="1"></circle><circle stroke="#a5d9cd" stroke-opacity="1" fill="#000000" fill-opacity="1" stroke-width="18" cx="128" cy="128" r="101"></circle><path fill="#a5d9cd" fill-opacity="1" d="M124.734 54.822c-6.63 32.107-6.636 61.281-3.925 91.428-4.451-1.396-9.259-2.119-14.12-2.123-19.462 0-35.24 11.272-35.24 25.178 0 13.905 15.778 25.178 35.24 25.177 19.462 0 35.238-11.272 35.239-25.177-3.043-25.866-5.412-53.264-4.424-76.164 13.96.963 35.798 6.57 46.432 13.052-1.774-6.322-5.745-31.348-4.038-34.941-16.697-12.256-37.656-16.702-55.164-16.43z"></path></g></g></svg>