<svg style="height: 512px; width: 512px;" xmlns="http://www.w3.org/2000/svg" viewBox="0 0 512 512"><rect fill="#000" fill-opacity="1" height="512" width="512" rx="32" ry="32"></rect><g class="" style="" transform="translate(0,0)"><path d="M34.22 19.844l-12.407.125.062 30 177.97 177.5c4.98-8.957 12.884-16.088 22.405-20.064L34.22 19.844zm205.436 202.75c-14.946 0-26.844 11.93-26.844 26.875s11.898 26.874 26.844 26.874c14.946 0 26.875-11.93 26.875-26.875 0-14.947-11.928-26.876-26.874-26.876zm150.875 15.75c-15.905 11.413-31.637 18.404-47.467 21.5 29.263 39.57 49.927 71.443 62.28 96 6.804 13.523 11.162 24.788 12.907 34.562 1.745 9.774.876 19.417-5.813 25.906-6.688 6.49-16.216 7.208-26.125 5.532-9.908-1.676-21.394-5.88-35.187-12.438-25.368-12.058-58.377-32.294-99.22-60.906-2.646 16.347-8.904 32.21-19.06 47.53 64.07 43.58 163.496 83.783 246.468 88.783 3.614-85.247-42.328-181.024-88.782-246.47zm-105.655 16.562c-2.375 19.668-17.412 35.58-36.656 39.28 3.07 11 4.776 21.816 5.093 32.44 44.728 31.797 80.314 53.785 105.812 65.905 12.888 6.127 23.263 9.684 30.313 10.876 7.05 1.193 9.577-.12 9.968-.5.392-.38 1.644-2.46.438-9.22-1.207-6.756-4.852-16.84-11.188-29.436-12.4-24.647-34.88-59.106-67.5-102.563-11.922-.288-23.968-2.61-36.28-6.78z" fill="#48baff" fill-opacity="1" transform="translate(0, 0) scale(1, 1) rotate(-90, 256, 256) skewX(0) skewY(0)"></path></g><g class="" style="" transform="translate(256,256)"><g><circle cx="128" cy="128" r="128" fill="#000" fill-opacity="1"></circle><circle stroke="#50e3c2" stroke-opacity="1" fill="#000" fill-opacity="1" stroke-width="18" cx="128" cy="128" r="101"></circle><path fill="#50e3c2" fill-opacity="1" d="M128.133 49.472L98.398 66.735l16.032 27.789a35.849 35.849 0 0 0-8.432 4.889L89.967 71.64 60.282 88.87v33.958h32.211a36.405 36.405 0 0 0-.348 4.956c0 1.69.123 3.356.349 4.99H60.281v34.357l29.651 17.212 16.132-27.938a35.877 35.877 0 0 0 8.397 4.938L98.363 189.25l29.768 17.28 29.752-17.23-16.148-27.955a35.929 35.929 0 0 0 8.397-4.956l16.185 28.038 29.402-17.029v-34.624h-32.031c.226-1.634.35-3.298.35-4.99 0-1.679-.127-3.336-.35-4.955h32.03V88.587l-29.436-17.03L150.2 99.43a35.908 35.908 0 0 0-8.43-4.905l16.08-27.855-29.716-17.197zm-.05 52.136c14.485 0 26.193 11.689 26.193 26.176 0 14.488-11.705 26.176-26.193 26.176-14.488 0-26.176-11.69-26.176-26.176 0-14.486 11.69-26.176 26.176-26.176z"></path></g></g></svg>