<svg style="height: 512px; width: 512px;" xmlns="http://www.w3.org/2000/svg" viewBox="0 0 512 512"><rect fill="#000" fill-opacity="1" height="512" width="512" rx="32" ry="32"></rect><g class="" style="" transform="translate(0,0)"><path d="M242.104 17.87l-102.96 205.92c15.477 17.84 29.092 50.475 36.428 112.638 62.163 7.336 94.8 20.95 112.64 36.427l205.92-102.96-159.827 31.966-77.022 25.675-12.137-60.68-60.68-12.138 25.673-77.022zm251.03.995l-244.52 189.63-18.5 36.997 30.33 6.065 6.064 30.326 36.998-18.498zM191.275 275.47l45.257 45.255-12.727 12.726-45.254-45.253zm-38.727 28.827L68.44 388.402l-17.87 60.3 107.535-107.536c-1.566-13.837-3.443-26.08-5.558-36.87zm18.287 49.598L63.297 461.43l60.3-17.87 84.106-84.107c-10.788-2.115-23.032-3.992-36.87-5.558zM41.76 415.085l-23.89 23.89v55.156h55.155l23.89-23.89-78.386 23.23z" fill="#d0021b" fill-opacity="1"></path></g><g class="" style="" transform="translate(256,256)"><g><circle cx="128" cy="128" r="128" fill="#000" fill-opacity="1"></circle><circle stroke="#f5a623" stroke-opacity="1" fill="#000" fill-opacity="1" stroke-width="18" cx="128" cy="128" r="101"></circle><path fill="#f5a623" fill-opacity="1" d="M99.016 83.18c0 27.973 28.984 32.635 28.984 55.946 0 9.325-9.661 23.312-24.153 23.312-14.492 0-24.153-13.987-14.492-37.298-14.491 9.324-19.322 18.649-19.322 27.973 0 23.312 24.153 46.623 57.967 46.623 33.813 0 57.966-13.987 57.966-41.96.216-41.378-49.4-55.2-62.797-74.597-9.66-13.987-4.83-23.311 4.83-32.636-19.321 4.663-28.983 17.717-28.983 32.636z"></path></g></g></svg>