<svg style="height: 512px; width: 512px;" xmlns="http://www.w3.org/2000/svg" viewBox="0 0 512 512"><rect fill="#000" fill-opacity="1" height="512" width="512" rx="32" ry="32"></rect><g class="" style="" transform="translate(0,0)"><path d="M435.41 33.52c25 0 42.87 30.9 16.52 56.46-6.54 6.34-105.07 98.47-190.71 181.84l-32.14-31.76C307.73 156.21 395.73 59.28 407.73 46.8c9-9.39 18.8-13.28 27.68-13.28zM219.82 249.89l31.71 31.35-9.66 9.49-31.33-31 9.28-9.84zm-18.57 19.7l31 30.62-9.63 9.5-30.68-30.32 9.31-9.8zm-18.64 19.59L213 319.25c-3.234 3.233-6.41 6.42-9.53 9.56l-30.23-29.88c3.066-3.18 6.19-6.43 9.37-9.75zm-18.78 19.47l30.12 29.77c-3.255 3.286-6.41 6.5-9.47 9.64l-30.09-29.74c3.06-3.113 6.206-6.337 9.44-9.67zm-18.94 19.29l30.18 29.83c-5.46 5.66-10.49 10.97-15.01 15.85a15.83 15.83 0 0 1-11.91 5.26c-15.92 0-33.28-21.54-18.86-35.51a981.663 981.663 0 0 0 15.6-15.43zm-26.98 52.41A44.59 44.59 0 0 0 131 390.59a786.394 786.394 0 0 0-4.93 12.73c-6.44 17.13-21 17.2-31.6 17.25-12.69.06-22.71.11-30.42 19-1.94 4.77-.72 7.3.73 9.16 8.84 11.29 45.88 16.94 79.27 12.08 19.61-2.86 27.68-8.16 28.51-10.26 0 0 .33-1.69-2.82-6.67a145.34 145.34 0 0 0-10.9-14c-3.28-3.9-6.66-7.93-9.54-11.89-4.33-6-5.8-14.54-5.83-23.42a34.21 34.21 0 0 0 4.63.32 32 32 0 0 0 11.4-2.08c-.31 10.19 1.68 14.31 2.74 15.76 2.55 3.51 5.75 7.32 8.85 11 10.81 12.87 21 25 16.37 36.82-2.72 6.91-12.06 16-41.1 20.26a192 192 0 0 1-27 1.83c-25.93 0-55.43-4.85-67.19-19.88-3.9-5.04-7.61-13.44-2.89-25.06 11.75-28.81 31.86-28.9 45.16-29 11.46-.05 14.37-.7 16.7-6.88s4.66-12.13 6.77-17.31z" fill="#ffffff" fill-opacity="1"></path></g><g class="" style="" transform="translate(256,256)"><g><circle cx="128" cy="128" r="128" fill="#000" fill-opacity="1"></circle><circle stroke="#50e3c2" stroke-opacity="1" fill="#000" fill-opacity="1" stroke-width="18" cx="128" cy="128" r="101"></circle><path fill="#50e3c2" fill-opacity="1" d="M128.133 49.472L98.398 66.735l16.032 27.789a35.849 35.849 0 0 0-8.432 4.889L89.967 71.64 60.282 88.87v33.958h32.211a36.405 36.405 0 0 0-.348 4.956c0 1.69.123 3.356.349 4.99H60.281v34.357l29.651 17.212 16.132-27.938a35.877 35.877 0 0 0 8.397 4.938L98.363 189.25l29.768 17.28 29.752-17.23-16.148-27.955a35.929 35.929 0 0 0 8.397-4.956l16.185 28.038 29.402-17.029v-34.624h-32.031c.226-1.634.35-3.298.35-4.99 0-1.679-.127-3.336-.35-4.955h32.03V88.587l-29.436-17.03L150.2 99.43a35.908 35.908 0 0 0-8.43-4.905l16.08-27.855-29.716-17.197zm-.05 52.136c14.485 0 26.193 11.689 26.193 26.176 0 14.488-11.705 26.176-26.193 26.176-14.488 0-26.176-11.69-26.176-26.176 0-14.486 11.69-26.176 26.176-26.176z"></path></g></g></svg>