<svg style="height: 512px; width: 512px;" xmlns="http://www.w3.org/2000/svg" viewBox="0 0 512 512"><rect fill="#000" fill-opacity="1" height="512" width="512" rx="32" ry="32"></rect><g class="" style="" transform="translate(0,0)"><g><path d="M478.89 21.842C472.456 21.729 463.843 25.47 454.648 34.664L328.912 160.4C328.912 160.393 328.915 160.385 328.916 160.377L268.688 220.605L268.698 220.615L255.971 233.342L255.961 233.332L233.304 255.99L233.314 256L220.874 268.44L220.864 268.43L189.98 299.314C189.98 299.319 189.982 299.324 189.984 299.328L134.328 354.984L156.955 377.611L477.275 57.291C496.102 38.466 492.065 22.074 478.891 21.843Z" class="" fill="#f8e71c" fill-opacity="1"></path><path d="M33.05 21.902C19.874 22.134 15.837 38.525 34.664 57.352L220.576 243.264L243.234 220.604L199.07 176.444C199.07 176.464 199.07 176.482 199.068 176.502L57.29 34.725C48.098 25.53 39.484 21.79 33.05 21.902Z" class="" fill="#000000" fill-opacity="1"></path><path d="M267.588 58.292C258.28 100.432 254.964 137.606 239.666 179.746C218.03 162.856 209.043 138.276 195.83 116.332C196.416 127.212 197.49 138.588 198.25 150.17L255.96 207.88L334.445 129.395C335.773 122.31 337.133 115.231 338.523 108.158C317.253 136.954 296.071 152.838 267.127 181.633C260.375 136.215 267.405 103.71 267.587 58.293Z" class="" fill="#000000" fill-opacity="1"></path><path d="M87.873 170.623C87.821 170.626 87.793 170.64 87.791 170.667C87.533 175.917 192.218 249.024 184.013 254.245C170.548 262.795 126.038 285.355 100.505 299.159C120.225 295.814 154.043 291.226 172.685 291.157L208.138 255.704L144.483 192.052C117.456 181.836 89.568 170.484 87.873 170.622Z" class="" fill="#000000" fill-opacity="1"></path><path d="M333.016 226.767L303.93 255.853L360.104 312.023C370.952 312.758 381.796 313.439 392.604 313.241C368.086 297.341 320.614 269.507 320.964 262.673C321.317 255.786 384.411 241.457 416.482 231.067C388.695 228.93 360.509 234.913 333.016 226.767Z" class="" fill="#000000" fill-opacity="1"></path><path d="M291.203 268.579L268.547 291.235L354.984 377.673L377.611 355.046L333.138 310.571L333.198 310.571L291.204 268.579Z" class="" fill="#000000" fill-opacity="1"></path><path d="M256.105 303.677L198.402 361.38C198.81 375.587 198.612 389.834 197.882 401.76C209.204 374.92 215.728 349.9 243.709 327.287C258.153 339.272 268.525 367.554 280.933 387.687C280.023 368.645 274.06 335.685 275.903 323.473L256.103 303.676Z" class="" fill="#000000" fill-opacity="1"></path><path d="M111.7 354.984L98.974 367.71L144.23 412.967L156.955 400.237L111.703 354.984L111.701 354.984Z" class="" fill="#9b9b9b" fill-opacity="1"></path><path d="M400.238 355.044L354.984 400.297L354.984 400.299L367.711 413.026L412.968 367.77L400.238 355.045Z" class="" fill="#000000" fill-opacity="1"></path><path d="M94.023 385.39L84.123 395.29L116.65 427.816L126.55 417.916L94.023 385.389Z" class="" fill="#9b9b9b" fill-opacity="1"></path><path d="M417.916 385.45L385.389 417.977L395.289 427.877L427.815 395.35L417.915 385.45Z" class="" fill="#000000" fill-opacity="1"></path><path d="M71.396 408.018L21.9 457.512L54.428 490.039L65.031 479.435L75.761 490.161L93.608 472.313L82.88 461.587L103.922 440.544L94.022 430.644L55.132 469.534L42.404 456.806L81.294 417.916L71.394 408.016Z" class="" fill="#9b9b9b" fill-opacity="1"></path><path d="M440.546 408.078L430.646 417.978L469.536 456.868L456.806 469.596L417.916 430.706L408.018 440.606L457.512 490.1L490.039 457.572L479.435 446.969L490.161 436.239L472.313 418.392L461.587 429.12L440.544 408.078Z" class="selected" fill="#000000" fill-opacity="1"></path></g></g><g class="" style="" transform="translate(256,256)"><g><circle cx="128" cy="128" r="128" fill="#000" fill-opacity="1"></circle><circle stroke="#d0021b" stroke-opacity="1" fill="#000" fill-opacity="1" stroke-width="18" cx="128" cy="128" r="101"></circle><path fill="#d0021b" fill-opacity="1" d="M128 53.346l8.997 46.964 34.883-32.706-20.325 43.283L199 104.93 157.115 128 199 151.07l-47.445-5.957 20.325 43.283-34.883-32.706L128 202.654l-8.997-46.964-34.883 32.706 20.325-43.283L57 151.07 98.885 128 57 104.93l47.445 5.957L84.12 67.604l34.883 32.706z"></path></g></g></svg>