<svg style="height: 512px; width: 512px;" xmlns="http://www.w3.org/2000/svg" viewBox="0 0 512 512"><rect fill="#000" fill-opacity="1" height="512" width="512" rx="32" ry="32"></rect><g class="" style="" transform="translate(0,0)"><g><path d="M280.3 30.04C246.9 49.82 209.6 85.51 175.8 127.1C128.4 185.4 86.95 254.6 65.99 303.7L67.68 312.6L75.29 311.2L76.12 309.7C92.69 279.2 118.1 243.7 148.3 208C186.6 146.6 232.4 80.44 280.3 30.04Z" class="" fill="#f5a623" fill-opacity="1" stroke="#d0021b" stroke-opacity="1" stroke-width="8"></path><path d="M394.2 32.76C351.2 48.68 297.9 85.55 248.1 130.7C183.2 189.7 123.2 262 93.37 315.9L94.97 327.5L107.9 321.7C116.2 311.8 124.9 301.8 132.3 293.7C197.1 208.5 303.2 104.3 394.2 32.76Z" class="" fill="#f5a623" fill-opacity="1" stroke="#d0021b" stroke-opacity="1" stroke-width="8"></path><path d="M473 81.09C425.5 88.81 366.4 119.4 309.1 160.4C237.9 211.3 169.1 277 125.2 329.1L126.6 348.6L151 347C224.7 261.9 349.4 153.3 473 81.09Z" class="selected" fill="#f5a623" fill-opacity="1" stroke="#d0021b" stroke-opacity="1" stroke-width="8"></path><path d="M47.34 303L18 344L18 488L55.32 474C55.32 474 105.9 491.1 128 491.7C159.5 492.5 200.7 443.5 202.7 434C204.3 426.1 198.9 419.3 193.9 412.6C174 426.8 158.8 433.3 132.1 419.1C162.7 413 166.3 413.4 185.7 397.2C195.7 388.2 198 377.4 197.2 367.7C196.7 361.7 182.9 357.2 174.8 347.2C169.2 353.4 164.8 358.5 159.7 364.4L110 367.8L108.1 341.3L79.62 351.3L77.04 329.2L53.3 333.4C51.4 322.8 49.19 311.8 47.34 303Z" class="" fill="#9b9b9b" fill-opacity="1"></path></g></g><g class="" style="" transform="translate(256,256)"><g><circle cx="128" cy="128" r="128" fill="#000" fill-opacity="1"></circle><circle stroke="#d0021b" stroke-opacity="1" fill="#000" fill-opacity="1" stroke-width="18" cx="128" cy="128" r="101"></circle><path fill="#d0021b" fill-opacity="1" d="M128 53.346l8.997 46.964 34.883-32.706-20.325 43.283L199 104.93 157.115 128 199 151.07l-47.445-5.957 20.325 43.283-34.883-32.706L128 202.654l-8.997-46.964-34.883 32.706 20.325-43.283L57 151.07 98.885 128 57 104.93l47.445 5.957L84.12 67.604l34.883 32.706z"></path></g></g></svg>