<svg style="height: 512px; width: 512px;" xmlns="http://www.w3.org/2000/svg" viewBox="0 0 512 512"><rect fill="#000" fill-opacity="1" height="512" width="512" rx="32" ry="32"></rect><g class="" style="" transform="translate(0,0)"><g><path d="M358.5 283.23C335.61 286.33 306.5 288.46 269.78 289.71C246.48 290.5 220.35 290.9 192.1 290.9C156.53 290.9 124.83 290.27 105.21 289.81C105.382 309.637 108.379 329.338 114.11 348.32C136.53 423.2 195.4 473.87 253.99 473.87C263.635 473.878 273.23 472.477 282.47 469.71C347.47 450.25 380.56 367.75 358.5 283.23Z" class="" fill="#7ed321" fill-opacity="1"></path><path d="M196.12 370.51L182.54 362.26L176.54 372.79L160.8 363.79L167.07 352.86L153.07 344.36L162.49 328.86L176.07 337.11L182.07 326.58L197.81 335.58L191.54 346.51L205.54 355.01Z" class="" fill="#000000" fill-opacity="1"></path><path d="M294.42 344.69L280.84 336.44L274.84 346.97L259.1 337.97L265.34 327L251.34 318.51L260.79 303L274.37 311.25L280.37 300.72L296.11 309.72L289.84 320.65L303.84 329.15Z" class="" fill="#000000" fill-opacity="1"></path><path d="M416.21 117.42L438.21 135.75L462.53 120.67L451.89 147.24L473.75 165.71L445.2 163.8L434.36 190.3L427.36 162.55L398.82 160.45L422.99 145.22Z" class="" fill="#f8e71c" fill-opacity="1"></path><path d="M415.99 38.58L418.07 56.46L435.69 60.13L419.33 67.63L421.33 85.52L409.12 72.28L392.71 79.67L401.53 64L389.43 50.67L407.08 54.22Z" class="" fill="#f8e71c" fill-opacity="1"></path><path d="M62.92 38.13L81.35 60L107.94 49.42L92.81 73.74L111.09 95.74L83.31 88.87L67.99 113.06L65.99 84.52L38.25 77.45L64.77 66.69Z" class="" fill="#f8e71c" fill-opacity="1"></path><path d="M415.99 243.44C411.43 256.1 390.43 269.59 269.27 273.71C243.39 274.59 216.8 274.89 192.13 274.89C150.22 274.89 70.93 273.68 70.93 273.68L70.93 257.68C70.93 257.68 150.4 258.89 192.14 258.89C216.28 258.89 242.26 258.6 267.57 257.75C306.34 256.46 337.5 254.06 360.19 250.64C394.26 245.49 400 239.41 400.82 238.2C400.58 237.63 399.6 235.85 395.96 232.97C385.82 224.97 367.43 216.97 342.66 209.53C337.617 202.097 332.085 195.008 326.1 188.31C328.1 188.82 330.1 189.31 331.98 189.84C367.15 199.2 391.98 209.48 405.86 220.4C412.37 225.58 419.44 233.76 415.99 243.44Z" class="" fill="#ffffff" fill-opacity="1"></path><path d="M111.18 241.93C112.68 234.6 120.02 215.43 123.59 210.01C179.94 213.87 274.44 194.29 299.97 184.85C315.18 198.1 332.68 220.69 340.58 237.04C283.27 243.56 181.15 243.69 111.15 241.94Z" class="" fill="#7ed321" fill-opacity="1"></path><path d="M130.58 169.84C120.5 169.24 96.85 167.77 87.93 171.84C99.8 183.05 162.93 184.3 216.16 176.76C273.22 168.68 326.16 155.3 357.23 134.13C370.17 125.31 377.01 112.42 375.77 106.7C369.47 77.54 201.65 67.24 201.65 67.24C201.65 67.24 379.94 70.93 381.26 106.69C382.68 145.05 299.12 174.49 218.82 187.02C142.55 198.92 69.43 199.75 73.22 168.29C75.42 150.01 124.55 153.42 145.81 155.84C141.59 158.75 133.86 166.4 130.55 169.85Z" class="selected" fill="#ffffff" fill-opacity="1"></path><path d="M206.46 150.71C220.818 149.338 235.306 150.903 249.04 155.31C236.31 158.43 190.75 164.62 163.88 165.31C185.09 152.38 202.67 151.17 206.43 150.72Z" class="" fill="#7ed321" fill-opacity="1"></path></g></g></svg>