<svg style="height: 512px; width: 512px;" xmlns="http://www.w3.org/2000/svg" viewBox="0 0 512 512"><rect fill="#000" fill-opacity="1" height="512" width="512" rx="32" ry="32"></rect><g class="" style="" transform="translate(0,0)"><g><path d="M214.156 20.813C213.548 20.821 212.914 20.843 212.281 20.875L212.063 20.905L211.813 20.905C200.316 20.905 190.488 24.582 186.033 29.781C181.798 34.721 179.903 41.644 186.126 55.313C192.186 64.733 197.106 77.586 201.376 94.189L183.282 98.845C175.912 70.173 166.669 58.439 160.064 55.532C156.762 54.08 153.508 53.982 148.814 55.408C144.121 56.835 138.33 60.003 132.064 64.628C122.344 71.802 116.13 81.178 116.502 89.314C116.792 95.632 120.729 103.628 133.815 112.284C134.915 112.896 136.001 113.487 137.127 114.127L137.033 114.315C140.097 116.157 143.533 118.025 147.503 119.908L139.473 136.814C134.06 134.246 129.207 131.532 124.878 128.721C108.686 119.828 96.732 115.851 90.098 116.407C86.578 116.702 84.368 117.683 81.722 120.313C79.075 122.943 76.196 127.621 73.596 134.876C69.279 146.921 68.452 156.916 71.94 162.596C74.728 167.136 81.62 171.806 97.596 173.376C101.451 173.456 105.546 173.616 110.033 173.814L110.033 173.939C110.491 173.939 110.911 173.943 111.378 173.939L111.566 192.626C106.844 192.671 102.434 192.519 98.284 192.188C85.304 192.108 77.359 193.15 73.879 194.908C71.693 196.011 70.762 196.942 69.566 199.376C68.371 201.81 67.266 205.944 66.536 211.906C65.854 217.472 66.322 221.616 67.536 224.563C68.748 227.51 70.571 229.703 74.754 231.938C83.119 236.408 101.564 239.121 132.348 236.501L133.942 255.126C109.995 257.164 92.215 256.793 78.66 253.282C77.492 257.839 77.683 261.384 78.535 264.377C79.691 268.432 82.267 271.897 86.161 274.971C93.951 281.118 107.211 284.531 115.067 284.531L227.97 284.531C241.554 284.531 253.316 274.501 257.813 256.626L265.875 224.563L275.781 256.095C281.533 274.395 293.641 284.532 305.781 284.532L418.69 284.532C425.762 284.532 439.028 280.2 447.065 273.19C451.083 269.684 453.843 265.753 455.033 261.658C455.803 259.018 456.038 256.218 455.378 252.938C441.671 256.762 423.54 257.228 398.848 255.128L400.44 236.502C431.226 239.122 449.67 236.408 458.034 231.939C462.218 229.705 464.041 227.511 465.254 224.564C466.467 221.618 466.936 217.474 466.254 211.908C465.524 205.945 464.419 201.811 463.224 199.378C462.027 196.943 461.097 196.012 458.91 194.908C455.43 193.151 447.487 192.108 434.504 192.188C430.354 192.52 425.944 192.672 421.224 192.628L421.41 173.938C421.877 173.944 422.297 173.938 422.754 173.938L422.754 173.814C427.242 173.616 431.337 173.456 435.192 173.377C451.167 171.807 458.059 167.137 460.848 162.597C464.335 156.917 463.508 146.922 459.192 134.877C456.592 127.622 453.712 122.945 451.067 120.314C448.42 117.684 446.21 116.704 442.692 116.408C436.056 115.852 424.102 119.828 407.91 128.721C403.582 131.531 398.73 134.245 393.316 136.814L385.286 119.907C389.256 118.023 392.691 116.157 395.754 114.313L395.66 114.126C396.786 113.486 397.873 112.896 398.973 112.282C412.058 103.628 415.995 95.632 416.283 89.314C416.656 81.177 410.443 71.802 400.723 64.627C394.457 60.003 388.665 56.835 383.973 55.407C379.278 53.981 376.023 54.08 372.723 55.533C370.413 56.551 367.791 58.669 365.033 62.19C364.526 63.378 363.97 64.583 363.378 65.784L362.722 65.474C358.27 72.34 353.61 82.99 349.532 98.848L331.408 94.192C336.251 75.352 341.918 61.335 349.158 51.692C353.483 40.389 351.562 34.267 347.721 29.785C343.264 24.587 333.404 20.911 321.907 20.911L321.687 20.911L321.439 20.881C311.311 20.371 304.409 22.835 298.719 27.099C293.032 31.363 288.504 37.841 285.095 45.849C278.277 61.864 276.407 83.492 276.407 99.349L276.407 99.411L276.22 136.441L276.22 136.536L257.53 136.536L257.53 136.443L257.313 99.413L257.313 99.351C257.313 83.493 255.443 61.865 248.625 45.851C245.215 37.841 240.719 31.364 235.031 27.101C229.701 23.101 223.285 20.686 214.157 20.819Z" class="" fill="#9013fe" fill-opacity="1"></path><path d="M267.219 280.688C258.144 294.322 244.167 303.218 227.969 303.218L115.062 303.218C102.75 303.218 87.038 299.448 74.592 289.625C72.439 287.925 70.395 286.005 68.53 283.875C80.86 375.653 110.94 443.473 150.156 487.188L152.936 490.281L380.221 490.281L383.001 487.189C422.776 442.986 453.368 374.166 465.564 280.876C463.676 283.221 461.564 285.346 459.344 287.282C447.252 297.832 431.784 303.222 418.688 303.222L305.781 303.222C290.068 303.222 276.517 294.282 267.221 280.689Z" class="" fill="#b8e986" fill-opacity="1"></path><path d="M164.544 318.86C189.949 319.284 217.462 336.903 227.874 369.78C209.034 403.18 132.922 400.376 122.904 340.47C131.864 326.342 146.454 319.302 162.094 318.875C162.907 318.853 163.724 318.848 164.544 318.861Z" class="selected" fill="#000000" fill-opacity="1"></path><path d="M365.594 318.875C381.964 318.745 397.416 325.753 406.749 340.469C396.732 400.375 320.589 403.179 301.749 369.779C312.229 336.689 340.051 319.076 365.593 318.874Z" class="" fill="#000000" fill-opacity="1"></path><path d="M174.936 340.28C166.188 340.28 159.28 347.187 159.28 355.938C159.28 364.688 166.19 371.563 174.937 371.563C183.687 371.563 190.562 364.688 190.562 355.938C190.562 347.19 183.685 340.281 174.937 340.281Z" class="" fill="#000000" fill-opacity="1"></path><path d="M355.656 340.28C346.906 340.28 339.999 347.187 339.999 355.938C339.999 364.688 346.907 371.563 355.655 371.563C364.405 371.563 371.28 364.688 371.28 355.938C371.28 347.19 364.404 340.281 355.656 340.281Z" class="" fill="#000000" fill-opacity="1"></path></g></g><g class="" style="" transform="translate(256,256)"><g><circle cx="128" cy="128" r="128" fill="#000" fill-opacity="1"></circle><circle stroke="#9013fe" stroke-opacity="1" fill="#000" fill-opacity="1" stroke-width="18" cx="128" cy="128" r="101"></circle><path fill="#9013fe" fill-opacity="1" d="M119 64v55H64v18h55v55h18v-55h55v-18h-55V64h-18z"></path></g></g></svg>