<svg style="height: 512px; width: 512px;" xmlns="http://www.w3.org/2000/svg" viewBox="0 0 512 512"><rect fill="#000" fill-opacity="1" height="512" width="512" rx="32" ry="32"></rect><g class="" style="" transform="translate(0,0)"><g><path d="M197 88.84C197 109.2 204.1 127.3 214.6 139.8L224.8 152.1L209.1 155C195.3 157.6 185.1 164.9 176.6 176.5C173.6 180.6 170.8 185.4 168.3 190.5C195.2 195.7 224.6 198.7 255.5 198.7C283.7 198.7 310.8 196.2 335.8 191.8C333 185.6 329.8 180.1 326.2 175.3C317.6 163.8 306.9 156.5 291.5 154.2L275.5 151.7L285.6 139.1C295.7 126.6 302.4 108.7 302.4 88.84C302.4 49.53 277.5 19.87 249.7 19.87C213.5 19.97 197.5 67.18 197 88.84Z" class="" fill="#b57204" fill-opacity="1"></path><path d="M315.2 53.96C319 64.74 321.1 76.54 321.1 88.84C321.1 97.44 320.1 105.6 318.2 113.4C368.5 119.6 412.8 133.2 445.9 152.4C453 147.8 459.2 143.1 464.6 138.1C468.7 144.1 471.3 150.2 472.4 156.3C428.1 194.3 347.7 217.4 255.5 217.4C163.8 217.4 83.84 194.5 39.34 156.9C40.88 149.9 43.43 143.8 46.84 138.5C52.14 143.3 58.34 147.9 65.14 152.4C95.84 134.6 136 121.7 181.7 114.9C179.6 106.7 178.4 98.04 178.4 88.84C178.4 77.04 180.3 65.55 183.8 55.06C171.5 56.93 159.5 58.58 148.4 62.06C98.22 77.58 34.78 101.1 21.48 151.1C18.44 164.3 21.58 180.6 26.46 190.8C34.72 205.1 44.34 216.8 57.05 225.9C79.65 242.9 110.7 256.2 147.2 265.1L147.3 264.9C172.7 271.2 201 275.4 230.9 276.8C238.4 277.2 246.7 276.8 255.4 276.8C293.7 276.8 329.9 272.4 361.9 264.8L361.9 265.1C399.3 256.2 431 242.9 454 226C477 209 491.8 187.7 491.8 163.7C491.8 139.6 476.8 118.1 453.6 101.1C407.2 72.35 365.6 60.26 315.2 53.96Z" class="" fill="#ffffff" fill-opacity="1"></path><path d="M440 256.2C417.6 267.5 391.7 276.5 370.9 281.9C371 283.6 371 287.4 371.1 289.1C399.6 296.3 425 304.1 446 316.2C453 311.7 459.2 307 464.6 302.1C468.6 308 471.3 314.1 472.5 320.2C428.1 358.2 347.7 381.2 255.5 381.2C163.8 381.2 83.94 358.4 39.34 320.8C40.44 314.6 42.94 308.5 46.94 302.4C52.24 307.2 58.34 311.8 65.14 316.2C83.44 305.6 105.2 296.8 129.4 289.9L130 279.7C108.2 273.5 88.44 265.7 71.14 256.5C57.59 264.8 42.48 276.4 33.84 288.1C23.21 301.2 20.13 314.7 20.09 327.7C21.55 355.2 36.44 374.1 57.14 390C79.74 406.9 110.8 420.3 147.3 429.1L147.4 428.8C172.8 435.1 201.1 439.3 231 440.7C274 440.8 323.8 439.1 361.9 428.7C394.6 419.5 429.5 407.7 454 390C477 373.1 491.9 351.7 491.9 327.7C491.9 303.7 476.9 282.2 453.7 265.2C449.4 262.1 444.8 259.1 440 256.2Z" class="selected" fill="#ffffff" fill-opacity="1"></path><path d="M148.5 284.5C147.4 301 147.1 317.6 147 333.2L191.3 333.2L193.1 358.4C213 361.1 233.9 362.6 255.5 362.6C274 362.6 291.9 361.5 309.1 359.5C309.7 350.7 310.3 342 310.9 333.2L353 333.2C353 318.2 352.9 302.1 352.3 286.1C322.5 292.2 289.8 295.5 255.5 295.5C247.4 295.5 238.9 295.9 230.1 295.5C201.2 294.1 173.7 290.3 148.5 284.5Z" class="" fill="#b57204" fill-opacity="1"></path><path d="M200.5 457.1L203.2 492.2L300.3 492.2L302.6 457.2C267.2 460.1 234.3 460.6 200.5 457.1Z" class="" fill="#b57204" fill-opacity="1"></path></g></g></svg>