<svg style="height: 512px; width: 512px;" xmlns="http://www.w3.org/2000/svg" viewBox="0 0 512 512"><rect fill="#000" fill-opacity="1" height="512" width="512" rx="32" ry="32"></rect><g class="" style="" transform="translate(0,0)"><g><path d="M200.094 21.094L213.969 164.814L83.72 58.343L156.344 198.249L78.624 168.779L112.906 230.905L30.844 228.843L135.874 297L31.75 327.03L141.188 348.188C149.578 299.386 190.785 262.994 238.938 242.844C267.854 230.744 299.608 224.082 329.688 224.25C348.925 224.358 367.464 227.274 384.125 233.313L432.125 113.938L350 196.5L369.22 34.72L327.344 130.688L313.47 92.03L280.78 175.53L200.094 21.094Z" class="" fill="#fff" fill-opacity="1" stroke="#d0021b" stroke-opacity="1" stroke-width="8"></path><path d="M455.874 211.781C437.991 211.688 417.022 220.821 399.937 237.907C394.627 243.217 390.114 248.929 386.375 254.782C357.123 237.155 314 237.977 273.095 250.877C263.925 253.361 254.881 256.414 246.155 260.065C202.479 278.342 167.652 309.902 159.937 349.69C153.327 379.798 165.307 412.913 207.375 444.533L88.062 444.533L61.625 492.283L318.78 492.283L230.313 389.033C254.583 362.326 297.77 345.33 327.313 343.973C341.105 389.069 363.546 457.469 399.031 492.283L459.907 492.283C416.837 445.737 383.337 383.196 377.937 312.441C379.554 315.676 381.657 318.629 384.251 321.221C402.915 339.885 440.196 332.839 467.531 305.503C494.868 278.167 501.915 240.885 483.251 222.223C476.251 215.223 466.606 211.841 455.876 211.783Z" class="selected" fill="#ffe0af" fill-opacity="1"></path></g></g></svg>