<svg style="height: 512px; width: 512px;" xmlns="http://www.w3.org/2000/svg" viewBox="0 0 512 512"><rect fill="#000" fill-opacity="1" height="512" width="512" rx="32" ry="32"></rect><g class="" style="" transform="translate(0,-40)"><g><path d="M383.215 71.94C330.196 71.94 287.215 114.921 287.215 167.94C287.256 181.448 290.147 194.796 295.699 207.11C298.191 207.002 300.693 206.944 303.202 206.94L303.213 206.94C337.439 206.942 368.569 216.12 391.691 231.576C402.467 238.78 411.576 247.492 418.231 257.314C455.009 242.906 479.208 207.441 479.213 167.941C479.213 114.922 436.232 71.941 383.213 71.941Z" class="selected" fill="#000000" fill-opacity="1"></path><path d="M154.662 179.845C107.31 179.848 69.488 216.305 69.484 261.035L69.484 261.042C69.489 268.432 70.554 275.782 72.646 282.902L75.434 292.379L65.736 294.273C52.686 296.823 41.976 302.091 34.886 308.398C27.799 314.701 24.396 321.653 24.386 328.691L24.386 328.694C24.388 337.5 29.711 346.104 40.193 353.092C50.675 360.08 65.971 364.787 83.025 364.789C91.495 364.772 99.867 363.583 107.508 361.346L112.113 359.996L115.799 363.068C132.887 377.311 165.671 387.328 200.999 387.338C215.299 387.314 229.433 385.718 242.369 382.698L249.699 380.984L252.681 387.894C260.811 406.734 287.923 422.039 319.804 422.064C339.87 422.061 357.879 416.204 370.397 407.322C382.889 398.46 389.683 387.154 389.714 375.15C389.702 374.815 389.686 374.48 389.664 374.143L388.964 364.033L399.084 364.528C402.421 364.692 405.78 364.78 409.144 364.788C432.354 364.786 453.35 361.051 467.741 355.488C474.939 352.705 480.443 349.432 483.665 346.488C486.881 343.548 487.607 341.498 487.61 339.974C487.606 338.6 487.026 336.814 484.395 334.18C481.758 331.54 477.18 328.51 471.043 325.828C458.768 320.465 440.451 316.42 419.42 315.416L408.617 314.9L411.087 304.37C411.834 301.19 412.221 298.005 412.267 294.815C412.244 276.68 401.277 259.638 381.689 246.545C362.083 233.438 334.189 224.947 303.214 224.945C282.731 224.973 262.657 228.779 245.421 235.795L237.169 239.155L233.726 230.939C220.86 200.229 189.629 179.869 154.666 179.849L154.661 179.849Z" class="" fill="#fff" fill-opacity="1"></path></g></g></svg>