<svg style="height: 512px; width: 512px;" xmlns="http://www.w3.org/2000/svg" viewBox="0 0 512 512"><rect fill="#000" fill-opacity="1" height="512" width="512" rx="32" ry="32"></rect><g class="" style="" transform="translate(0,0)"><g><path d="M407 24.98L407 39.02L423 39.02L423 25Z" class="" fill="#c9c9c9" fill-opacity="1"></path><path d="M88.99 25L88.99 39.03L105 39.03L105 25Z" class="" fill="#c9c9c9" fill-opacity="1"></path><path d="M487 57L344.9 57L344.9 72.96L487 72.96Z" class="" fill="#c9c9c9" fill-opacity="1"></path><path d="M167 57L25 57L25 72.98L167 72.98Z" class="" fill="#c9c9c9" fill-opacity="1"></path><path d="M423 90.93L406.9 90.93L406.9 118.9L420.6 119L423 119Z" class="" fill="#c9c9c9" fill-opacity="1"></path><path d="M105 91.03L88.97 91.03L88.97 119.1L105 119.1Z" class="" fill="#c9c9c9" fill-opacity="1"></path><path d="M377 136.9L376.9 169L298.4 169L282.4 137L229.6 137L213.6 169.1L135 169L135 137L55.03 137L42.99 185L199 214.4L199 208C199.1 176.6 224.7 151.1 256.1 151C287.4 151 313.1 176.6 313 208C313 212.1 313.1 214.4 313.1 214.4L469 185.1L457 137Z" class="" fill="#c9c9c9" fill-opacity="1"></path><path d="M256.1 169C234.5 169 217.1 186.4 217 208.1C217.1 229.6 234.5 247 256.1 247C277.7 247 295.1 229.6 295 208C295.1 186.5 277.7 169 256.1 169Z" class="" fill="#d0021b" fill-opacity="1"></path><path d="M255.9 183C269.7 183 280.9 194.3 281 208C281 221.7 269.7 233.1 256 233C242.3 233 230.9 221.7 231 208.1C231 194.3 242.3 183.1 255.9 183Z" class="" fill="#000000" fill-opacity="1"></path><path d="M201.2 223.5L215 279L297 279L310.9 223.6C304.1 247.5 282.1 265 256.1 265C230 265 208 247.4 201.2 223.5Z" class="" fill="#c9c9c9" fill-opacity="1"></path><path d="M165.4 227.7L60.35 321.1L144.2 428.8C149.2 423.8 155.5 420 162.4 417.7L100.2 318L188.1 245L184.7 231.6Z" class="" fill="#9b9b9b" fill-opacity="1"></path><path d="M346.7 227.9L327.3 231.7L324 245.1L411.8 318.1L349.6 417.7C356.6 420 362.8 423.9 367.9 429L451.7 321.2Z" class="" fill="#9b9b9b" fill-opacity="1"></path><path d="M176 433.6C161 433.6 149.1 445.5 149.1 460.3C149.1 475.2 161 487 176.1 487.1C191 487 203 475.1 203 460.3C202.9 445.5 191.1 433.6 176 433.6Z" class="selected" fill="#9b9b9b" fill-opacity="1"></path><path d="M335.9 433.6C321 433.7 308.9 445.5 309 460.4C309 475.1 320.9 487 336 487C351 487 363 475.2 362.9 460.3C363 445.5 351 433.6 335.9 433.6Z" class="" fill="#9b9b9b" fill-opacity="1"></path></g></g></svg>