<svg style="height: 512px; width: 512px;" xmlns="http://www.w3.org/2000/svg" viewBox="0 0 512 512"><rect fill="#000" fill-opacity="1" height="512" width="512" rx="32" ry="32"></rect><g class="" style="" transform="translate(0,0)"><g><path d="M257.688 20.375C219.16 20.375 182.853 32.865 150.406 55.188L96.156 55.188L96.156 460.5L150.063 460.5C182.618 482.954 219.099 495.563 257.688 495.563C296.276 495.563 332.732 482.953 365.281 460.5L419.189 460.5L419.189 55.188L364.97 55.188C332.523 32.865 296.216 20.376 257.687 20.376Z" class="" fill="#f8e71c" fill-opacity="1"></path><path d="M123.155 84.28L392.28 84.28L392.28 432.157L123.157 432.157L123.157 84.28Z" class="selected" fill="#000000" fill-opacity="1"></path><path d="M141.843 102.97L141.843 211.688L268.687 102.968L141.844 102.968Z" class="" fill="#fff" fill-opacity="1"></path><path d="M342.28 102.97L141.845 274.78L141.845 331.406L373.595 132.719L373.595 102.969L342.28 102.969Z" class="" fill="#fff" fill-opacity="1"></path><path d="M373.594 243.063L174.53 413.469L221.062 413.469L373.594 285.093L373.594 243.063Z" class="" fill="#fff" fill-opacity="1"></path><path d="M373.594 309.531L250.094 413.471L373.594 413.471L373.594 309.53Z" class="" fill="#fff" fill-opacity="1"></path></g></g></svg>