<svg style="height: 512px; width: 512px;" xmlns="http://www.w3.org/2000/svg" viewBox="0 0 512 512"><rect fill="#000" fill-opacity="1" height="512" width="512" rx="32" ry="32"></rect><g class="" style="" transform="translate(0,0)"><g><path d="M250.9 18.9C227 21.89 205.6 49.55 205.6 85.89C205.6 105.8 212.4 123.3 222.4 135.5L234.6 150L215.9 153.5C202.9 156 193.3 163 185.2 174.3C176.7 185.8 170.4 201.2 166.1 219.5C158.1 252.2 156.2 292.2 156.2 327.7L199.8 327.7L211.5 488.2C241.9 495.2 274.6 494.7 303.8 488.2L314.5 327.7L356 327.7C356 292 355.5 251.3 348.2 218C344.3 200.1 338.2 184.3 330 172.9C321.8 161.8 311.5 155.1 296.7 152.8L277.8 149.8L289.7 134.9C299.6 122.8 306.1 105.3 306.1 85.89C306.1 47.35 282.1 18.9 255.8 18.9L250.9 18.9Z" class="selected" fill="#48baff" fill-opacity="1"></path><path d="M395.9 22.49L395.9 64.34L354.1 64.34L354.1 114.5L395.9 114.5L395.9 156.1L445.8 156.1L445.8 114.5L487.7 114.5L487.7 64.34L445.8 64.34L445.8 22.49L395.9 22.49Z" class="" fill="#b8e986" fill-opacity="1"></path><path d="M52.92 62.89L52.92 93.47L22.39 93.47L22.39 130.1L52.92 130.1L52.92 160.5L89.32 160.5L89.32 130.1L119.9 130.1L119.9 93.47L89.32 93.47L89.32 62.89L52.92 62.89Z" class="" fill="#b8e986" fill-opacity="1"></path><path d="M92.63 199.7L92.63 221.5L70.75 221.5L70.75 247.8L92.63 247.8L92.63 269.7L118.9 269.7L118.9 247.8L140.7 247.8L140.7 221.5L118.9 221.5L118.9 199.7L92.63 199.7Z" class="" fill="#b8e986" fill-opacity="1"></path><path d="M447.7 262.1L447.7 283.9L425.8 283.9L425.8 310.2L447.7 310.2L447.7 332.1L474 332.1L474 310.2L495.8 310.2L495.8 283.9L474 283.9L474 262.1L447.7 262.1Z" class="" fill="#b8e986" fill-opacity="1"></path><path d="M140.2 361.5L140.2 376.5L125.2 376.5L125.2 394.5L140.2 394.5L140.2 409.5L158.3 409.5L158.3 394.5L173.3 394.5L173.3 376.5L158.3 376.5L158.3 361.5L140.2 361.5Z" class="" fill="#b8e986" fill-opacity="1"></path><path d="M370.2 407.3L370.2 422.3L355.2 422.3L355.2 440.3L370.2 440.3L370.2 455.3L388.2 455.3L388.2 440.3L403.2 440.3L403.2 422.3L388.2 422.3L388.2 407.3L370.2 407.3Z" class="" fill="#b8e986" fill-opacity="1"></path><path d="M49.32 431.8L49.32 446.8L34.32 446.8L34.32 464.8L49.32 464.8L49.32 479.8L67.33 479.8L67.33 464.8L82.33 464.8L82.33 446.8L67.33 446.8L67.33 431.8L49.32 431.8Z" class="" fill="#b8e986" fill-opacity="1"></path></g></g><g class="" style="" transform="translate(256,256)"><g><circle cx="128" cy="128" r="128" fill="#000" fill-opacity="1"></circle><circle stroke="#48baff" stroke-opacity="1" fill="#000" fill-opacity="1" stroke-width="18" cx="128" cy="128" r="101"></circle><path fill="#48baff" fill-opacity="1" d="M119 64v55H64v18h55v55h18v-55h55v-18h-55V64h-18z"></path></g></g></svg>