<svg style="height: 512px; width: 512px;" xmlns="http://www.w3.org/2000/svg" viewBox="0 0 512 512"><rect fill="#000" fill-opacity="1" height="512" width="512" rx="32" ry="32"></rect><g class="" style="" transform="translate(0,0)"><g><path d="M18 18L18 33.797L179.434 215.41L188.918 198.986L28.04 18L18 18Z" class="" fill="#48baff" fill-opacity="1"></path><path d="M95.705 18L192.655 192.512L203.148 174.336L116.295 18L95.705 18Z" class="" fill="#48baff" fill-opacity="1"></path><path d="M186.859 18C191.185 37.018 202.129 85.152 215.219 143.326C215.776 145.808 216.293 148.133 216.849 150.604L230.124 127.611C219.105 78.687 209.9 38.14 205.32 18L186.86 18Z" class="" fill="#48baff" fill-opacity="1"></path><path d="M247 18L247 98.383L256 82.795L263.795 96.295L265 98.383L265 18L247 18Z" class="" fill="#48baff" fill-opacity="1"></path><path d="M306.78 18L282.27 128.297L295.584 151.355L325.22 18L306.78 18Z" class="" fill="#48baff" fill-opacity="1"></path><path d="M395.705 18L308.852 174.336L319.346 192.512L416.296 18L395.706 18Z" class="" fill="#48baff" fill-opacity="1"></path><path d="M483.959 18L323.083 198.986L332.565 215.41L494 33.797L494 18L483.96 18Z" class="" fill="#48baff" fill-opacity="1"></path><path d="M18 98.25L18 120.75L168.79 233.844L177.857 218.144L18 98.25Z" class="" fill="#48baff" fill-opacity="1"></path><path d="M494 98.25L334.145 218.143L343.209 233.843L494 120.75L494 98.25Z" class="" fill="#48baff" fill-opacity="1"></path><path d="M256 118.797L181.344 248.105C201.641 239.003 227.598 233.755 256 233.755C284.402 233.755 310.36 239.003 330.656 248.105L256 118.797Z" class="" fill="#b8e986" fill-opacity="1"></path><path d="M18 189.137L18 208.363L154.05 259.381L163.172 243.577L18 189.136Z" class="" fill="#48baff" fill-opacity="1"></path><path d="M494 189.137L348.828 243.577L357.951 259.381L494 208.364L494 189.138Z" class="" fill="#48baff" fill-opacity="1"></path><path d="M18 249.18L18 267.32L140.615 282.646L150.385 265.726L18 249.18Z" class="" fill="#48baff" fill-opacity="1"></path><path d="M494 249.18L361.617 265.727L371.385 282.647L494 267.32L494 249.18Z" class="" fill="#48baff" fill-opacity="1"></path><path d="M256 251.756C241.263 251.756 229.51 263.506 229.51 278.244C229.51 286.78 233.458 294.309 239.64 299.139C238.734 296.361 238.267 293.458 238.256 290.536C238.256 275.022 250.832 262.446 266.346 262.446C270.883 262.453 275.35 263.559 279.366 265.669C274.92 257.354 266.172 251.755 256 251.755Z" class="" fill="#48baff" fill-opacity="1"></path><path d="M217.82 255.492C205.164 258.06 193.89 261.82 184.738 266.396C167.108 275.211 158.528 286.154 158.528 295.99C158.528 305.827 167.108 316.767 184.738 325.582C202.368 334.397 227.815 340.225 256 340.225C284.185 340.225 309.632 334.397 327.262 325.582C344.892 316.767 353.472 305.827 353.472 295.99C353.472 286.154 344.892 275.21 327.262 266.396C318.109 261.82 306.836 258.06 294.18 255.492C298.18 262.162 300.49 269.945 300.49 278.244C300.49 302.709 280.465 322.734 256 322.734C231.535 322.734 211.51 302.709 211.51 278.244C211.51 269.944 213.82 262.161 217.82 255.492Z" class="" fill="#ffffff" fill-opacity="1"></path><path d="M133.953 294.186L18 308.68L18 326.82L122.666 313.738L133.953 294.186Z" class="" fill="#48baff" fill-opacity="1"></path><path d="M378.047 294.186L389.334 313.738L494 326.82L494 308.68L378.047 294.186Z" class="" fill="#48baff" fill-opacity="1"></path><path d="M144.289 312.286L87.177 411.206L424.821 411.206L367.711 312.286C361.948 324.364 350.034 334.321 335.311 341.684C314.404 352.136 286.616 358.224 255.999 358.224C225.382 358.224 197.594 352.136 176.689 341.684C161.964 334.321 150.049 324.364 144.289 312.284Z" class="selected" fill="#b8e986" fill-opacity="1"></path><path d="M400.129 332.436L414.296 356.973L494 386.863L494 367.637L400.13 332.437Z" class="" fill="#48baff" fill-opacity="1"></path><path d="M111.869 332.438L18 367.637L18 386.862L97.703 356.974L111.869 332.436Z" class="" fill="#48baff" fill-opacity="1"></path><path d="M80.224 387.246L18 426.136L18 447.363L61.05 420.457L80.225 387.247Z" class="" fill="#48baff" fill-opacity="1"></path><path d="M431.774 387.246L450.948 420.456L494 447.364L494 426.138L431.775 387.248Z" class="" fill="#48baff" fill-opacity="1"></path><path d="M80.954 429.206L18 484.29L18 494L34.238 494L108.288 429.205L80.956 429.205Z" class="" fill="#48baff" fill-opacity="1"></path><path d="M123.112 429.206L67.573 494L91.283 494L146.82 429.205L123.113 429.205Z" class="" fill="#48baff" fill-opacity="1"></path><path d="M164.944 429.206L127.92 494L148.652 494L185.678 429.205L164.945 429.205Z" class="" fill="#48baff" fill-opacity="1"></path><path d="M207.696 429.206C199.031 458.166 192.036 481.091 188.086 494L206.906 494C211.584 478.686 218.339 456.463 226.479 429.205L207.696 429.205Z" class="" fill="#48baff" fill-opacity="1"></path><path d="M246.999 429.206L246.999 494L264.999 494L264.999 429.205L246.999 429.205Z" class="" fill="#48baff" fill-opacity="1"></path><path d="M286.983 429.206L305.496 494L324.219 494L305.704 429.205L286.984 429.205Z" class="" fill="#48baff" fill-opacity="1"></path><path d="M326.321 429.206L363.348 494L384.08 494L347.055 429.205L326.322 429.205Z" class="" fill="#48baff" fill-opacity="1"></path><path d="M365.177 429.206L420.718 494L444.426 494L388.886 429.205L365.18 429.205Z" class="" fill="#48baff" fill-opacity="1"></path><path d="M403.71 429.206L477.763 494L494 494L494 484.29L431.045 429.205L403.71 429.205Z" class="" fill="#48baff" fill-opacity="1"></path></g></g></svg>