<svg style="height: 512px; width: 512px;" xmlns="http://www.w3.org/2000/svg" viewBox="0 0 512 512"><rect fill="#000" fill-opacity="1" height="512" width="512" rx="32" ry="32"></rect><g class="" style="" transform="translate(0,0)"><g><path d="M255.9 20.45C201.8 20.45 157.9 113.9 157.9 167.3C157.9 198.3 172.8 225.9 195.8 243.6C201.7 236.7 208 230.7 214.8 225.9C228.5 218 242.6 212 255.9 211.8C270.3 211.8 284.3 216.8 297.1 225.9C303.8 230.7 310.2 236.7 316.1 243.6C339.1 225.9 353.9 198.3 353.9 167.3C353.9 113.9 310 20.45 255.9 20.45Z" class="" fill="#4a4a4a" fill-opacity="1"></path><path d="M492.8 34.72L419.3 208.1L329.2 262C332.4 267.2 335.2 272.6 337.8 278.2L433.9 220.8L492.8 81.77L492.8 34.72Z" class="" fill="#4a4a4a" fill-opacity="1"></path><path d="M19.08 34.72L19.08 81.77L78.01 220.8L174.1 278C176.7 272.4 179.6 267 182.7 261.8L92.57 208.1Z" class="" fill="#4a4a4a" fill-opacity="1"></path><path d="M255.9 227.8C245.2 227.8 234.6 231.4 224.1 238.9C213.3 247.8 204.2 257.9 198 267.5C183.1 291 174 321.9 174 349C174 375.6 182.4 396.2 198 410C212 422.4 231.8 429.3 255.9 429.3C280 429.3 299.8 422.4 313.9 410C329.4 396.2 337.9 375.6 337.9 349C337.9 321.9 328.8 291 313.8 267.5C306 255.2 297.2 245.6 287.8 238.9C277.3 232.7 266.3 228 255.9 227.8Z" class="" fill="#4a4a4a" fill-opacity="1"></path><path d="M19.08 238.5L19.08 261.9L83.5 313.1L160.1 323.7C161.1 317.7 162.4 311.7 164 305.7L91 295.6L19.08 238.5Z" class="" fill="#4a4a4a" fill-opacity="1"></path><path d="M492.8 238.5L420.9 295.6L347.8 305.8C349.5 311.7 350.8 317.7 351.8 323.8L428.4 313.1L492.8 261.9L492.8 238.5Z" class="" fill="#4a4a4a" fill-opacity="1"></path><path d="M353.7 355.1C353.4 361.5 352.7 367.6 351.5 373.4L420.5 388.5L492.8 446.6L492.8 423.1L428.7 371.5C403.7 366 378.7 360.6 353.7 355.1Z" class="" fill="#4a4a4a" fill-opacity="1"></path><path d="M158.1 355.2L83.18 371.5L19.07 423.1L19.07 446.6L91.31 388.5L160.4 373.5C159.3 367.1 158.4 360.7 158.1 355.2Z" class="" fill="#4a4a4a" fill-opacity="1"></path><path d="M202.5 361.8C208.1 361.8 212.6 366.3 212.6 371.9C212.6 377.4 208.1 381.9 202.5 381.9C196.9 381.9 192.4 377.4 192.4 371.9C192.4 366.3 196.9 361.8 202.5 361.8Z" class="selected" fill="#000000" fill-opacity="1"></path><path d="M309.6 361.8C315.2 361.8 319.7 366.3 319.7 371.9C319.7 377.4 315.2 381.9 309.6 381.9C304 381.9 299.5 377.4 299.5 371.9C299.5 366.3 304 361.8 309.6 361.8Z" class="" fill="#000000" fill-opacity="1"></path><path d="M234.8 373.1C244.1 373.1 251.7 380.7 251.7 389.9C251.7 399.2 244.1 406.8 234.8 406.8C225.4 406.8 217.9 399.2 217.9 389.9C217.9 380.7 225.4 373.1 234.8 373.1Z" class="" fill="#000000" fill-opacity="1"></path><path d="M277.3 373.1C286.7 373.1 294.2 380.7 294.2 389.9C294.2 399.2 286.7 406.8 277.3 406.8C268 406.8 260.4 399.2 260.4 389.9C260.4 380.7 268 373.1 277.3 373.1Z" class="" fill="#000000" fill-opacity="1"></path><path d="M341.7 400.4C338.7 405.8 335.1 410.9 331 415.5L382.1 442.6L409.6 493.6L430.5 493.6L395.6 429C377.6 419.5 359.7 409.9 341.7 400.4Z" class="" fill="#4a4a4a" fill-opacity="1"></path><path d="M170.2 400.5L116.2 429L81.38 493.7L102.2 493.7L129.7 442.6L180.9 415.6C176.8 410.6 172.9 405.3 170.2 400.5Z" class="" fill="#4a4a4a" fill-opacity="1"></path><path d="M200.4 425.8C196 425.9 190.9 428.1 185.5 433.5C181.7 441.3 179.6 450 179.6 459.2C179.6 475.7 186.4 490.6 197.4 501.7L197.4 497.7C197.4 476.9 205.1 458.4 217 446.9C217 436.1 210.3 425.7 200.5 425.8Z" class="" fill="#ffffff" fill-opacity="1"></path><path d="M311.5 425.8C301.7 425.7 294.9 436.1 294.9 446.9C306.8 458.4 314.5 476.9 314.5 497.7L314.5 501.7C325.5 490.6 332.3 475.7 332.3 459.2C332.3 450 330.2 441.3 326.4 433.5C321 428.1 315.9 425.9 311.5 425.8Z" class="" fill="#ffffff" fill-opacity="1"></path><path d="M241.2 439.9C239.6 440 237.8 440.8 235.9 442.7C234.5 445.5 233.8 448.6 233.8 451.9C233.8 457.8 236.2 463.2 240.2 467.2C240.1 466.7 240.1 466.2 240.1 465.7C240.1 458.3 242.9 451.6 247.2 447.5C246.3 443.6 244.5 440 241.2 439.9Z" class="" fill="#ffffff" fill-opacity="1"></path><path d="M270.9 439.9C267.3 439.9 264.9 443.6 264.9 447.5C269.2 451.6 272 458.3 272 465.7C272 466.2 272 466.7 271.9 467.2C275.9 463.2 278.3 457.8 278.3 451.9C278.3 448.6 277.6 445.5 276.2 442.7C274.6 441.4 272.7 440 270.9 439.9Z" class="" fill="#ffffff" fill-opacity="1"></path></g></g></svg>