<svg style="height: 512px; width: 512px;" xmlns="http://www.w3.org/2000/svg" viewBox="0 0 512 512"><rect fill="#000" fill-opacity="1" height="512" width="512" rx="32" ry="32"></rect><g class="" style="" transform="translate(0,-65)"><g><path d="M66.793 194.227L66.793 232.404L162.027 232.404L162.027 284.614L193.449 284.614C191.847 336.614 182.469 371.938 170.122 393.824C163.175 406.137 155.564 414.214 147.702 419.139C126.482 407.299 108.632 380.257 108.632 348.132L89.942 348.132C89.942 401.392 128.934 445.77 172.507 444.216C194.293 443.439 215.945 430.008 231.179 403.006C245.767 377.15 255.339 338.886 256.929 284.614L280.269 284.614L280.269 194.226L66.793 194.226Z" class="" fill="#fff" fill-opacity="1"></path><path d="M413.903 198.145L413.903 216.105L298.958 216.105L298.958 261.307L413.9 261.307L413.9 279.264L432.59 279.264L432.59 261.307L456.12 261.307L456.12 279.264L474.807 279.264L474.807 261.307L494.233 261.307L494.233 216.104L474.81 216.104L474.81 198.144L456.12 198.144L456.12 216.104L432.592 216.104L432.592 198.144L413.902 198.144Z" class="" fill="#4a90e2" fill-opacity="1"></path><path d="M18.683 251.095L18.683 334.969L143.34 334.969L143.34 251.093L18.682 251.093Z" class="" fill="#fff" fill-opacity="1"></path><path d="M212.15 284.615L238.23 284.615C236.628 336.615 227.25 371.938 214.902 393.825C201.962 416.761 186.722 425.008 171.84 425.539C167.755 425.684 163.602 425.139 159.475 424.013C168.263 421.498 176.935 415.733 185.059 405.319C185.509 404.559 185.959 403.789 186.399 403.007C200.989 377.15 210.559 338.887 212.149 284.614Z" class="selected" fill="#000000" fill-opacity="1"></path><path d="M45.164 348.133C45.164 401.393 84.154 445.771 127.727 444.217C130.704 444.111 133.68 443.759 136.637 443.177C113.477 438.894 92.852 422.065 80.33 398.729C70.427 385.234 63.854 367.619 63.854 348.132L45.164 348.132Z" class="" fill="#fff" fill-opacity="1"></path></g></g><g class="" style="" transform="translate(256,256)"><g><circle cx="128" cy="128" r="128" fill="#000" fill-opacity="1"></circle><circle stroke="#f8e71c" stroke-opacity="1" fill="#000" fill-opacity="1" stroke-width="18" cx="128" cy="128" r="101"></circle><path fill="#f8e71c" fill-opacity="1" d="M101.265 58.881h53.377l-28.835 51.29 53.1 5.232-78.643 81.716 24.95-62.497-48.121-5.661z"></path></g></g></svg>