<svg style="height: 512px; width: 512px;" xmlns="http://www.w3.org/2000/svg" viewBox="0 0 512 512"><rect fill="#000" fill-opacity="1" height="512" width="512" rx="32" ry="32"></rect><g class="" style="" transform="translate(0,0)"><g><path d="M323.8 149.6L334.2 163.4L491.8 43.8L481.4 30Z" class="" fill="#ffffff" fill-opacity="1"></path><path d="M228.7 221.8L254 255.1L185.3 319.8L163.8 309.7L173.1 264Z" class="" fill="#4a90e2" fill-opacity="1"></path><path d="M18.3 424.2L117.4 328.9C117.4 328.9 139.1 339.4 144.9 337.6C145.4 337.4 145.9 337.2 146.3 336.8C148.9 334.8 152.3 329.9 155.4 324.8L156.5 325.3L175.5 334.1L74.3 482C67.5 441.7 22.7 424.5 18.3 424.2Z" class="" fill="#4a90e2" fill-opacity="1"></path><path d="M242.4 211.4L310.1 160.1L327.2 182.7C331.9 189 331.1 198.2 324.8 202.9L268.4 245.7L267.7 244.7Z" class="" fill="#4a90e2" fill-opacity="1"></path><path d="M177.6 393.7C185.5 398.5 195.9 396 200.7 388L214.7 364.9C218.1 359.2 217.9 352.1 214.1 346.6C215.4 345.9 216.6 345.1 217.7 344.3C223.1 340.3 226.7 334.4 227.8 327.9C228.9 321.1 227.3 314.1 223.4 307.6L217 313.7C219.1 317.6 220 322.1 219.3 326.6C218.3 333 213.6 338.1 206.6 340.8C198.9 337.7 190.1 340.6 185.9 347.7L171.9 370.8C167.1 378.6 169.6 388.9 177.6 393.7Z" class="selected" fill="#9b9b9b" fill-opacity="1"></path><path d="M179.3 375.1L193.4 351.9C195.8 348 200.8 346.8 204.7 349.1L205.8 349.9C208.9 352.5 209.6 357 207.5 360.4L193.4 383.6C191 387.5 186 388.8 182.1 386.4C178.2 384.1 176.9 379 179.3 375.1Z" class="" fill="#000000" fill-opacity="1"></path><path d="M346.9 186.1C346.4 183.1 345.4 180.2 344.1 177.4L488.5 67.9L493.7 74.8Z" class="" fill="#ffffff" fill-opacity="1"></path><path d="M154.2 270.6L151 286.2C143.3 282.9 140.8 274.1 132.9 277C135.3 268.4 149.3 271.7 154.2 270.6Z" class="" fill="#9b9b9b" fill-opacity="1"></path></g></g><g class="" style="" transform="translate(256,256)"><g><circle cx="128" cy="128" r="128" fill="#000" fill-opacity="1"></circle><circle stroke="#f5a623" stroke-opacity="1" fill="#000" fill-opacity="1" stroke-width="18" cx="128" cy="128" r="101"></circle><path fill="#f5a623" fill-opacity="1" d="M99.016 83.18c0 27.973 28.984 32.635 28.984 55.946 0 9.325-9.661 23.312-24.153 23.312-14.492 0-24.153-13.987-14.492-37.298-14.491 9.324-19.322 18.649-19.322 27.973 0 23.312 24.153 46.623 57.967 46.623 33.813 0 57.966-13.987 57.966-41.96.216-41.378-49.4-55.2-62.797-74.597-9.66-13.987-4.83-23.311 4.83-32.636-19.321 4.663-28.983 17.717-28.983 32.636z"></path></g></g></svg>