<svg style="height: 512px; width: 512px;" xmlns="http://www.w3.org/2000/svg" viewBox="0 0 512 512"><rect fill="#000" fill-opacity="1" height="512" width="512" rx="32" ry="32"></rect><g class="" style="" transform="translate(-25,-25)"><path d="M208.563 24.813c-30.575 0-55.344 24.77-55.344 55.343 0 6.072 1.006 11.908 2.81 17.375l-39.28 45.626h51.063v-25.562c10.114 11.014 24.617 17.937 40.75 17.937V88.28h58.593V69.595h-58.594v-44.78zM47.03 161.843v79.563l28.032 16.375c1.528-36.73 31.968-66.217 69.063-66.217 38.065 0 69.125 31.06 69.125 69.125 0 24.73-13.126 46.498-32.75 58.718l26.813 15.656h52.843V161.845H47.03zm330.064 44.813v83.438h62.937v-83.438h-62.936zm-232.97 3.594c-27.964 0-50.436 22.472-50.436 50.438 0 11.272 3.652 21.655 9.843 30.03l-22.593 26.47c5.946 2.36 11.307 5.876 15.844 10.25l20.5-24.032c7.77 4.875 16.95 7.72 26.845 7.72 27.965 0 50.438-22.473 50.438-50.438 0-27.966-22.473-50.438-50.438-50.438zm134.72 12.094v52.062h79.562v-52.062h-79.562zm179.875 0v52.062h25.967v-52.062H458.72zM144.593 228c17.964 0 32.72 14.786 32.72 32.75s-14.755 32.72-32.72 32.72c-17.965 0-32.75-14.756-32.75-32.72S126.63 228 144.594 228zm0 18.688c-7.865 0-14.063 6.197-14.063 14.062 0 7.865 6.2 14.03 14.064 14.03s14.03-6.165 14.03-14.03c0-7.865-6.166-14.063-14.03-14.063zm-81.47 85.78c-16.628 0-29.905 13.278-29.905 29.907 0 16.63 13.276 29.906 29.905 29.906 16.63 0 29.906-13.276 29.906-29.905 0-16.63-13.276-29.906-29.905-29.906zm30.595 67.594c-5.02 4.087-10.88 7.2-17.25 9.032l34.843 36.375c-7.837 8.395-13.984 18.42-17.876 29.5H54.5v18.686h34.688c-.002.01 0 .02 0 .03l19.718.002c4.553-31.235 31.577-55.375 64.03-55.375 32.456 0 59.453 24.14 64 55.375h19.75c0-.01.003-.02.002-.032h35.125V474.97h-39.375c-11.52-32.797-42.69-56.22-79.5-56.22-17.618 0-33.94 5.345-47.438 14.53l-31.78-33.217zM172.937 457c-22.322 0-40.812 15.68-45.094 36.688H218C213.718 472.68 195.26 457 172.937 457z" fill="#c9c9c9" fill-opacity="1" transform="translate(25.6, 25.6) scale(0.9, 0.9) rotate(0, 256, 256) skewX(0) skewY(0)"></path></g><g class="" style="" transform="translate(256,256)"><g><circle cx="128" cy="128" r="128" fill="#000" fill-opacity="1"></circle><circle stroke="#50e3c2" stroke-opacity="1" fill="#000" fill-opacity="1" stroke-width="18" cx="128" cy="128" r="101"></circle><path fill="#50e3c2" fill-opacity="1" d="M128.133 49.472L98.398 66.735l16.032 27.789a35.849 35.849 0 0 0-8.432 4.889L89.967 71.64 60.282 88.87v33.958h32.211a36.405 36.405 0 0 0-.348 4.956c0 1.69.123 3.356.349 4.99H60.281v34.357l29.651 17.212 16.132-27.938a35.877 35.877 0 0 0 8.397 4.938L98.363 189.25l29.768 17.28 29.752-17.23-16.148-27.955a35.929 35.929 0 0 0 8.397-4.956l16.185 28.038 29.402-17.029v-34.624h-32.031c.226-1.634.35-3.298.35-4.99 0-1.679-.127-3.336-.35-4.955h32.03V88.587l-29.436-17.03L150.2 99.43a35.908 35.908 0 0 0-8.43-4.905l16.08-27.855-29.716-17.197zm-.05 52.136c14.485 0 26.193 11.689 26.193 26.176 0 14.488-11.705 26.176-26.193 26.176-14.488 0-26.176-11.69-26.176-26.176 0-14.486 11.69-26.176 26.176-26.176z"></path></g></g></svg>