<svg style="height: 512px; width: 512px;" xmlns="http://www.w3.org/2000/svg" viewBox="0 0 512 512"><rect fill="#000" fill-opacity="1" height="512" width="512" rx="32" ry="32"></rect><g class="" style="" transform="translate(-25,-25)"><g transform="translate(25.6, 25.6) scale(0.9, 0.9) rotate(0, 256, 256) skewX(0) skewY(0)"><path d="M201.7 103C201.8 99.87 201.7 96.77 201.5 93.77L255.8 159.7C259.9 165 262.4 170.4 263.6 176.5C264.9 183.7 264.1 191.2 261.3 198C259.4 202.6 256.5 206.8 253 210.4C241.3 219.6 232.3 223 219 220.7L135.4 203.6L135.9 203.3C148.5 197.5 159.8 189.5 169.4 179.5C179.1 169.4 187 157.7 192.5 144.8C198.2 131.6 201.4 117.4 201.7 103Z" class="" fill="#f8e71c" fill-opacity="1"></path><path d="M254 128.3L270.1 147.9C276.1 155.2 280.1 163.8 281.8 173.1C286.5 199.3 272.5 225.3 247.9 235.7C242.5 237.9 236.9 239.3 231.1 239.8C225.7 240.2 220.4 240.1 215.2 238.9L159.5 227.4L158.2 250.8L286.3 250.4L287.6 125.8Z" class="" fill="#fff" fill-opacity="1"></path><path d="M332.6 175.5C327.7 175.8 322.9 180.7 320.7 184.2C318.5 188.4 317.9 193.6 320.9 197.4C324.1 200.8 328.7 201 332.7 198.8C335.8 197.1 338 194.4 339.5 191.6C342.9 184.4 340 175.2 332.6 175.5Z" class="" fill="#fff" fill-opacity="1"></path><path d="M344.2 216.9C343.6 216.5 343 216.2 342.4 216C336.2 213.9 329.5 219.5 327.2 224.1C325.4 228.4 325.3 233.6 328.6 237C329.4 237.8 330.3 238.4 331.3 238.9C335.9 241.1 341.5 238.6 344.5 235.3C346.5 232.6 348 229.3 348.2 226.4C348.4 222.7 346.5 218.7 344.2 216.9Z" class="" fill="#fff" fill-opacity="1"></path><path d="M364.3 214.9C369.6 211.2 370.7 202.7 367.9 198.6C363.4 194.9 357.9 191.5 353.7 188.5L353.7 188.6C352.6 194.5 350.1 199.8 346.4 203.9C352.9 206.9 358.9 211.4 364.3 214.9Z" class="" fill="#fff" fill-opacity="1"></path><path d="M345.3 251.6C340.5 252 336.3 256.3 334.6 260C333 264.4 333.7 269.5 337.2 272.7C342.1 277 349.2 275.6 353.2 270.9C354.2 269.7 355 268.4 355.5 266.9C357.7 259.7 354.1 251 345.3 251.6Z" class="" fill="#fff" fill-opacity="1"></path><path d="M376 252.8C376.2 252.5 376.5 252.3 376.7 252C379.7 248.4 380 243.8 378.2 239.8C377.4 238.4 376.3 237.4 375.1 236.5C370.3 233.6 365.6 230.7 361 227.8C360.4 232.8 358.9 237.3 356.2 241.1C362.8 245.1 370.2 249.5 376 252.8Z" class="" fill="#fff" fill-opacity="1"></path><path d="M325.5 250.3C323.3 249.2 321.2 247.7 319.5 245.9C317.2 243.5 315.5 240.7 314.4 237.6C313.3 234.5 312.9 231.2 313.2 227.9C313.5 224.7 314.3 221.7 315.6 218.8C316.7 216.4 318.2 214.1 320 212.1L317.2 210.6C314.9 209.4 312.9 207.7 311.2 205.7C309.1 203.1 307.6 200.1 306.8 196.8C306.1 193.6 306 190.3 306.6 187.1C307.1 184 308.1 181.1 309.6 178.3C311 175.7 312.7 173.3 314.8 171.2C316.9 169.1 319.3 167.3 321.9 165.9C324.7 164.4 327.7 163.4 330.9 163L331.5 163C322.3 149.1 315.2 138.2 306.2 124.4L304.8 250.4C311 250.8 316.5 253.8 322.5 256.2C323.3 254.1 324.4 251.9 325.5 250.3Z" class="" fill="#fff" fill-opacity="1"></path><path d="M356.7 288.8C350.7 286.9 343.9 291.9 342.3 296.7C341.3 299.7 341.6 303 342.9 305.7C345.8 313 356.9 313.9 361.9 307.4C362.8 306.2 363.8 304.9 364 303.4C365 296.5 363 291.1 356.7 288.8Z" class="" fill="#fff" fill-opacity="1"></path><path d="M384.8 289.3C390.4 285.8 389.9 277.3 386.2 273.5C385.6 273 385 272.5 384.3 272.1L369 263.4C368.8 268.7 367.1 273.8 363.9 278C371.2 281.8 378.6 286 384.8 289.3Z" class="" fill="#fff" fill-opacity="1"></path><path d="M375.3 324.3C372.3 322.1 368.6 320.4 365.4 320.5C362.4 320.9 359.7 322.4 357.8 324.8C355.9 327.2 355 330.3 355.4 333.3C355.8 335.6 356.5 337.1 357.8 338.9C362.5 344.7 371.4 345.4 376.1 339.2C379.6 334.5 378.7 328.5 375.3 324.3Z" class="" fill="#fff" fill-opacity="1"></path><path d="M394 325.9L394.2 325.7C396.4 324.5 398.1 322.4 398.7 319.9C400 315 397.5 310.8 393.5 308.3C388 305.4 382.6 302.6 377.2 299.7C377.2 305.2 375.4 310.5 372.1 314.9C380.1 318.4 386.6 322 394 325.9Z" class="" fill="#fff" fill-opacity="1"></path><path d="M383.7 354.5C380.7 353.7 377.4 353.9 374.8 355.5C372.3 356.9 370.4 359.4 369.7 362.2C369.3 366.2 369.9 369.7 372.2 372.4C377.3 379.8 390.2 378.3 392.3 368.7C393.7 362.9 389.8 355.9 383.7 354.5Z" class="" fill="#fff" fill-opacity="1"></path><path d="M412.7 354.4C413.2 353.5 413.6 352.6 413.8 351.6C414.6 346.8 412.4 342.2 408.1 340.1L391.1 331.5C391.3 335.4 390.5 339.2 388.8 342.7C396.9 346.2 405.8 351 412.7 354.4Z" class="" fill="#fff" fill-opacity="1"></path><path d="M402.2 387.5C399 394.7 399 394.7 402.2 387.5C398.6 386.1 393.9 386.6 391.1 388.2C385.7 391.8 385.1 400.5 389.5 405.1C394.4 411 407.9 410.3 409.6 400.6C410.5 395.3 407.4 389.7 402.2 387.5Z" class="" fill="#fff" fill-opacity="1"></path><path d="M428.8 385.1L428.8 384.9C429.4 381.7 428.4 379 426.7 376.5C425.6 375.2 424.2 374.3 422.8 373.5C417 370.6 411.2 367.8 405.4 365C405.6 368.3 405.1 371.5 403.9 374.6C411.9 377.4 420.5 381.5 428.8 385.1Z" class="" fill="#fff" fill-opacity="1"></path><path d="M423.4 418.9C419.3 416.9 413.7 417.9 410.7 420.2C409 421.6 407.8 423.6 407.3 425.8C406.7 429.6 407.8 433.1 410.1 436C411.6 437.7 413.5 439 415.6 439.7C418.9 440.9 422.5 440.5 425.4 438.9C427.9 437.4 429.7 435 430.3 432.1C431.4 426.6 427.6 421.3 423.4 418.9Z" class="" fill="#fff" fill-opacity="1"></path><path d="M446.8 416C446.9 415.7 446.9 415.4 447 415.1C447.6 409.9 444.6 406.2 440.4 403.9L422.3 396.2C422.7 399.2 422.4 402.2 421.6 405.1C430.7 408.3 439.5 412.4 446.8 416Z" class="" fill="#fff" fill-opacity="1"></path><path d="M455.2 478.2C461.3 480.6 467.3 483 473.4 485.4C479.4 486.7 485 484.8 486.4 479.2C486.7 473.9 484.5 470 480.6 467.7C474.8 464.9 469 462.1 463.1 459.2C463.5 466.3 459.8 474.2 455.2 478.2Z" class="" fill="#fff" fill-opacity="1"></path><path d="M449.3 455.4C445.4 449.1 438.5 446.4 432.2 449.8C429.7 451.2 427.9 453.7 427.3 456.5C426.3 461.2 428.4 465.8 432.1 468.6C436 471.4 440.9 472 445.2 469.6C450.5 466.3 451.4 460.5 449.3 455.4Z" class="" fill="#fff" fill-opacity="1"></path><path d="M467.2 447C467.5 442.5 464.4 438.9 460.9 436.9L443.2 428.4C443.3 431.1 443.1 433.7 442.5 436C451.3 439.7 459 443 467.2 447Z" class="" fill="#fff" fill-opacity="1"></path><path d="M284.7 291.2C280 291.3 267.3 294.9 266.5 300.7L348.6 465.8C354.7 462.8 361.8 459.6 366.9 456.3C350.2 423 301.4 324.5 284.7 291.2Z" class="" fill="#fff" fill-opacity="1"></path><path d="M223.7 290.5L126.1 453.6C131.8 457 138.8 460.9 144.1 463.9C163.6 430.8 222 333.7 241.6 300.7C240.7 297.2 229.3 288.1 223.7 290.5Z" class="" fill="#fff" fill-opacity="1"></path><path d="M252.2 319.1L274.9 397.4C280.6 396 286.4 394.1 291.5 392.7L253.7 316.6Z" class="" fill="#fff" fill-opacity="1"></path><path d="M222.9 271.7C225.9 271.4 229.3 271.9 231.8 272.7C238.9 275 245.7 278.5 251.2 283.2C252 283.9 252.8 284.6 253.6 285.4L254.7 285.4C262 279.5 273.6 273.4 281.5 272.5C287.2 272.3 293.3 274.3 296.9 277.4C299.6 279.5 300.9 282.5 302.5 285.6C317.2 285.6 331.9 285.8 346.6 285.9C332.6 280.2 318.6 274.5 304.5 268.9C255.3 268.9 206.2 269.1 157 269.3L205.4 278.4L208.9 279C212.3 274.7 217.4 272 222.9 271.7Z" class="" fill="#fff" fill-opacity="1"></path><path d="M89.96 56.17C87.87 54.97 85.46 54.45 83.06 54.67C82.14 54.77 81.24 54.97 80.36 55.27C76.874 56.38 73.942 58.775 72.16 61.97C70.28 65.17 69.71 68.96 70.56 72.57C72.05 79.45 79.19 83.5 85.86 81.27C93.1 78.89 97.34 71.4 95.66 63.97C94.94 60.69 92.87 57.86 89.96 56.17Z" class="" fill="#fff" fill-opacity="1"></path><path d="M183.2 102.5C182.9 114.5 180.3 126.4 175.5 137.4C170.8 148.2 164.2 158.1 156 166.6C148.068 174.923 138.636 181.674 128.2 186.5C119.9 190.3 110.9 192.7 101.8 193.5C99.85 193.7 97.86 193.8 95.86 193.8C85.35 193.896 74.956 191.605 65.46 187.1C56.6 182.895 48.78 176.782 42.56 169.2C36.36 161.6 31.73 152.9 28.96 143.5C26 133.417 24.949 122.869 25.86 112.4C26.73 101.6 29.44 91.12 33.86 81.27C38.167 71.71 43.974 62.899 51.06 55.17C58.048 47.531 66.261 41.11 75.36 36.17C84.512 31.152 94.538 27.928 104.9 26.67L107.1 26.47C116.5 25.63 126 26.68 135 29.57C144.4 32.6 152.9 37.65 160.1 44.37C167.6 51.37 173.4 59.89 177.3 69.37C181.5 79.89 183.6 91.18 183.2 102.5Z" class="selected" fill="#9b9b9b" fill-opacity="1"></path><path d="M111 56.07L101.2 47.37C100.8 47.04 100.6 46.81 100.2 46.47C93.54 40.97 84.49 39.27 76.26 41.97C69.388 44.112 63.593 48.798 60.06 55.07C56.447 61.331 55.373 68.74 57.06 75.77C58.998 84.194 65.051 91.075 73.16 94.07L87.36 99.57C87.59 99.68 87.82 99.78 88.06 99.87C91.18 100.9 94.48 101.3 97.76 101C106 100.2 113.3 95.42 117.3 88.17C123.6 77.17 120.8 63.17 111 56.07Z" class="" fill="#4a4a4a" fill-opacity="1"></path></g></g><g class="" style="" transform="translate(256,256)"><g><circle cx="128" cy="128" r="128" fill="#000" fill-opacity="1"></circle><circle stroke="#f5a623" stroke-opacity="1" fill="#000" fill-opacity="1" stroke-width="18" cx="128" cy="128" r="101"></circle><path fill="#f5a623" fill-opacity="1" d="M99.016 83.18c0 27.973 28.984 32.635 28.984 55.946 0 9.325-9.661 23.312-24.153 23.312-14.492 0-24.153-13.987-14.492-37.298-14.491 9.324-19.322 18.649-19.322 27.973 0 23.312 24.153 46.623 57.967 46.623 33.813 0 57.966-13.987 57.966-41.96.216-41.378-49.4-55.2-62.797-74.597-9.66-13.987-4.83-23.311 4.83-32.636-19.321 4.663-28.983 17.717-28.983 32.636z"></path></g></g></svg>