<svg style="height: 512px; width: 512px;" xmlns="http://www.w3.org/2000/svg" viewBox="0 0 512 512"><rect fill="#000" fill-opacity="1" height="512" width="512" rx="32" ry="32"></rect><g class="" style="" transform="translate(0,0)"><g><path d="M472.133 19.812L162.52 197.03L184.516 231.163L483.97 38.183L472.133 19.813Z" class="" fill="#c9c9c9" fill-opacity="1"></path><path d="M400.236 113.56L282.609 189.36L298.959 199.77C344.939 166.89 381.569 137.926 399.442 117.226L400.235 113.56Z" class="" fill="#d0021b" fill-opacity="1"></path><path d="M265.953 200.095L165.828 264.618L186.308 276.748C220.331 254.183 253.298 231.943 283.096 211.008L265.953 200.095Z" class="selected" fill="#d0021b" fill-opacity="1"></path><path d="M147.127 206.372L140.9 210.384C134.306 230.364 139.5 246.694 148.71 254.236L169.387 240.913L147.127 206.373Z" class="" fill="#c9c9c9" fill-opacity="1"></path><path d="M123.417 248.417C117.905 253.949 110.489 261.615 101.129 272.057C83.904 291.269 64.776 315.602 57.659 332.462C39.116 376.39 42.319 430.452 39.659 480.198C42.069 487.278 45.067 490.118 47.856 491.335C50.816 492.627 54.752 492.529 59.596 490.511C68.989 486.601 79.292 474.916 81.858 465.229C81.684 462.997 80.938 453.112 80.621 439.586C80.265 424.446 80.375 406.584 83.251 393.289C88.401 369.469 96.646 344.099 113.519 324.239C123.712 312.246 140.651 301.759 155.439 293.391C160.119 290.741 164.104 288.667 167.854 286.741C147.974 274.451 131.198 269.041 123.417 248.418Z" class="" fill="#c9c9c9" fill-opacity="1"></path><path d="M65.667 286.21L28.029 295.85L43.6 320.01C49.032 308.996 56.93 297.423 65.664 286.21Z" class="" fill="#c9c9c9" fill-opacity="1"></path><path d="M191.527 295.03L190.373 295.562C190.373 295.562 183.608 298.678 174.277 303.605C174.027 314.595 168.687 323.341 161.66 329.105C156.168 333.61 149.64 335.948 143.857 335.8C139.502 335.688 135.511 334.433 131.844 331.25C130.044 332.87 128.484 334.43 127.238 335.894C124.794 338.77 122.548 341.854 120.468 345.091C127.248 350.686 135.378 353.591 143.396 353.795C154.159 354.071 164.609 349.968 173.076 343.022C185.83 332.56 194.049 314.852 191.526 295.032Z" class="" fill="#c9c9c9" fill-opacity="1"></path></g></g></svg>