<svg style="height: 512px; width: 512px;" xmlns="http://www.w3.org/2000/svg" viewBox="0 0 512 512"><rect fill="#000" fill-opacity="1" height="512" width="512" rx="32" ry="32"></rect><g class="" style="" transform="translate(0,0)"><g><path d="M94 67.656L94 145.75L218.063 145.75L218.063 67.656L94 67.656Z" class="" fill="#f8e71c" fill-opacity="1"></path><path d="M19.844 117.156L19.844 193.031L117.624 291.063L262.064 291.063L262.062 117.157L236.75 117.157L236.75 164.438L75.312 164.438L75.312 117.155L19.844 117.155Z" class="" fill="#4a4a4a" fill-opacity="1"></path><path d="M280.75 136.03L280.75 225.437L379.75 225.437L333.125 272.187L280.75 272.187L280.75 290.875L340.875 290.875L343.625 288.125L402.25 229.345L404.97 226.625L404.97 225.437L405.312 225.437L405.312 136.03L280.75 136.03Z" class="" fill="#4a4a4a" fill-opacity="1"></path><path d="M424 154.407L424 206.157L492.53 206.157L492.53 154.407L424 154.407Z" class="selected" fill="#f8e71c" fill-opacity="1"></path><path d="M165.906 309.75C166.104 323.183 171.782 335.275 180.844 343.875L115.75 429.97C89.918 432.41 68.33 450.278 58.78 475.187L184.844 475.187C176.554 453.562 159.179 437.245 137.844 431.719L160.969 401.155L262.279 401.155L285.374 431.718C264.042 437.245 246.694 453.562 238.404 475.185L364.436 475.185C354.89 450.279 333.326 432.41 307.499 429.967L244.219 346.309C254.869 337.642 261.689 324.499 261.905 309.747L165.905 309.747Z" class="" fill="#4a4a4a" fill-opacity="1"></path><path d="M196.719 353.906C202.059 355.956 207.843 357.062 213.905 357.062C218.607 357.062 223.142 356.384 227.435 355.125L248.125 382.469L175.125 382.469L196.718 353.905Z" class="" fill="#4a4a4a" fill-opacity="1"></path></g></g><g class="" style="" transform="translate(256,256)"><g><circle cx="128" cy="128" r="128" fill="#000" fill-opacity="1"></circle><circle stroke="#50e3c2" stroke-opacity="1" fill="#000" fill-opacity="1" stroke-width="18" cx="128" cy="128" r="101"></circle><path fill="#50e3c2" fill-opacity="1" d="M128.133 49.472L98.398 66.735l16.032 27.789a35.849 35.849 0 0 0-8.432 4.889L89.967 71.64 60.282 88.87v33.958h32.211a36.405 36.405 0 0 0-.348 4.956c0 1.69.123 3.356.349 4.99H60.281v34.357l29.651 17.212 16.132-27.938a35.877 35.877 0 0 0 8.397 4.938L98.363 189.25l29.768 17.28 29.752-17.23-16.148-27.955a35.929 35.929 0 0 0 8.397-4.956l16.185 28.038 29.402-17.029v-34.624h-32.031c.226-1.634.35-3.298.35-4.99 0-1.679-.127-3.336-.35-4.955h32.03V88.587l-29.436-17.03L150.2 99.43a35.908 35.908 0 0 0-8.43-4.905l16.08-27.855-29.716-17.197zm-.05 52.136c14.485 0 26.193 11.689 26.193 26.176 0 14.488-11.705 26.176-26.193 26.176-14.488 0-26.176-11.69-26.176-26.176 0-14.486 11.69-26.176 26.176-26.176z"></path></g></g></svg>