<svg style="height: 512px; width: 512px;" xmlns="http://www.w3.org/2000/svg" viewBox="0 0 512 512"><rect fill="#000" fill-opacity="1" height="512" width="512" rx="32" ry="32"></rect><g class="" style="" transform="translate(0,0)"><g><path d="M254.25 17.72C242.407 17.72 230.558 22.254 221.47 31.344C204.772 48.041 203.433 74.036 217.406 92.25C225.806 74.708 240.806 64.374 256.686 64.25C271.296 64.136 285.256 72.77 294.031 87.97C304.791 70.137 302.461 46.772 287.031 31.344C277.943 22.254 266.094 17.719 254.251 17.719Z" class="" fill="#b57204" fill-opacity="1"></path><path d="M318.688 56.125C319.48 62.589 319.323 69.141 318.188 75.563C333.46 80.786 347.856 87.877 361.094 96.593L370.938 80.813C354.915 70.293 337.358 61.951 318.688 56.125Z" class="" fill="#b57204" fill-opacity="1"></path><path d="M189.594 57.655C172.102 63.59 155.639 71.782 140.564 81.875L150.374 97.655C162.806 89.291 176.277 82.338 190.564 77.062C189.278 70.672 188.954 64.126 189.594 57.656Z" class="" fill="#b57204" fill-opacity="1"></path><path d="M102.97 81.75C102.614 81.762 102.25 81.79 101.906 81.813C95.906 82.211 91.176 84.645 87.812 88.063C81.362 94.616 78.69 106.435 86.562 121.843L179.344 179.563L121.624 86.813C115.007 83.417 109.1 81.843 104.031 81.75C103.671 81.743 103.324 81.738 102.971 81.75Z" class="" fill="#b57204" fill-opacity="1"></path><path d="M406.78 81.75C401.71 81.845 395.82 83.435 389.188 86.844L331.438 179.594L424.25 121.844C432.123 106.434 429.452 94.616 423 88.064C419.635 84.644 414.906 82.211 408.906 81.814C408.216 81.767 407.506 81.736 406.781 81.75Z" class="" fill="#b57204" fill-opacity="1"></path><path d="M256.844 82.938C247.639 83.01 237.387 89.501 232.064 106L256.844 212.406L281.624 105.936C276.187 89.06 266.044 82.866 256.844 82.936Z" class="selected" fill="#c9c9c9" fill-opacity="1"></path><path d="M299.719 110.75L295.469 128.938C308.091 132.762 319.919 138.384 330.655 145.531L340.468 129.751C328.033 121.521 314.328 115.077 299.718 110.751Z" class="" fill="#b57204" fill-opacity="1"></path><path d="M209.936 111.75C195.974 116.235 182.891 122.695 170.999 130.78L180.843 146.594C192.15 138.834 204.729 132.784 218.187 128.781L215.28 116.188C213.444 114.814 211.652 113.348 209.937 111.751Z" class="" fill="#b57204" fill-opacity="1"></path><path d="M430.5 139.97L414.72 149.813C422.985 162.165 429.84 175.543 435.062 189.719C437.977 189.326 440.908 189.124 443.844 189.124C447.558 189.124 451.267 189.464 454.938 190.094C449.023 172.196 440.758 155.364 430.5 139.968Z" class="" fill="#b57204" fill-opacity="1"></path><path d="M81.906 140.97C72.092 155.883 64.146 172.135 58.376 189.375C60.336 189.199 62.313 189.125 64.281 189.125C68.789 189.125 73.295 189.608 77.721 190.531C82.846 176.429 89.583 163.101 97.721 150.781L81.907 140.971Z" class="" fill="#b57204" fill-opacity="1"></path><path d="M381.876 170.25L366.063 180.063C373.893 191.205 380.038 203.61 384.188 216.906L391.781 215.126C393.615 212.672 395.618 210.321 397.845 208.094C398.615 207.324 399.389 206.567 400.189 205.844C395.645 193.116 389.454 181.17 381.876 170.25Z" class="" fill="#b57204" fill-opacity="1"></path><path d="M130.531 171.22C122.539 182.928 116.134 195.805 111.626 209.53C113.306 211.318 114.842 213.202 116.282 215.125L128.502 217.969C132.537 204.652 138.597 192.223 146.315 181.029L130.533 171.219Z" class="" fill="#b57204" fill-opacity="1"></path><path d="M64.281 207.688C52.441 207.688 40.591 212.223 31.501 221.313C13.321 239.493 13.321 268.696 31.501 286.875C46.919 302.293 70.244 304.64 88.064 293.905C72.888 285.123 64.294 271.131 64.407 256.531C64.532 240.649 74.841 225.651 92.377 217.251C84.084 210.887 74.193 207.688 64.282 207.688Z" class="" fill="#b57204" fill-opacity="1"></path><path d="M443.845 207.688C433.935 207.688 424.019 210.886 415.72 217.25C433.26 225.65 443.594 240.648 443.72 256.53C443.833 271.13 435.215 285.123 420.03 293.906C437.858 304.64 461.207 302.293 476.625 286.876C494.805 268.696 494.805 239.492 476.625 221.313C467.535 212.223 455.685 207.688 443.845 207.688Z" class="" fill="#b57204" fill-opacity="1"></path><path d="M106.157 231.906C89.657 237.231 83.167 247.483 83.095 256.686C83.023 265.898 89.235 276.036 106.157 281.469L212.532 256.686L106.158 231.906Z" class="" fill="#c9c9c9" fill-opacity="1"></path><path d="M401.97 231.906L295.594 256.686L401.97 281.47C418.89 276.035 425.103 265.898 425.03 256.687C424.96 247.483 418.468 237.231 401.97 231.907Z" class="" fill="#c9c9c9" fill-opacity="1"></path><path d="M256.844 295.406L232.064 401.812C237.387 418.312 247.639 424.802 256.844 424.875C266.044 424.947 276.187 418.753 281.624 401.875L256.844 295.405Z" class="" fill="#c9c9c9" fill-opacity="1"></path><path d="M128.374 295.469L110.719 299.593C110.567 299.747 110.433 299.909 110.279 300.063C114.595 314.667 121.033 328.378 129.249 340.811L145.03 331C137.83 320.164 132.185 308.223 128.375 295.47Z" class="" fill="#b57204" fill-opacity="1"></path><path d="M384.344 296.561C380.424 309.291 374.682 321.214 367.374 331.999L383.156 341.812C391.013 330.122 397.284 317.29 401.686 303.624C400.372 302.504 399.086 301.334 397.844 300.094C397.674 299.924 397.51 299.764 397.344 299.594L384.344 296.561Z" class="" fill="#b57204" fill-opacity="1"></path><path d="M76.688 317.906C70.318 319.136 63.813 319.366 57.375 318.686C63.222 337.106 71.545 354.429 81.969 370.25L97.749 360.406C89.077 347.286 81.989 333.036 76.749 317.906C76.729 317.91 76.706 317.902 76.686 317.906Z" class="" fill="#b57204" fill-opacity="1"></path><path d="M455.906 317.969C449.36 319.189 442.664 319.379 436.062 318.593C430.715 333.851 423.498 348.211 414.656 361.405L430.436 371.249C441.309 354.951 449.928 337.049 455.906 317.969Z" class="" fill="#b57204" fill-opacity="1"></path><path d="M179.437 331.624L86.657 389.344C78.557 405.131 81.377 416.698 87.937 423.154C94.491 429.606 106.309 432.248 121.719 424.374L179.437 331.624Z" class="" fill="#b57204" fill-opacity="1"></path><path d="M331.407 331.624L389.094 424.344C404.522 432.24 416.347 429.612 422.906 423.154C429.466 416.698 432.256 405.131 424.156 389.344L331.406 331.624Z" class="" fill="#b57204" fill-opacity="1"></path><path d="M179.687 366.562L169.875 382.342C180.8 389.916 192.77 396.085 205.5 400.624C206.38 399.63 207.3 398.668 208.25 397.718C210.48 395.488 212.824 393.458 215.28 391.623L216.875 384.748C203.455 380.605 190.923 374.444 179.687 366.56Z" class="" fill="#b57204" fill-opacity="1"></path><path d="M331.812 367.655C321.15 374.913 309.362 380.647 296.782 384.593L299.75 397.249C299.908 397.404 300.062 397.561 300.22 397.719C301.557 399.056 302.803 400.451 304 401.874C317.46 397.456 330.1 391.214 341.625 383.436L331.812 367.656Z" class="" fill="#b57204" fill-opacity="1"></path><path d="M150.47 413.53L140.656 429.313C155.83 439.459 172.416 447.661 190.031 453.593C189.037 447.056 189.041 440.383 190.031 433.843C175.979 428.606 162.721 421.765 150.471 413.531Z" class="" fill="#b57204" fill-opacity="1"></path><path d="M361 414.595C347.922 423.195 333.72 430.243 318.656 435.439C319.488 442.001 319.346 448.667 318.186 455.189C337.013 449.369 354.701 440.961 370.844 430.376L361 414.595Z" class="" fill="#b57204" fill-opacity="1"></path><path d="M217.406 415.595C203.433 433.805 204.772 459.773 221.469 476.47C239.647 494.648 268.851 494.648 287.029 476.47C302.459 461.04 304.789 437.7 294.029 419.875C285.256 435.065 271.294 443.677 256.687 443.563C240.804 443.438 225.804 433.129 217.405 415.593Z" class="" fill="#b57204" fill-opacity="1"></path></g></g></svg>