<svg style="height: 512px; width: 512px;" xmlns="http://www.w3.org/2000/svg" viewBox="0 0 512 512"><rect fill="#000" fill-opacity="1" height="512" width="512" rx="32" ry="32"></rect><g class="" style="" transform="translate(0,0)"><g><path d="M142.813 19.97C142.861 76.33 114.748 121.323 78.625 156.78L118.095 161.344L133.031 163.064L124.845 175.719L91.282 227.562C122.05 231.33 145.678 226.202 179.532 212.592L192.158 207.53L192.378 221.125L193.096 266.031C213.16 252.916 229.381 235.828 243.376 215.907L248.316 208.845L255.752 213.22L310.346 245.25L320.502 214.875L324.44 203.031L334.69 210.157C365.15 231.312 400.714 241.287 436.908 244.282L384.971 186.722L370.563 170.752L392.095 171.127L423.532 171.69C405.762 153.795 388.062 132.136 373.972 108.72C357.085 80.66 345.267 49.964 346.002 19.97L142.812 19.97Z" class="" fill="#b57204" fill-opacity="1"></path><path d="M334.469 232.03L324.405 262.094L320.78 273.031L310.813 267.189L269.906 243.189C280.421 276.152 288.17 321.349 294.469 367.032C300.586 411.404 305.175 455.879 308.779 488.846C323.073 484.086 336.705 477.8 349.187 470.252C348.515 433.887 340.472 397.52 329.905 361.158C347.982 391.225 362.381 422.326 370.468 455.221C383.898 444.207 395.158 431.581 403.342 417.876C400.379 395.016 389.91 365.266 377.872 344.22C392.225 357.07 405.01 375.94 414.342 393.03C416.768 384.735 418.062 376.207 418.062 367.53C418.06 335.41 402.94 290.485 377.872 251.688C362.908 246.83 348.329 240.395 334.467 232.031Z" class="" fill="#4a4a4a" fill-opacity="1"></path><path d="M173.905 234.72C160.207 239.646 147.413 243.178 134.655 245.22C107.147 285.404 90.405 333.578 90.405 367.53C90.405 396.964 105.042 424.79 128.375 447.22C135.088 423.696 147.153 401.35 162.435 379.687C153.799 407.787 147.645 435.869 148.811 463.969C164.848 475.183 183.285 484.204 202.968 490.311C206.523 457.089 211.208 411.811 217.592 366.124C223.522 323.687 230.697 281.799 240.062 249.968C225.562 266.032 208.649 279.97 188.312 290.528L174.904 297.498L174.654 282.404L173.904 234.717Z" class="" fill="#4a4a4a" fill-opacity="1"></path><path d="M256.03 262.594C248.216 291.764 241.494 330.076 236.094 368.719C230.126 411.419 225.644 454.017 222.156 486.749C240.872 480.551 257.28 478.746 270.876 479.719C277.793 480.212 283.931 481.403 289.313 483.093C285.833 450.975 281.533 410.133 275.938 369.563C270.58 330.709 263.93 292.116 256.031 262.593Z" class="selected" fill="#4a4a4a" fill-opacity="1"></path></g></g></svg>