<svg style="height: 512px; width: 512px;" xmlns="http://www.w3.org/2000/svg" viewBox="0 0 512 512"><rect fill="#000" fill-opacity="1" height="512" width="512" rx="32" ry="32"></rect><g class="" style="" transform="translate(0,0)"><g transform="translate(512, 0) scale(-1, 1) rotate(0, 256, 256) skewX(0) skewY(0)"><path d="M19.5 18.625L19.5 56.405L83.813 120.719L117.25 87.279L48.594 18.624L19.5 18.624Z" class="" fill="#9b9b9b" fill-opacity="1"></path><path d="M75.03 18.625L130.47 74.063L143.688 60.813L101.5 18.624L75.03 18.624Z" class="" fill="#9b9b9b" fill-opacity="1"></path><path d="M176.438 54.5L52.876 178.063L89.53 214.72L213.126 91.124L176.437 54.5Z" class="" fill="#4a4a4a" fill-opacity="1"></path><path d="M19.5 82.844L19.5 106.469L58.78 145.749L70.594 133.936L19.5 82.844Z" class="" fill="#9b9b9b" fill-opacity="1"></path><path d="M206.78 123.906L121.875 208.812L146.219 233.187L231.124 148.25L206.78 123.906Z" class="" fill="#9b9b9b" fill-opacity="1"></path><path d="M332.125 151.312C325.759 151.312 319.419 153.735 314.562 158.594C304.849 168.311 304.849 184.064 314.562 193.781C324.276 203.499 340.006 203.499 349.719 193.781C359.432 184.064 359.431 168.311 349.719 158.595C344.861 153.735 338.489 151.315 332.124 151.315Z" class="" fill="#d0021b" fill-opacity="1"></path><path d="M244.281 161.562L227.501 178.344C227.753 178.34 227.999 178.314 228.251 178.314C242.003 178.314 255.737 183.576 266.281 194.124C287.374 215.224 287.377 249.179 266.281 270.281C245.191 291.381 211.281 291.381 190.189 270.281L189.689 269.751C179.299 259.081 174.189 245.253 174.376 231.471L157.596 248.251C160.502 261.175 166.948 273.445 176.97 283.471C177.205 283.706 177.45 283.925 177.688 284.157C177.824 284.313 177.955 284.472 178.094 284.627C169.371 293.737 169.476 308.193 178.438 317.157C187.52 326.243 202.261 326.243 211.344 317.157C213.384 315.117 214.97 312.797 216.094 310.313C238.219 317.783 259.921 314.381 289.781 322.813L319.564 352.595C315.928 359.305 316.924 367.86 322.594 373.532C328.264 379.205 336.824 380.202 343.532 376.565L462.94 495.969L494.97 495.969L494.97 467L323.157 295.187C317.563 279.677 315.452 266.571 313.751 254.531C319.929 256.627 327.014 255.208 331.939 250.281C338.849 243.369 338.849 232.163 331.939 225.251C325.397 218.707 315.015 218.404 308.064 224.251C304.197 211.541 297.324 198.715 282.876 183.845C281.231 182.153 279.468 180.595 277.656 179.157C267.99 170.139 256.419 164.297 244.282 161.563Z" class="" fill="#d0021b" fill-opacity="1"></path><path d="M357.063 262.22C353.538 262.22 350.035 263.56 347.345 266.25C341.965 271.632 341.965 280.368 347.345 285.75C352.725 291.132 361.435 291.132 366.815 285.75C372.195 280.368 372.193 271.632 366.813 266.25C364.123 263.56 360.589 262.22 357.063 262.22Z" class="" fill="#d0021b" fill-opacity="1"></path><path d="M227.595 335.31C224.069 335.31 220.535 336.65 217.845 339.342C212.465 344.722 212.465 353.429 217.845 358.812C223.225 364.192 231.965 364.192 237.345 358.81C242.725 353.428 242.725 344.723 237.345 339.342C234.655 336.652 231.121 335.312 227.595 335.312Z" class="selected" fill="#d0021b" fill-opacity="1"></path></g></g><g class="" style="" transform="translate(256,256)"><g><circle cx="128" cy="128" r="128" fill="#000" fill-opacity="1"></circle><circle stroke="#d0021b" stroke-opacity="1" fill="#000" fill-opacity="1" stroke-width="18" cx="128" cy="128" r="101"></circle><path fill="#d0021b" fill-opacity="1" d="M128 53.346l8.997 46.964 34.883-32.706-20.325 43.283L199 104.93 157.115 128 199 151.07l-47.445-5.957 20.325 43.283-34.883-32.706L128 202.654l-8.997-46.964-34.883 32.706 20.325-43.283L57 151.07 98.885 128 57 104.93l47.445 5.957L84.12 67.604l34.883 32.706z"></path></g></g></svg>