<svg style="height: 512px; width: 512px;" xmlns="http://www.w3.org/2000/svg" viewBox="0 0 512 512"><rect fill="#000" fill-opacity="1" height="512" width="512" rx="32" ry="32"></rect><g class="" style="" transform="translate(0,0)"><g><path d="M121.844 18.22C111.596 64.72 116.091 104.818 129.406 139.22C161.128 174.723 204.186 199.587 248.906 223.625C233.762 208.898 219.406 194.331 206.936 179.437L279.876 179.437C285.194 173.24 290.143 167.012 294.688 160.75L192.5 160.75C187.554 153.715 183.103 146.57 179.25 139.25C177.214 135.383 175.324 131.47 173.594 127.5L314.188 127.5C316.918 121.413 319.22 115.23 321.063 108.812L166.843 108.812C163.39 96.652 161.517 83.685 161.625 69.375L325.875 69.375C325.699 63.427 325.167 57.207 324.219 50.655L162.843 50.655C164.045 40.562 166.133 29.789 169.28 18.219L121.844 18.219Z" class="" fill="#48baff" fill-opacity="1"></path><path d="M337.874 18.22C347.907 55.056 347.49 83.66 340.344 108.813L340.188 108.813C336.973 122.153 332.03 134.536 325.813 146.343C310.105 176.176 285.618 202.54 258.719 228.875C271.469 235.681 284.286 242.482 296.969 249.5C323.699 223.333 349.769 195.315 367.999 160.687C388.462 121.817 397.829 74.742 385.374 18.219L337.874 18.219Z" class="" fill="#b8e986" fill-opacity="1"></path><path d="M208.874 272.03C188.536 293.242 169.422 316.374 154.938 343.72C133.612 383.98 123.828 433.678 135.5 493.187L181.125 493.187C176.089 471.037 174.645 450.342 176.095 431.187C176.553 423.719 177.475 416.581 178.845 409.719L179 409.719C180.278 403.284 181.896 397.056 183.813 391.029C183.837 390.959 183.851 390.884 183.875 390.812C186.9 381.342 190.671 372.372 195.063 363.937C210.023 335.207 230.923 312.597 251.563 292.124C237.456 285.384 223.117 278.798 208.875 272.03Z" class="selected" fill="#b8e986" fill-opacity="1"></path><path d="M256.469 294.5C270.906 309.05 284.349 323.696 295.655 339.063L233.843 339.063C229.045 345.045 224.506 351.258 220.313 357.75L308.063 357.75C309.508 360.2 310.895 362.69 312.218 365.188C316.606 373.475 320.365 382.038 323.373 391.031L203.5 391.031C201.316 397.011 199.493 403.249 198.03 409.721L328.344 409.721C330.772 421.894 331.869 434.931 331.281 449.157L194.19 449.157C194.327 455.207 194.77 461.437 195.565 467.845L329.627 467.845C328.555 475.907 326.977 484.341 324.877 493.189L371.69 493.189C381.223 444.571 376.426 402.507 362.72 366.782C334.277 334.934 296.444 313.812 256.47 294.502Z" class="" fill="#48baff" fill-opacity="1"></path></g></g></svg>