<svg style="height: 512px; width: 512px;" xmlns="http://www.w3.org/2000/svg" viewBox="0 0 512 512"><rect fill="#000" fill-opacity="1" height="512" width="512" rx="32" ry="32"></rect><g class="" style="" transform="translate(0,0)"><g><path d="M278.67 38.67C277.89 38.661 277.111 38.674 276.332 38.709C263.805 39.266 251.348 45.685 240.193 57.772C227.399 71.634 215.45 92.958 204.183 124.244C191.97 122.971 178.08 112.651 162.609 101.724C148.064 91.452 130.671 76.964 111.511 66.492C97.142 58.638 81.191 52.897 64.822 53.863C59.2 54.189 53.655 55.324 48.357 57.234C35.041 62.03 22.742 71.145 20.5 85.281C19.378 92.349 22.338 100.425 28.468 105.791C34.598 111.157 43.236 114.662 55.152 117.001C84.643 122.786 94.899 127.941 124.843 146.979C135.513 153.762 143.44 163.105 154.333 172.441C162.308 179.276 172.027 185.811 185.006 190.199C183.359 197.069 181.726 204.209 180.107 211.652C179.513 214.382 177.704 216.656 172.595 219.535C167.487 222.415 159.62 225.135 150.375 227.84C131.885 233.25 107.926 238.744 86.601 251.156C72.601 259.306 58.715 273.126 49.561 288.979C40.406 304.831 35.672 324.113 45.529 340.193C49.309 346.358 54.974 350.749 61.131 352.961C67.287 355.173 73.749 355.468 80.231 354.893C93.193 353.741 106.738 349.107 119.931 344.743C133.124 340.378 145.965 336.283 155.578 335.428C160.384 335 164.258 335.382 167.008 336.369C169.758 337.356 171.567 338.688 173.358 341.604C174.828 344 174.638 345.025 171.845 349.52C169.054 354.014 163.393 359.856 157.316 365.898C151.239 371.941 144.748 378.191 140.131 385.561C135.514 392.931 132.967 403.475 138.241 412.421C142.264 419.244 149.828 422.721 156.347 423.244C162.867 423.767 168.962 422.46 174.869 421.141C186.683 418.501 197.408 416.619 201.611 418.703C205.084 420.425 209.078 427.661 213.445 436.763C215.628 441.315 217.985 446.136 221.703 450.494C225.421 454.853 231.206 458.772 238.162 459.285C248.53 460.05 257.496 455.23 263.986 449.008C270.476 442.786 275.369 435.125 280.09 427.725C284.81 420.325 289.327 413.159 293.904 408.057C298.481 402.955 302.651 400.187 307.291 399.522C315.181 398.389 323.501 401.349 332.859 407.496C342.217 413.643 352.039 422.734 361.986 431.68C371.933 440.626 381.945 449.486 393.144 455.014C404.344 460.542 418.092 462.124 430.279 454.865C436.944 450.895 440.236 443.389 440.664 437.061C441.091 430.732 439.784 424.871 438.517 419.231C435.984 407.95 434.573 398.241 436.558 394.877C437.701 392.942 444.333 390.139 453.222 387.507C457.667 386.192 462.409 384.803 466.984 381.907C471.559 379.01 476.095 373.5 476.738 366.766C477.708 356.608 472.125 347.914 465.457 342.426C458.788 336.937 450.825 333.226 443.187 329.592C435.55 325.957 428.225 322.436 423.332 318.818C419.162 315.736 417.182 313.186 416.478 310.283C416.647 310.063 416.808 309.751 417.758 308.99C420.16 307.065 424.507 304.44 429.72 301.672C440.148 296.136 454.055 289.83 466.056 282.557C478.058 275.284 489.759 267.403 491.568 253.592C492.473 246.686 489.62 239.386 484.349 233.632C479.079 227.88 471.514 222.889 460.939 217.812L460.451 217.578L459.939 217.404C442.769 211.571 424.738 205.087 410.722 197.756C396.707 190.425 387.608 182.11 385.58 175.52C382.35 165.024 373.54 141.832 360.646 117.084C347.751 92.336 331.196 66.279 310.736 50.926C301.146 43.729 290.309 38.799 278.67 38.67Z" class="" fill="#4a90e2" fill-opacity="1"></path><path d="M278.476 56.67C285.228 56.748 292.366 59.646 299.931 65.322C316.071 77.432 332.384 101.794 344.683 125.4C356.983 149.007 365.695 172.107 368.375 180.814C372.98 195.778 386.65 205.478 402.379 213.705C417.883 221.815 436.249 228.343 453.394 234.175C462.564 238.608 468.293 242.753 471.078 245.793C473.893 248.866 473.881 250.031 473.72 251.253C473.4 253.7 467.354 260.723 456.728 267.163C446.103 273.601 432.502 279.816 421.279 285.773C415.668 288.753 410.654 291.617 406.502 294.945C402.349 298.274 397.579 302.696 398.209 310.25C399.055 320.408 405.537 328.049 412.631 333.293C419.724 338.537 427.899 342.249 435.453 345.843C443.007 349.439 449.927 352.958 454.017 356.324C458.107 359.691 459.16 361.476 458.818 365.054C458.733 365.948 459.006 365.652 457.355 366.697C455.705 367.742 452.257 369.022 448.115 370.248C439.831 372.7 427.707 374.464 421.058 385.725C413.398 398.699 418.569 412.552 420.955 423.175C422.148 428.488 422.886 433.163 422.705 435.848C422.523 438.533 422.554 438.515 421.068 439.4C414.305 443.428 409.078 442.806 401.111 438.873C393.144 434.94 383.796 427.085 374.023 418.295C364.25 409.505 353.992 399.841 342.742 392.451C331.492 385.061 318.677 379.701 304.734 381.703C294.546 383.166 286.638 389.2 280.506 396.035C274.373 402.87 269.549 410.778 264.914 418.045C260.278 425.312 255.803 431.916 251.527 436.015C247.251 440.115 244.057 441.671 239.486 441.334C237.842 441.213 237.106 440.814 235.398 438.813C233.69 436.81 231.715 433.229 229.675 428.979C225.597 420.478 221.585 408.515 209.605 402.576C195.985 395.824 181.955 401.115 170.945 403.574C165.44 404.804 160.605 405.527 157.785 405.301C154.965 405.075 154.777 405.026 153.748 403.279C152.325 400.865 152.533 399.669 155.384 395.117C158.236 390.565 163.927 384.708 170.008 378.662C176.088 372.616 182.56 366.385 187.136 359.018C191.713 351.651 194.126 341.028 188.697 332.186C184.914 326.023 179.245 321.638 173.087 319.428C166.93 317.218 160.465 316.923 153.982 317.5C141.017 318.653 127.472 323.288 114.279 327.652C101.086 332.017 88.247 336.11 78.639 336.962C73.834 337.39 69.965 337.009 67.219 336.022C64.472 335.034 62.663 333.702 60.875 330.785C55.849 322.585 57.772 310.754 65.148 297.981C72.524 285.207 85.044 272.889 95.656 266.713C113.829 256.136 136.19 250.745 155.429 245.115C165.049 242.301 173.899 239.462 181.433 235.215C188.967 230.968 195.725 224.545 197.697 215.479C215.433 133.934 235.607 89.281 253.42 69.981C262.326 60.331 269.984 57.009 277.13 56.691C277.577 56.671 278.026 56.665 278.476 56.67Z" class="" fill="#06438b" fill-opacity="1"></path><path d="M69.091 71.725C79.973 71.839 91.2 75.901 102.879 82.285C119.866 91.571 136.764 105.507 152.226 116.428C165.856 126.054 180.596 138.731 198.285 141.748C195.268 151.289 192.299 161.612 189.377 172.766C179.635 169.343 172.696 164.474 166.047 158.776C156.562 150.647 147.907 140.311 134.5 131.787C104.127 112.477 89.49 105.395 58.617 99.337C48.579 97.368 42.791 94.407 40.324 92.247C37.856 90.087 38.044 89.578 38.279 88.102C38.748 85.148 45.664 77.336 54.457 74.17C59.271 72.436 64.145 71.673 69.091 71.725Z" class="" fill="#06438b" fill-opacity="1"></path><path d="M271.131 87.807C230.303 121.955 225.934 186.231 218.113 223.317L235.726 227.031C244.023 187.691 250.314 128.684 282.679 101.613Z" class="" fill="#4a90e2" fill-opacity="1"></path><path d="M182.777 258.426C150.463 262.256 121.341 274.551 93.818 289.676L102.486 305.451C128.915 290.928 155.803 279.75 184.896 276.301Z" class="" fill="#4a90e2" fill-opacity="1"></path><path d="M65.642 396.049C62.667 396.062 59.695 396.231 56.738 396.555C45.135 397.838 34.15 401.023 27.716 410.336C19.843 421.734 20.491 435.439 26.697 445.129C32.903 454.819 43.084 461.581 54.267 466.316C65.45 471.051 77.77 473.664 89.23 473.299C100.69 472.934 112.342 469.512 118.699 459.512C127.567 445.56 128.318 431.096 122.103 420.5C115.888 409.904 104.801 403.752 93.011 400.086C84.169 397.336 74.713 396.003 65.642 396.049Z" class="" fill="#000000" fill-opacity="1"></path><path d="M95.172 420.259C100.58 422.939 104.622 426.278 106.576 429.607C109.351 434.34 110.015 439.621 103.509 449.856C101.799 452.546 96.824 455.046 88.656 455.306C80.488 455.566 70.176 453.507 61.285 449.742C54.088 446.695 47.909 442.469 44.119 438.32C48.36 435.739 54.636 432.347 61.515 429.44C72.091 424.97 84.597 421.167 95.172 420.26Z" class="selected" fill="#000000" fill-opacity="1"></path></g></g></svg>