<svg style="height: 512px; width: 512px;" xmlns="http://www.w3.org/2000/svg" viewBox="0 0 512 512"><rect fill="#000" fill-opacity="1" height="512" width="512" rx="32" ry="32"></rect><g class="" style="" transform="translate(0,0)"><g><path d="M316.26 30.982C382.918 66.94 428.217 137.405 428.217 218.452C428.217 336.019 332.912 431.324 215.347 431.324C134.331 431.324 63.891 386.064 27.92 319.454C54.146 421.63 146.772 497.02 257.195 497.02C388.045 497.02 493.898 391.163 493.898 260.314C493.898 149.866 418.474 57.194 316.26 30.982Z" class="selected" fill="#ecebeb" fill-opacity="1"></path><path d="M173.027 49.174C172.514 49.172 172.005 49.182 171.502 49.204C166.672 49.404 162.507 50.732 159.424 52.752L146.79 160.74L131.332 189.332C137.545 199.975 142.528 210.802 146.158 221.828L128.408 227.672C126.356 221.439 123.778 215.212 120.705 208.99L120.68 209.037C107.73 186.472 93.304 167.837 81.768 161.07C75.578 157.44 71.278 156.87 66.506 158.72C62.524 160.266 57.483 164.55 52.123 172.705C85.278 214.325 93.037 253.43 98.658 278.9C100.46 287.06 100.513 294.658 101.888 300.26L102.193 301.494L102.153 302.766C101.399 328.11 112.549 346.176 128.299 357.984C144.003 369.76 164.515 374.51 180.403 371.732C200.128 367.534 212.818 360.674 226.12 349.268C238.042 338.698 259.205 322.86 271.182 312.848C308.242 281.871 369.24 249.803 379.202 244.638C381.31 233.736 374.396 222.16 365.547 217.486L291.363 260.196C287.409 253.122 282.915 246.516 277.971 240.301L369.476 141.091C369.146 134.863 366.096 127.544 361.171 121.839C356.727 116.692 351.239 113.505 347.038 112.466L251.968 213.796C245.902 208.639 239.538 203.742 232.966 199.024L299.066 73.808C294.539 67.088 289.678 63.236 283.806 60.571C278.361 58.101 271.503 56.777 263.919 55.679L203.456 179.479C196.108 174.887 188.684 170.361 181.274 165.823L195.329 57.017C191.333 53.601 184.732 50.453 177.757 49.505C176.154 49.287 174.569 49.179 173.027 49.175Z" class="" fill="#ffe0af" fill-opacity="1"></path></g></g></svg>