<svg style="height: 512px; width: 512px;" xmlns="http://www.w3.org/2000/svg" viewBox="0 0 512 512"><defs><linearGradient x1="0" x2="1" y1="1" y2="0" id="delapouite-reptile-tail-gradient-1"><stop offset="0%" stop-color="#8b572a" stop-opacity="1"></stop><stop offset="100%" stop-color="#417505" stop-opacity="1"></stop></linearGradient><linearGradient x1="0" x2="1" y1="0" y2="1" id="delapouite-reptile-tail-gradient-2"><stop offset="0%" stop-color="#8b572a" stop-opacity="1"></stop><stop offset="100%" stop-color="#417505" stop-opacity="1"></stop></linearGradient><linearGradient x1="0" x2="1" y1="1" y2="0" id="delapouite-reptile-tail-gradient-3"><stop offset="0%" stop-color="#8b572a" stop-opacity="1"></stop><stop offset="100%" stop-color="#417505" stop-opacity="1"></stop></linearGradient><linearGradient x1="0" x2="1" y1="0" y2="1" id="delapouite-reptile-tail-gradient-4"><stop offset="0%" stop-color="#417505" stop-opacity="1"></stop><stop offset="100%" stop-color="#8b572a" stop-opacity="1"></stop></linearGradient></defs><rect fill="#000" fill-opacity="1" height="512" width="512" rx="32" ry="32"></rect><g class="" style="" transform="translate(0,0)"><g><path d="M88.22 18C88.22 52.61 105.7 73.27 125.6 95.31C106.9 106.6 86.04 104.4 66.65 105.1C87.27 123.6 118.4 130.1 140.6 122L170.3 172.7C180.9 175.3 191.9 175.7 202.7 174.7C206.9 155.2 212.2 135.6 218.6 116.6C206.2 124.4 198.7 132.3 189.5 142.7L158.2 109.4C178.4 92.57 186.1 61.43 176.3 38.6C169.9 59.41 158.7 73.38 144.5 83.3C133.6 53.22 108.4 31.86 88.22 18Z" class="" fill="url(#delapouite-reptile-tail-gradient-2)"></path><path d="M292.5 18C277.6 33.8 264 55.19 252.5 79.86C233.6 120.4 220.2 169.3 213.9 214.3L213.9 214.4C210.5 239 222.3 269.6 231.7 300.1C236.5 315.3 240.6 330.6 241 345.7C241.5 360.8 238 376.1 227.6 389.1C211.9 408.8 185.9 420.7 159.1 424.5C132.2 428.4 104 424.3 84.21 408.2C56.17 385.3 42.83 356.1 41.73 321.1C41 298 45.23 272.3 52.99 243.1C36.77 269.4 25.38 298.6 20.83 327.4C13.86 371.5 22.41 414 52.04 445.2C75.57 470 114.9 484.2 156.8 486.7C198.7 489.3 242.8 480.2 274.8 460.8C327.2 428.2 334.1 395.9 331.6 361.5C329 327.1 313.7 291.1 322.3 256.6C332.8 214.4 380.1 165.5 428.1 116.3C451.1 92.69 474.4 69.1 494 47.63L494 18Z" class="" fill="url(#delapouite-reptile-tail-gradient-3)"></path><path d="M479.4 178.3C453.1 186.4 434.8 215.5 434.9 236.2L389.3 232.1L391.2 222.3C393.6 209.6 392.9 196.5 390.6 183.1C374.7 201.4 361.1 218.9 351.8 234.3C358.3 246.2 366.9 257.2 377.6 265.7L435.9 257.8C444.2 283.8 473.1 300.8 494 305.4L494 304.5C481.2 285.9 469.3 274.1 466.1 253.1C475.4 252.8 483 256 494 251.8L494 224.5C482.7 224.9 474.6 227.6 463.9 230.8C460.8 211.1 470.5 192.5 479.4 178.3Z" class="selected" fill="url(#delapouite-reptile-tail-gradient-4)"></path></g></g></svg>