<svg style="height: 512px; width: 512px;" xmlns="http://www.w3.org/2000/svg" viewBox="0 0 512 512"><rect fill="#000" fill-opacity="1" height="512" width="512" rx="32" ry="32"></rect><g class="" style="" transform="translate(0,0)"><g><path d="M226.652 235.381L248.222 215.658C226.704 196.153 208.974 210.115 205.725 215.014C195.583 230.222 215.358 224.191 226.652 235.381Z" class="" fill="#9b9b9b" fill-opacity="1"></path><path d="M318.935 286.827C315.727 291.644 298.517 305.211 277.465 287.077L297.105 265.547C308.17 278.056 329.315 271.257 318.935 286.827Z" class="" fill="#9b9b9b" fill-opacity="1"></path><path d="M289.725 199.257C446.324 42.738 486 24.645 486 24.645C486 24.645 470.543 66.956 314.004 223.568Z" class="selected" fill="#c9c9c9" fill-opacity="1"></path><path d="M34.808 440.584C45.676 433.1 45.541 436.93 58.216 425.574L58.476 425.834L87.437 454.795L87.697 455.055C76.444 467.667 80.43 467.511 72.717 478.608C65.504 489.027 50.615 490.366 41.659 481.401L31.942 471.684C22.967 462.7 24.342 447.776 34.808 440.584Z" class="" fill="#9b9b9b" fill-opacity="1"></path><path d="M224.575 259.703L277.962 211.049L302.252 235.339L253.568 288.706Z" class="" fill="#9b9b9b" fill-opacity="1"></path><path d="M70.215 414.083L99.177 443.044L240.281 301.941L211.319 272.979Z" class="" fill="#9b9b9b" fill-opacity="1"></path><path d="M186.802 308.49C193.319 301.977 204.443 304.96 206.825 313.861C209.208 322.761 201.062 330.903 192.162 328.516C190.135 327.972 188.287 326.905 186.802 325.421C182.126 320.746 182.126 313.166 186.802 308.491Z" class="" fill="#9b9b9b" fill-opacity="1"></path></g></g></svg>