<svg style="height: 512px; width: 512px;" xmlns="http://www.w3.org/2000/svg" viewBox="0 0 512 512"><rect fill="#000" fill-opacity="1" height="512" width="512" rx="32" ry="32"></rect><g class="" style="" transform="translate(0,0)"><g><path d="M255.125 99.406C189.321 99.406 130.197 129.16 87.469 169.281C44.739 209.403 17.719 259.837 17.719 304.407C17.719 348.977 47.025 380.207 90.279 398.187C133.536 416.17 191.457 423.032 255.124 423.032C318.791 423.032 376.712 416.172 419.968 398.19C463.222 380.208 492.498 348.978 492.498 304.408C492.498 259.838 465.508 209.404 422.778 169.283C380.051 129.163 320.928 99.409 255.123 99.409Z" class="" fill="#48baff" fill-opacity="1"></path><path d="M255.125 118.094C315.273 118.094 370.158 145.524 409.969 182.906C449.779 220.288 473.811 267.658 473.811 304.406C473.811 341.154 452.064 364.576 412.781 380.906C373.496 397.236 317.408 404.344 255.124 404.344C192.84 404.344 136.72 397.237 97.436 380.906C58.153 364.576 36.406 341.154 36.406 304.406C36.406 267.658 60.438 220.288 100.249 182.906C140.059 145.526 194.976 118.094 255.124 118.094Z" class="" fill="#000000" fill-opacity="1"></path><path d="M200.405 156.688C197.061 156.676 193.345 157.196 189.281 158.344C168.364 164.251 156.027 199.819 134.221 220.624C110.091 243.646 71.521 261.212 66.314 293.281C62.334 311.506 73.497 330.064 91.688 334.939C110.414 339.956 129.921 328.696 134.938 309.969C135.661 307.274 136.021 304.559 136.095 301.876L136.251 301.876C134.554 263.526 143.509 211.213 192.281 208.376C231.353 206.103 232.741 156.801 200.407 156.688Z" class="" fill="#4a90e2" fill-opacity="1"></path><path d="M287.75 161.906C276.333 162.238 264.298 168.836 264.562 179.906C265.092 202.046 301.736 209.338 307.219 181.436C309.959 167.486 299.166 161.574 287.749 161.906Z" class="" fill="#86e9b1" fill-opacity="1"></path><path d="M347.75 181.344C329.327 181.654 329.648 198.074 339.28 204.406C388.53 236.771 347.754 250.246 322.594 236.436C298.919 223.438 235.154 217.076 211.124 240.376C191.986 258.929 207.864 294.304 237.531 273.156C287.165 237.781 331.631 257.489 351.031 301.936L351.095 301.906C360.593 323.701 385.005 335.986 408.625 329.656C434.629 322.689 450.219 295.722 443.251 269.719C441.917 264.741 439.841 260.159 437.188 256.029C425.784 218.943 400.126 193.246 359.97 182.999C355.212 181.785 351.162 181.286 347.75 181.343Z" class="selected" fill="#417505" fill-opacity="1"></path><path d="M395.53 252.094C409.115 251.841 421.497 260.759 425.188 274.531C429.541 290.779 420.028 307.241 403.781 311.595C387.534 315.949 371.104 306.467 366.751 290.22C362.398 273.972 371.878 257.51 388.126 253.156C390.156 252.612 392.206 252.281 394.22 252.156C394.66 252.129 395.093 252.102 395.53 252.094Z" class="" fill="#000000" fill-opacity="1"></path><path d="M100.344 284.188C100.824 284.176 101.296 284.188 101.781 284.218C102.891 284.29 104.005 284.481 105.126 284.781C114.096 287.186 119.279 296.157 116.876 305.126C114.472 314.096 105.502 319.279 96.532 316.876C87.562 314.473 82.38 305.503 84.782 296.532C86.755 289.174 93.16 284.354 100.346 284.19Z" class="" fill="#000000" fill-opacity="1"></path><path d="M279.874 294.75C264.064 294.965 245.15 300.024 232.406 307.72C217.536 313.494 206.906 327.982 206.906 344.812C206.906 366.657 224.813 384.562 246.656 384.562C247.086 384.562 247.51 384.545 247.936 384.532C280.454 386.976 324.911 369.748 324.406 352.719C323.833 333.355 287.453 352.449 286.406 330.843C285.936 321.097 313.806 318.929 307.436 305.343C303.848 297.683 292.916 294.573 279.876 294.749Z" class="" fill="#b8e986" fill-opacity="1"></path><path d="M246.656 323.72C258.399 323.72 267.75 333.07 267.75 344.812C267.75 356.557 258.4 365.875 246.656 365.875C234.913 365.875 225.594 356.557 225.594 344.812C225.594 333.068 234.914 323.719 246.656 323.719Z" class="" fill="#000000" fill-opacity="1"></path></g></g></svg>