<svg style="height: 512px; width: 512px;" xmlns="http://www.w3.org/2000/svg" viewBox="0 0 512 512"><defs><linearGradient x1="0" x2="0" y1="0" y2="1" id="delapouite-factory-gradient-1"><stop offset="0%" stop-color="#4a4a4a" stop-opacity="1"></stop><stop offset="100%" stop-color="#9b9b9b" stop-opacity="1"></stop></linearGradient></defs><rect fill="#000" fill-opacity="1" height="512" width="512" rx="32" ry="32"></rect><g class="" style="" transform="translate(0,0)"><path d="M384 64l.387 256H368l-96-128-16 128-96-128-16 128-96-128-16 128v160h448V64h-32v256h-32V64h-32zM64 352h48v32H64v-32zm80 0h48v32h-48v-32zm80 0h48v32h-48v-32zm80 0h48v32h-48v-32zM64 416h48v32H64v-32zm80 0h48v32h-48v-32zm80 0h48v32h-48v-32zm80 0h48v32h-48v-32z" fill="url(#delapouite-factory-gradient-1)"></path></g></svg>