<svg style="height: 512px; width: 512px;" xmlns="http://www.w3.org/2000/svg" viewBox="0 0 512 512"><rect fill="#000" fill-opacity="1" height="512" width="512" rx="32" ry="32"></rect><g class="" style="" transform="translate(125,0)"><g><path d="M130.375 18.438C110.76 18.438 93.93 27.98 82.781 42.438C71.634 56.895 65.688 76.09 65.688 96.688C65.688 114.565 70.231 132.428 78.314 146.812C67.306 151.214 58.086 158.209 50.814 166.937C40.817 178.934 34.231 193.957 29.688 210.437C20.603 243.401 19.563 282.641 19.563 318.031L19.563 327.376L61.595 327.376L71.563 482.156L72.126 490.906L188.656 490.906L189.22 482.156L199.156 327.376L241.219 327.376L241.219 318.032C241.219 282.642 240.179 243.402 231.093 210.44C226.55 193.958 219.963 178.936 209.968 166.94C202.698 158.217 193.464 151.217 182.468 146.815C190.548 132.43 195.092 114.565 195.092 96.69C195.092 76.092 189.115 56.897 177.967 42.44C166.817 27.982 149.987 18.44 130.372 18.44Z" class="selected" fill="#ffe0af" fill-opacity="1"></path><path d="M377.781 18.438C358.167 18.438 341.337 27.98 330.189 42.438C319.039 56.895 313.095 76.09 313.095 96.688C313.095 114.565 317.637 132.428 325.72 146.812C314.71 151.214 305.492 158.209 298.22 166.937C288.222 178.934 281.636 193.957 277.094 210.437C268.008 243.401 266.938 282.641 266.938 318.031L266.938 327.376L309 327.376L318.938 482.156L319.5 490.906L435.938 490.906L436.594 482.282L448.469 327.377L488.624 327.377L488.624 318.033C488.624 282.643 487.554 243.403 478.468 210.441C473.924 193.959 467.338 178.937 457.342 166.941C450.069 158.211 440.849 151.217 429.842 146.816C437.924 132.43 442.467 114.568 442.467 96.691C442.467 76.093 436.52 56.898 425.372 42.441C414.224 27.983 397.392 18.441 377.778 18.441Z" class="" fill="#000000" fill-opacity="1"></path><path d="M130.376 37.124C144.136 37.124 155.006 43.231 163.189 53.844C171.372 64.454 176.407 79.734 176.407 96.687C176.407 115.35 169.52 135.277 160.437 146.217L150.313 158.405L165.907 161.343C178.719 163.751 187.965 169.749 195.595 178.905C201.833 186.392 206.817 196.167 210.657 207.561L197.437 308.686L182.687 308.686L170.47 211.374L150.625 374.904L129.595 211.374L110.905 367.312L90.47 211.375L78.75 308.688L61.812 308.688L49.282 210.125C53.219 197.625 58.452 186.951 65.156 178.905C72.786 169.75 82.063 163.752 94.876 161.345L110.469 158.405L100.343 146.187C91.26 135.247 84.373 115.351 84.373 96.687C84.373 79.737 89.41 64.457 97.593 53.844C105.775 43.232 116.613 37.124 130.373 37.124Z" class="" fill="#000000" fill-opacity="1"></path><path d="M457.97 207.313C458.858 209.933 459.7 212.62 460.47 215.406C467.906 242.39 469.564 276.366 469.812 308.686L445.032 308.688L457.969 207.313Z" class="" fill="#000000" fill-opacity="1"></path><path d="M337.937 211.375L358.094 367.313L377.064 211.375L397.812 374.905L418 211.376L430.813 313.406L430.5 317.314L418.625 472.22L337.03 472.22L327.094 317.437L326.531 308.687L326.095 308.687L337.939 211.375Z" class="" fill="#000000" fill-opacity="1"></path><path d="M296 212.22L308.75 308.688L285.75 308.688C285.998 276.366 287.656 242.39 295.094 215.406C295.39 214.332 295.686 213.269 296 212.219Z" class="" fill="#000000" fill-opacity="1"></path></g></g></svg>