<svg style="height: 512px; width: 512px;" xmlns="http://www.w3.org/2000/svg" viewBox="0 0 512 512"><rect fill="#000" fill-opacity="1" height="512" width="512" rx="32" ry="32"></rect><g class="" style="" transform="translate(0,0)"><g><path d="M415.03 38.906C412.236 38.911 409.465 39.436 406.78 40.5C402.705 42.148 399.637 44.34 396.22 48.875C368.886 85.199 328.54 132.003 264.687 173.405L252.407 192.155L270.719 197.75L281.749 201.094L276.186 211.188L267.061 227.75C269.446 226.388 272.131 224.702 275.311 222.562C290.586 212.286 314.079 203.849 338.061 196.75C353.276 192.247 368.536 188.447 381.624 185.594C413.572 176.044 441.932 171.094 465.249 168.438C517.575 162.488 487.393 84.778 433.155 112.844C470.773 84.944 442.055 38.864 415.03 38.906Z" class="" fill="#fff" fill-opacity="1"></path><path d="M68.375 83.906C39.649 84.276 18.692 141.476 64.531 159.594C5.895 146.676 -3.122 228.278 48.157 220.624C71.935 217.074 101.554 214.507 136.095 215.781C167.497 215.451 199.572 218.351 228.565 227.001C234.895 228.891 239.775 230.375 243.72 231.345L254.25 212.251L235.03 206.407L223.094 202.782L229.938 192.346L241.5 174.658C169.508 151.555 118.822 117.058 83.344 89.314C78.879 86.147 75.531 84.476 71.188 84.064C70.248 83.954 69.302 83.896 68.375 83.908Z" class="" fill="#fff" fill-opacity="1"></path><path d="M354.22 211.594C350.608 212.584 346.994 213.616 343.375 214.688C320.205 221.546 297.315 230.314 285.75 238.094C273.28 246.484 264 250.874 254.03 251.314C244.063 251.75 235.596 248.6 223.22 244.906C203.347 238.976 181.24 235.956 158.688 234.936L172.531 299.156L185.781 256.656L200.626 323.376L207.939 429.688L217.251 480.406L225.126 429.25L228.376 347.062L239.156 285.406L262.626 376.844L281.72 354.719L290.22 419.529L300.375 460.499L309.25 425.905L316.78 288L340.22 341.875L354.22 211.595Z" class="selected" fill="#7ed321" fill-opacity="1"></path></g></g></svg>