<svg style="height: 512px; width: 512px;" xmlns="http://www.w3.org/2000/svg" viewBox="0 0 512 512"><defs><linearGradient x1="0" x2="1" y1="0" y2="1" id="lorc-energy-breath-gradient-1"><stop offset="0%" stop-color="#f8e71c" stop-opacity="1"></stop><stop offset="100%" stop-color="#d0021b" stop-opacity="1"></stop></linearGradient><linearGradient x1="0" x2="1" y1="0" y2="1" id="lorc-energy-breath-gradient-4"><stop offset="0%" stop-color="#48baff" stop-opacity="1"></stop><stop offset="100%" stop-color="#ffffff" stop-opacity="1"></stop></linearGradient></defs><rect fill="#000" fill-opacity="1" height="512" width="512" rx="32" ry="32"></rect><g class="" style="" transform="translate(0,0)"><g><path d="M21.094 18.738L23.742 343.15C42.512 340.56 69.722 335.298 88.687 330.508C24.581 228.958 37.43 133.404 91.014 80.878C144.676 28.276 237.461 20.964 324.191 88.215C329.031 78.358 334.611 65.377 340.985 52.209C346.455 40.909 352.631 29.565 359.88 19.442L21.094 18.737Z" class="" fill="#ffe0af" fill-opacity="1"></path><path d="M496.057 23.266L496.057 23.27C496.057 23.268 496.057 23.267 496.059 23.266L496.056 23.266Z" class="" fill="#fff" fill-opacity="1"></path><path d="M496.057 23.27C434.861 119.03 342.807 165.038 249.234 153.584L249.252 153.494C205.212 145.356 169.172 105.222 160.994 62.524L155.894 63.502C151.512 64.842 147.242 66.407 143.09 68.176C148.11 92.132 160.143 114.926 177.135 133.17C153.74 122.646 130.735 108.302 108.59 90.03C107.06 91.393 105.56 92.79 104.096 94.225C93.526 104.585 84.633 116.939 77.906 130.969C156.904 220.585 180.143 329.895 145.492 419.556C145.5 419.556 145.508 419.556 145.516 419.556C155.818 419.852 164.014 428.29 164.01 438.596C164.083 453.253 148.262 462.492 135.532 455.227C133.614 454.132 131.901 452.712 130.47 451.03C121.792 466.087 111.263 480.365 98.867 493.643L186.613 493.643C226.373 394.13 210.595 294.618 167.367 195.105C234.685 294.697 258.193 392.03 249.77 493.643L290.63 493.643C296.968 444.543 289.216 393.733 272.8 342.381C300.78 394.331 315.462 444.286 318.967 493.644L399.385 493.644C392.269 410.974 340.032 332.196 263.369 255.362C315.216 292.632 362.485 329.602 401.039 368.942C405.695 358.633 416.085 352.128 427.392 352.442C442.575 352.879 454.653 365.317 454.645 380.506C454.7 392.763 446.792 403.637 435.115 407.363C456.582 434.47 473.685 462.973 485.222 493.646L496.056 493.646L496.056 241.916C405.11 256.71 317.902 242.766 228.696 190.13C257.506 200.17 286.313 207.645 315.122 211.767C314.6 210.244 314.327 208.647 314.312 207.037C314.312 198.563 321.313 191.764 329.784 192.011C337.912 192.248 344.378 198.906 344.378 207.038C344.361 209.718 343.628 212.345 342.254 214.646C393.521 218.063 444.788 209.966 496.054 185.649L496.054 132.79C482.416 139.808 468.244 146.285 453.494 152.184C451.851 166.749 435.057 174.073 423.266 165.368C422.602 164.878 421.971 164.346 421.377 163.774C397.999 171.364 373.261 177.614 346.967 182.359C370.952 173.246 393.907 163.056 415.622 151.591C415.575 151.053 415.551 150.514 415.55 149.974C415.546 139.241 424.409 130.625 435.138 130.934C438.888 131.05 442.521 132.271 445.58 134.444C463.483 123.327 480.358 111.158 496.055 97.796L496.055 23.27Z" class="selected" fill="url(#lorc-energy-breath-gradient-4)"></path><path d="M195.8 57.664C190.352 57.659 185.004 57.972 179.764 58.568L275.324 124.463L294.26 89.576C260.09 67.456 226.415 57.692 195.8 57.664Z" class="" fill="#fff" fill-opacity="1"></path><path d="M63.72 196.322C63.782 228.742 73.048 265.21 94.387 303.867L116.717 290.623L63.721 196.323Z" class="" fill="#fff" fill-opacity="1"></path><path d="M393.05 285.266C403.352 285.562 411.549 294.002 411.543 304.309C411.543 318.967 395.676 328.128 382.982 320.799C377.09 317.398 373.461 311.112 373.461 304.309C373.454 293.573 382.32 284.955 393.051 285.265Z" class="" fill="#000000" fill-opacity="1"></path></g></g></svg>