<svg style="height: 512px; width: 512px;" xmlns="http://www.w3.org/2000/svg" viewBox="0 0 512 512"><rect fill="#000" fill-opacity="1" height="512" width="512" rx="32" ry="32"></rect><g class="" style="" transform="translate(0,0)"><g><path d="M256 106C133 106 82.53 236 82.53 236C82.53 236 141.6 126 256 126C370.4 126 429.6 236 429.6 236C429.6 236 379.2 106 256 106Z" class="" fill="#8b572a" fill-opacity="1"></path><path d="M255.9 200.9L255.9 201.5L246.4 233.1L239.3 216.5C239.3 216.5 230.5 275 135.9 263.1C190.3 289.4 210.1 319.7 216.7 342.4C219.1 350.7 224.7 357.5 232.1 361.5C239.6 365.3 248.1 365.9 256 363C263.9 365.9 272.5 365.3 279.9 361.5C287.3 357.5 292.8 350.7 295.2 342.4C302 319.7 321.9 289.4 376 263.1C281.5 275 272.8 216.5 272.8 216.5L265.7 233.1L256.1 201.5L256.1 200.9L256 201.2Z" class="" fill="#d19fd1" fill-opacity="1"></path><path d="M114.6 302.7C74.54 301.9 32.23 330.6 16 366.7C16 366.7 71.91 335.1 105.2 330.7C58.58 355.4 44.47 400.3 44.47 400.3L127.3 363.1C127.3 363.1 103 400.5 88.12 447.5C132.2 430.5 158.6 393.3 158.6 393.3C158.6 393.3 160.1 422 135.6 467C177.5 446.4 182.9 413.9 182.9 413.9L200.9 450.5C202.5 342.2 160 303.6 114.6 302.7Z" class="" fill="#8b572a" fill-opacity="1"></path><path d="M397.5 302.7C352.1 303.6 309.6 342.2 311 450.5L329.3 413.9C329.3 413.9 334.6 446.4 376.4 467C352 422 353.5 393.3 353.5 393.3C353.5 393.3 379.8 430.5 423.9 447.5C409.1 400.5 384.8 363.1 384.8 363.1L467.5 400.3C467.5 400.3 453.5 355.4 406.8 330.7C440.1 335.1 496 366.7 496 366.7C479.8 330.6 437.4 301.9 397.5 302.7Z" class="" fill="#8b572a" fill-opacity="1"></path><path d="M245.3 322.5L245 353.9C215.4 334.8 245.3 322.5 245.3 322.5Z" class="" fill="#000000" fill-opacity="1"></path><path d="M266.7 322.5C266.7 322.5 296.7 334.8 267 353.9Z" class="selected" fill="#000000" fill-opacity="1"></path></g></g></svg>