<svg style="height: 512px; width: 512px;" xmlns="http://www.w3.org/2000/svg" viewBox="0 0 512 512"><rect fill="#000" fill-opacity="1" height="512" width="512" rx="32" ry="32"></rect><g class="" style="" transform="translate(0,0)"><g><path d="M90.67 25L187.5 169.3L186 144.7L105.7 25Z" class="" fill="#4a4a4a" fill-opacity="1"></path><path d="M131 25L287.2 148.1L282.2 106.3L403.7 235.8L435 487L486.7 487L486.7 25Z" class="" fill="#9b9b9b" fill-opacity="1"></path><path d="M201.5 123.2L205.1 185C200.1 192.4 181 217.5 148.2 221.8C144.1 222.3 141 225.8 141 230C141 230 140.2 267.2 186.7 313.1L221.4 257.4C214.4 250.1 207.4 240.9 199.9 228.7L227.5 198.6C229.3 196.7 230 194.2 229.6 191.6L218 121.4C215.3 110.2 201.1 113.9 201.5 123.2Z" class="" fill="#8d0010" fill-opacity="1"></path><path d="M131.7 150.2C122.5 150.2 114.8 154 110.9 160.5C103.8 172.3 110.8 189.6 126.7 199.1C142.6 208.6 161.2 206.5 168.2 194.6C175.2 182.7 168.1 165.5 152.3 156.1C145.8 152.3 138.6 150.2 131.7 150.2Z" class="" fill="#ffe0af" fill-opacity="1"></path><path d="M287.2 226.4L244.6 259.1L232.5 339.2C244.9 342.3 257.9 343.2 270.8 341.4L293.3 338.3L339.2 388.7C341.1 390.7 343.8 391.7 346.5 391.3L375.5 387.3C386.7 384 382.7 370.8 374.1 370.7L352.7 371.4L322.1 305.3C321 303.1 319.1 301.5 316.8 300.8L278.1 289.6L300.7 270.2L353 289C357.7 290.5 362.3 287.9 363.8 283.7L374.3 249.7C376 238.4 362.6 236.1 358.8 243.7L350.7 260.8L296.8 226C293.6 224.2 290 224.5 287.2 226.4Z" class="" fill="#4a90e2" fill-opacity="1"></path><path d="M223.9 285L199.6 323.9C204.9 327.7 210.6 331 216.5 333.6Z" class="selected" fill="#8b572a" fill-opacity="1"></path><path d="M242.9 359.3L274.4 487L287.2 487L255.8 359.6C251.5 359.7 247.2 359.6 242.9 359.3Z" class="" fill="#4a4a4a" fill-opacity="1"></path></g></g></svg>