<svg style="height: 512px; width: 512px;" xmlns="http://www.w3.org/2000/svg" viewBox="0 0 512 512"><rect fill="#000" fill-opacity="1" height="512" width="512" rx="32" ry="32"></rect><g class="" style="" transform="translate(0,0)"><g><path d="M256 27C248.8 27 241.4 28.01 236.8 29.54C234.8 30.23 233.6 30.98 233 31.39L233 169.2C240.7 169.1 248.3 169 256 169C263.7 169 271.3 169.1 279 169.2L279 31.39C278.4 30.98 277.2 30.23 275.2 29.54C270.6 28.01 263.2 27 256 27Z" class="" fill="#4a4a4a" fill-opacity="1"></path><path d="M215 45.77C185.9 55.59 159.7 75.68 138.7 103.4C123 124.1 110.2 149.2 101.6 177.1C142 173.2 178.9 170.7 215 169.6Z" class="" fill="#b57204" fill-opacity="1"></path><path d="M297 45.77L297 169.6C333.1 170.7 370 173.2 410.4 177.1C401.8 149.2 389 124.1 373.3 103.4C352.3 75.68 326.1 55.59 297 45.77Z" class="" fill="#b57204" fill-opacity="1"></path><path d="M256 187C196.4 187 136.8 191 64.99 198.9L64.5 199L64 199C63.38 199 62.61 199.1 60.66 201.6C58.7 204.2 56.44 209 54.63 215.1C51.02 227.3 49 244.7 49 262C49 279.3 51.02 296.7 54.63 308.9C56.44 315 58.7 319.8 60.66 322.4C62.61 324.9 63.38 325 64 325C175.1 325 206 309 256 309C306 309 336.9 325 448 325C448.6 325 449.4 324.9 451.3 322.4C453.3 319.8 455.6 315 457.4 308.9C461 296.7 463 279.3 463 262C463 244.7 461 227.3 457.4 215.1C455.6 209 453.3 204.2 451.3 201.6C449.4 199.1 448.6 199 448 199L447.5 199L447 198.9C375.2 191 315.6 187 256 187Z" class="" fill="#4a4a4a" fill-opacity="1"></path><path d="M88 221C97.28 221 105 228.7 105 238C105 247.3 97.28 255 88 255C78.72 255 71 247.3 71 238C71 228.7 78.72 221 88 221Z" class="" fill="#d0021b" fill-opacity="1"></path><path d="M256 327C215.3 327 184.7 339.5 100.2 342.4C108.9 372.1 122.1 398.7 138.7 420.6C169.2 460.8 210.6 485 256 485C301.4 485 342.8 460.8 373.3 420.6C389.9 398.7 403.1 372.1 411.8 342.4C327.3 339.5 296.7 327 256 327Z" class="" fill="#ffe0af" fill-opacity="1"></path><path d="M462.5 336.8C458.6 340.4 453.7 343 448 343L445.5 343C446.5 347 447.5 351.3 448.5 355.8C452.9 375.4 456.5 399.3 455.1 413C453.8 424.9 446.1 440.9 438.7 456.9C431.2 473 424.2 485.6 424.2 485.6L439.8 494.4C439.8 494.4 447.2 481.3 455 464.5C462.8 447.7 471.1 431.7 472.9 415C475 396.4 470.6 372.3 466.1 351.9C464.9 346.5 463.7 341.4 462.5 336.8Z" class="" fill="#000000" fill-opacity="1"></path><path d="M224 349L288 349L288 367L224 367Z" class="" fill="#000000" fill-opacity="1"></path><path d="M192 405L320 405L320 423L192 423Z" class="selected" fill="#000000" fill-opacity="1"></path></g></g></svg>