<svg style="height: 512px; width: 512px;" xmlns="http://www.w3.org/2000/svg" viewBox="0 0 512 512"><rect fill="#000" fill-opacity="1" height="512" width="512" rx="32" ry="32"></rect><g class="" style="" transform="translate(0,0)"><g><path d="M228.844 32.22L228.844 146.438L246.531 146.438L246.531 32.218L228.845 32.218Z" class="" fill="#f3ea80" fill-opacity="1"></path><path d="M120.594 32.844C105.087 32.844 92.5 45.43 92.5 60.937C92.5 76.444 105.087 89 120.594 89C133.249 89 143.934 80.628 147.438 69.125L192.375 69.125L192.375 146.438L210.063 146.438L210.063 51.438L147.03 51.438C143.142 40.601 132.768 32.845 120.594 32.845Z" class="" fill="#f3ea80" fill-opacity="1"></path><path d="M313.844 32.844C298.337 32.844 285.781 45.43 285.781 60.937C285.781 73.061 293.458 83.387 304.221 87.313L304.221 146.437L321.876 146.437L321.876 87.844C333.472 84.392 341.939 73.651 341.939 60.938C341.939 45.43 329.352 32.844 313.845 32.844Z" class="" fill="#f3ea80" fill-opacity="1"></path><path d="M266.124 92.5L266.124 146.438L283.781 146.438L283.781 92.5L266.126 92.5Z" class="" fill="#f3ea80" fill-opacity="1"></path><path d="M454.656 96.53C439.149 96.53 426.562 109.118 426.562 124.625C426.562 137.708 435.51 148.699 447.625 151.813L447.625 179.281L354.687 179.281L354.687 196.938L465.311 196.938L465.311 150.596C475.534 146.404 482.718 136.363 482.718 124.626C482.718 109.119 470.161 96.532 454.654 96.532Z" class="" fill="#f3ea80" fill-opacity="1"></path><path d="M30.187 123.657L30.187 141.345L96.75 141.345L96.75 196.939L159.564 196.939L159.564 179.28L114.438 179.28L114.438 123.656L30.188 123.656Z" class="" fill="#f3ea80" fill-opacity="1"></path><path d="M177.219 164.127L177.219 323.845L337.029 323.845L337.029 164.125L177.22 164.125Z" class="" fill="#4a4a4a" fill-opacity="1"></path><path d="M194.779 179.782L212.436 179.782L212.436 258.377L244.843 290.783L320.123 290.783L320.123 308.441L237.5 308.441L234.906 305.847L224.156 295.097C223.123 302.482 216.796 308.159 209.126 308.159C200.734 308.159 193.936 301.363 193.936 292.972C193.936 285.29 199.632 278.992 207.031 277.972L197.376 268.314L194.782 265.721L194.782 179.78Z" class="" fill="#000000" fill-opacity="1"></path><path d="M249.719 179.939L267.405 179.939L267.405 235.252L319.935 235.252L319.937 252.94L249.72 252.94L249.72 179.94Z" class="selected" fill="#000000" fill-opacity="1"></path><path d="M53.124 217.375L53.124 307.344C41.634 310.856 33.28 321.542 33.28 334.188C33.28 349.693 45.837 362.281 61.344 362.281C76.851 362.281 89.437 349.694 89.437 334.189C89.437 321.994 81.647 311.625 70.781 307.751L70.781 235.031L159.563 235.031L159.563 217.376L53.124 217.376Z" class="" fill="#f3ea80" fill-opacity="1"></path><path d="M354.687 217.375L354.687 235.031L408.655 235.031L408.655 217.376L354.685 217.376Z" class="" fill="#f3ea80" fill-opacity="1"></path><path d="M454.655 239.345C443.757 239.345 434.313 245.555 429.655 254.625L354.685 254.625L354.687 272.313L427 272.313C429.325 285.481 440.824 295.5 454.656 295.5C470.163 295.5 482.719 282.912 482.719 267.406C482.719 251.899 470.162 239.344 454.655 239.344Z" class="" fill="#f3ea80" fill-opacity="1"></path><path d="M105.593 254.625L105.593 272.313L159.563 272.313L159.563 254.625L105.593 254.625Z" class="" fill="#f3ea80" fill-opacity="1"></path><path d="M122.749 291.095L122.749 375.312C111.251 378.825 102.874 389.512 102.874 402.156C102.874 417.662 115.461 430.25 130.968 430.25C146.474 430.25 159.028 417.662 159.028 402.156C159.028 389.962 151.262 379.592 140.404 375.719L140.404 308.779L159.56 308.779L159.56 291.093L122.75 291.093Z" class="" fill="#f3ea80" fill-opacity="1"></path><path d="M354.687 291.095L354.687 308.781L399.843 308.781L399.843 404.064C388.52 407.688 380.313 418.324 380.313 430.844C380.311 446.35 392.898 458.907 408.405 458.907C423.912 458.907 436.468 446.35 436.468 430.845C436.468 418.525 428.533 408.067 417.498 404.282L417.498 291.095L354.684 291.095Z" class="" fill="#f3ea80" fill-opacity="1"></path><path d="M192.375 341.53L192.375 395.563L210.063 395.563L210.063 341.53L192.375 341.53Z" class="" fill="#f3ea80" fill-opacity="1"></path><path d="M228.845 341.53L228.845 428.094C217.832 431.888 209.905 442.327 209.905 454.624C209.905 470.13 222.493 482.719 238 482.719C253.507 482.719 266.063 470.129 266.063 454.624C266.063 442.094 257.86 431.484 246.531 427.874L246.531 341.53L228.845 341.53Z" class="" fill="#f3ea80" fill-opacity="1"></path><path d="M266.125 341.53L266.125 395.563L283.813 395.563L283.781 341.531L266.126 341.531Z" class="" fill="#f3ea80" fill-opacity="1"></path><path d="M304.219 341.53L304.219 481.594L321.874 481.594L321.874 341.53L304.22 341.53Z" class="" fill="#f3ea80" fill-opacity="1"></path></g></g></svg>