<svg style="height: 512px; width: 512px;" xmlns="http://www.w3.org/2000/svg" viewBox="0 0 512 512"><rect fill="#000" fill-opacity="1" height="512" width="512" rx="32" ry="32"></rect><g class="" style="" transform="translate(0,0)"><g><path d="M31.93 17.5C46.02 53.9 55.76 96.03 60.77 140.3C102.6 126.7 140 108.6 177.7 85C179.2 62.79 181.7 40.55 185.3 18.28Z" class="" fill="#ffe0af" fill-opacity="1"></path><path d="M203.4 18.37C200.4 36.49 198.2 54.62 196.7 72.74C204.8 67.27 213.1 61.52 221.4 55.52C223.6 40.89 226.3 28.25 229.2 18.5Z" class="" fill="#9b9b9b" fill-opacity="1"></path><path d="M223.3 76.15C168.5 114.7 116.2 142.5 54.47 161C52.15 171 49.51 180.8 50.46 190.4C109.5 173 159.2 144.9 215 104.5C221 95.45 223.3 86.1 223.3 76.15Z" class="" fill="#8b572a" fill-opacity="1"></path><path d="M215.1 126.6C208.1 131.5 201.1 136.3 194.2 140.8C194.4 156.5 194.9 172.2 195.9 187.9C202.6 182.6 209 177.1 215.2 171.3C214.6 156.1 214.6 141.1 215.1 126.6Z" class="" fill="#9b9b9b" fill-opacity="1"></path><path d="M176.4 152.3C140.2 174.8 104.4 192.4 64.65 205C64.79 221.2 64.29 237.5 63.16 253.6C110.3 239.4 147.5 222 178.7 200.5C177.5 184.5 176.7 168.4 176.4 152.3Z" class="" fill="#ffe0af" fill-opacity="1"></path><path d="M225.3 186.3C182.8 225 129.8 253.8 55.32 274.6C49.64 284 46.54 293.9 47.28 304C108.1 279 169.7 261.7 220.3 217.1C224 205.5 225.9 195.8 225.3 186.3Z" class="" fill="#8b572a" fill-opacity="1"></path><path d="M221.9 239.3C215.5 244.4 208.9 249.2 202.1 253.7C205.1 277.1 208.8 300.6 213.1 324C222.7 317 231.1 309.2 238.3 300.5C231 281.9 225.7 261.1 221.9 239.3Z" class="" fill="#9b9b9b" fill-opacity="1"></path><path d="M185.4 264.1C143 288.7 97.59 302.8 54.53 320.5C49.47 337.7 51.24 349 56.06 365.6C113.7 364.5 161.4 354.2 196.8 334.4C192.5 311 188.6 287.6 185.4 264.1Z" class="" fill="#ffe0af" fill-opacity="1"></path><path d="M254.3 309.1C216.4 357.5 148.9 380.9 62.26 383.4C65.45 391.4 69.16 399.5 73.16 407.4C147 397.2 238.8 386.2 286.7 332C279 320.8 266.1 313.6 254.3 309.1Z" class="" fill="#8b572a" fill-opacity="1"></path><path d="M296.7 347.9C285.9 359.6 273.2 369.5 259.1 377.7C241.7 404.7 219.5 429.1 195.3 452.5L244.4 452.9C277.4 420.4 298.9 395.6 313.9 362.4C309 356.3 303.5 351.3 296.7 347.9Z" class="" fill="#8b572a" fill-opacity="1"></path><path d="M38.74 370.4C29.94 393.9 23.49 429.4 34 451.1L77.7 451.5C62.36 427.8 46.89 399 38.74 370.4Z" class="" fill="#8b572a" fill-opacity="1"></path><path d="M326.3 378.4C312.4 405.7 294.1 428.1 269.6 453.2L336.1 453.8C349.3 439 370.6 422.3 375 403.5Z" class="" fill="#ffe0af" fill-opacity="1"></path><path d="M225.2 393.9C179.2 411.3 127.7 419 82.34 424.3C87.94 434.1 93.78 443.4 99.43 451.7L169.5 452.3C189.8 433.3 208.9 414.1 225.2 393.9Z" class="" fill="#ffe0af" fill-opacity="1"></path><path d="M394.1 410C383.2 427.1 374.5 440.6 361.1 454L397.1 454.3C404.3 440.5 410.1 427.7 409.8 416.6C406 412.6 400.5 410.2 394.1 410Z" class="" fill="#8b572a" fill-opacity="1"></path><path d="M427.6 424.4C426.4 435 422.2 445 417.5 454.5L483.2 455.1C468.9 432.6 447.4 422.7 427.6 424.4Z" class="selected" fill="#ffe0af" fill-opacity="1"></path><path d="M30.68 469C21.55 479.2 27.17 482.2 36.49 487.5L479.7 487.5C486 483.9 490.2 479.4 488.2 473Z" class="" fill="#8b572a" fill-opacity="1"></path></g></g></svg>