<svg style="height: 512px; width: 512px;" xmlns="http://www.w3.org/2000/svg" viewBox="0 0 512 512"><rect fill="#000" fill-opacity="1" height="512" width="512" rx="32" ry="32"></rect><g class="" style="" transform="translate(0,0)"><g><path d="M117.725 24.998L147.727 55.002L152.506 55.002C162.767 45.112 176.694 39.002 192 39.002C207.306 39.002 221.233 45.112 231.494 55.002L236.274 55.002L266.275 24.998L117.725 24.998Z" class="selected" fill="#9b9b9b" fill-opacity="1"></path><path d="M192 56.998C170.429 56.923 152.923 74.429 152.998 96C152.923 117.571 170.429 135.077 192 135.002C213.571 135.077 231.077 117.571 231.002 96C231.077 74.429 213.571 56.923 192 56.998Z" class="" fill="#d0021b" fill-opacity="1"></path><path d="M248.955 94.295C248.972 94.863 248.998 95.428 248.998 96C248.998 118.324 236.017 137.729 217.228 147.07L295.028 177.016C295.017 176.678 295.002 176.34 295.002 176C295.002 162.376 303.417 150.584 315.295 145.572L248.955 94.295Z" class="" fill="#9b9b9b" fill-opacity="1"></path><path d="M328 160.998C319.609 160.998 312.998 167.608 312.998 176C312.998 184.391 319.608 191.002 328 191.002C336.391 191.002 343.002 184.392 343.002 176C343.002 167.609 336.392 160.998 328 160.998Z" class="" fill="#d0021b" fill-opacity="1"></path><path d="M312.129 204.885L309.184 230.684L328.754 234.768L334.964 208.244C327.197 209.942 319.077 208.747 312.128 204.884Z" class="" fill="#9b9b9b" fill-opacity="1"></path><path d="M292.131 221.369C282.468 224.955 274.293 230.784 267.994 236.678C256.017 247.884 249.473 260.094 249.473 260.094L265.307 268.65C265.307 268.65 270.671 258.82 280.291 249.82C283.168 247.129 286.315 244.595 289.727 242.432L292.131 221.369Z" class="" fill="#9b9b9b" fill-opacity="1"></path><path d="M347.834 232.227L342.809 253.686C344.869 256.598 346.687 259.687 348.277 262.82C354.426 274.933 356.521 286.316 356.521 286.316L374.234 283.121C374.234 283.121 371.797 269.391 364.326 254.674C360.488 247.113 355.121 238.947 347.834 232.227Z" class="" fill="#9b9b9b" fill-opacity="1"></path><path d="M168.998 296.998L168.998 327.002L199.002 327.002L199.002 296.998L168.998 296.998Z" class="" fill="#8b572a" fill-opacity="1"></path><path d="M296.998 296.998L296.998 327.002L327.002 327.002L327.002 296.998L296.998 296.998Z" class="" fill="#8b572a" fill-opacity="1"></path><path d="M419.32 296.998L419.32 327.002L449.322 327.002L449.322 296.998L419.32 296.998Z" class="" fill="#8b572a" fill-opacity="1"></path><path d="M144 344.998C124 344.998 116.998 356.5 116.998 368C116.998 379.5 124 391.002 144 391.002L150.275 391.002C141.339 387.172 135.002 378.26 135.002 368C135.002 357.74 141.339 348.827 150.275 344.998L144 344.998Z" class="" fill="#4a4a4a" fill-opacity="1"></path><path d="M169.725 344.998C178.661 348.828 184.998 357.74 184.998 368C184.998 378.26 178.661 387.173 169.725 391.002L326.275 391.002C317.339 387.172 311.002 378.26 311.002 368C311.002 357.74 317.339 348.827 326.275 344.998L169.725 344.998Z" class="" fill="#4a4a4a" fill-opacity="1"></path><path d="M345.725 344.998C354.661 348.828 360.998 357.74 360.998 368C360.998 378.26 354.661 387.173 345.725 391.002L495.002 391.002L495.002 344.998L345.725 344.998Z" class="" fill="#4a4a4a" fill-opacity="1"></path><path d="M63.482 360.227L47.246 385.455L72.475 401.691L88.711 376.465L63.482 360.227Z" class="" fill="#8b572a" fill-opacity="1"></path><path d="M160 360.998C156.027 360.998 152.998 364.027 152.998 368C152.998 371.973 156.027 375.002 160 375.002C163.973 375.002 167.002 371.973 167.002 368C167.002 364.027 163.973 360.998 160 360.998Z" class="" fill="#9b9b9b" fill-opacity="1"></path><path d="M336 360.998C332.027 360.998 328.998 364.027 328.998 368C328.998 371.973 332.027 375.002 336 375.002C339.973 375.002 343.002 371.973 343.002 368C343.002 364.027 339.973 360.998 336 360.998Z" class="" fill="#9b9b9b" fill-opacity="1"></path><path d="M199.002 408.998L199.002 496L216.998 496L216.998 408.998L199.002 408.998Z" class="" fill="#9b9b9b" fill-opacity="1"></path><path d="M439.002 408.998L439.002 496L456.998 496L456.998 408.998L439.002 408.998Z" class="" fill="#9b9b9b" fill-opacity="1"></path></g></g></svg>