<svg style="height: 512px; width: 512px;" xmlns="http://www.w3.org/2000/svg" viewBox="0 0 512 512"><rect fill="#000" fill-opacity="1" height="512" width="512" rx="32" ry="32"></rect><g class="" style="" transform="translate(0,0)"><g><path d="M261.563 64.28C153.51 61.149 64.226 147.902 64.25 256C62.902 403.609 221.851 497.325 350.358 424.688C411.09 390.36 448.387 325.759 447.75 256C447.773 152.247 365.271 67.294 261.562 64.28Z" class="" fill="#9b9b9b" fill-opacity="1"></path><path d="M256.938 73.406L265.875 78.562L265.875 88.875L256.937 94.031L248.031 88.876L248.031 78.562L256.938 73.406Z" class="" fill="#000000" fill-opacity="1"></path><path d="M260.468 102.656C343.418 105.073 409.408 173.015 409.407 256C408.981 374.092 280.876 447.438 178.818 388.023C131.795 360.647 102.791 310.411 102.595 256C102.594 169.524 174.031 100.137 260.47 102.656Z" class="" fill="#000000" fill-opacity="1"></path><path d="M248.938 122.686C225.772 123.881 203.317 131.087 183.781 143.594L183.781 368.22C203.299 380.792 225.755 388.062 248.938 389.312L248.938 122.688Z" class="selected" fill="#f5a623" fill-opacity="1"></path><path d="M266.625 123L266.625 389.125C289.302 387.302 311.137 379.72 330.063 367.095L330.063 145C311.134 132.386 289.299 124.814 266.625 123Z" class="" fill="#f5a623" fill-opacity="1"></path><path d="M166.125 157.344C138.329 182.62 122.459 218.43 122.405 256C122.424 293.613 138.297 329.475 166.125 354.78L166.125 157.345Z" class="" fill="#f5a623" fill-opacity="1"></path><path d="M105.405 158.969L114.312 164.124L114.312 174.404L105.406 179.561L96.469 174.405L96.469 164.125L105.405 158.968Z" class="" fill="#000000" fill-opacity="1"></path><path d="M405.905 158.969L414.845 164.124L414.845 174.404L405.905 179.561L397 174.405L397 164.125L405.906 158.968Z" class="" fill="#000000" fill-opacity="1"></path><path d="M347.75 159.062L347.75 353.03C374.439 327.811 389.572 292.719 389.594 256C389.547 219.313 374.416 184.259 347.75 159.062Z" class="" fill="#f5a623" fill-opacity="1"></path><path d="M405.563 332.187L414.5 337.343L414.5 347.655L405.562 352.811L396.656 347.655L396.656 337.343L405.562 332.187Z" class="" fill="#000000" fill-opacity="1"></path><path d="M105.75 332.905L114.688 338.061L114.688 348.374L105.75 353.53L96.812 348.375L96.812 338.062L105.75 332.906Z" class="" fill="#000000" fill-opacity="1"></path><path d="M255.656 418.093L264.594 423.249L264.594 433.562L255.656 438.718L246.75 433.56L246.75 423.25L255.656 418.094Z" class="" fill="#000000" fill-opacity="1"></path></g></g><g class="" style="" transform="translate(256,256)"><g><circle cx="128" cy="128" r="128" fill="#000" fill-opacity="1"></circle><circle stroke="#f5a623" stroke-opacity="1" fill="#000" fill-opacity="1" stroke-width="18" cx="128" cy="128" r="101"></circle><path fill="#f5a623" fill-opacity="1" d="M99.016 83.18c0 27.973 28.984 32.635 28.984 55.946 0 9.325-9.661 23.312-24.153 23.312-14.492 0-24.153-13.987-14.492-37.298-14.491 9.324-19.322 18.649-19.322 27.973 0 23.312 24.153 46.623 57.967 46.623 33.813 0 57.966-13.987 57.966-41.96.216-41.378-49.4-55.2-62.797-74.597-9.66-13.987-4.83-23.311 4.83-32.636-19.321 4.663-28.983 17.717-28.983 32.636z"></path></g></g></svg>