<svg style="height: 512px; width: 512px;" xmlns="http://www.w3.org/2000/svg" viewBox="0 0 512 512"><rect fill="#000" fill-opacity="1" height="512" width="512" rx="32" ry="32"></rect><g class="" style="" transform="translate(0,0)"><g><path d="M485.813 19.125L400.219 47.688C405.759 84.002 401.609 125.402 381.124 170.625C355.617 226.937 305.171 289.155 217.594 356.845L206.344 341.937C292.147 275.58 340.294 215.477 364.094 162.937C381.544 124.407 386.114 89.943 382.904 59.25L170.94 295.063L148.94 265.938L134.033 277.188L157.128 307.75L156.878 307.938L191.098 352.906C191.12 352.888 191.136 352.862 191.158 352.844L202.972 368.469L203.94 369.843L210.783 378.813L189.783 413.968L205.815 423.56L230.032 383L233.282 377.594L233.156 377.438C382.348 278.441 516.936 142.998 485.812 19.125Z" class="" fill="#c9c9c9" fill-opacity="1"></path><path d="M458.406 230.688C455.211 275.271 445.826 294.783 436.531 308.718C431.868 315.712 427.001 322.682 427.001 331.75C427.001 349.893 441.389 364.844 459.531 364.844C477.675 364.844 492.657 349.894 492.657 331.75C492.657 321.686 486.341 314.596 480.877 307.03C471.16 293.572 462.3 274.142 458.407 230.688Z" class="" fill="#d0021b" fill-opacity="1"></path><path d="M373.376 313.844C369.189 372.234 356.859 397.782 344.688 416.031C338.578 425.195 332.218 434.311 332.218 446.189C332.218 469.949 351.083 489.532 374.844 489.532C398.604 489.532 418.219 469.95 418.219 446.19C418.219 433.008 409.936 423.723 402.779 413.815C390.055 396.189 378.474 370.76 373.374 313.845Z" class="" fill="#d0021b" fill-opacity="1"></path><path d="M142.03 319.28C137.175 323.114 132.36 327.014 127.625 331C130.985 340.22 135.175 351.726 139.5 363.72C142.9 373.143 146.137 382.264 149.094 390.625C157.994 381.502 167.136 372.872 176.594 364.75L142.031 319.28Z" class="" fill="#8b572a" fill-opacity="1"></path><path d="M112.5 344.156C105.172 350.752 98.003 357.539 90.97 364.5L115.97 428.094C122.116 420.467 128.36 413.106 134.72 406C134.668 405.855 134.645 405.74 134.594 405.594C131.124 395.684 126.504 382.807 121.906 370.064C118.483 360.57 115.442 352.244 112.5 344.156Z" class="" fill="#8b572a" fill-opacity="1"></path><path d="M76.656 379.126C68.294 387.939 60.136 397.014 52.186 406.344L84.376 470.624C90.402 461.904 96.458 453.414 102.626 445.219L76.656 379.124Z" class="" fill="#8b572a" fill-opacity="1"></path><path d="M39.156 422.094C32.676 430.151 26.332 438.384 20.126 446.781C22.321 473.571 45.93 492.883 66.219 497.845C68.261 494.665 70.322 491.528 72.374 488.407L39.154 422.095Z" class="selected" fill="#8b572a" fill-opacity="1"></path></g></g></svg>