<svg style="height: 512px; width: 512px;" xmlns="http://www.w3.org/2000/svg" viewBox="0 0 512 512"><rect fill="#000" fill-opacity="1" height="512" width="512" rx="32" ry="32"></rect><g class="" style="" transform="translate(0,0)"><path d="M196 496c-16.62 0-30-13.38-30-30V346H46c-16.62 0-30-13.38-30-30V196c0-16.62 13.38-30 30-30h120V46c0-16.62 13.38-30 30-30h120c16.62 0 30 13.38 30 30v120h120c16.62 0 30 13.38 30 30v120c0 16.62-13.38 30-30 30H346v120c0 16.62-13.38 30-30 30zm0-135h120l-60-60zm0-75h120l-60-60zm0-75h120l-60-60z" fill="#b8e986" fill-opacity="1"></path></g></svg>