<svg style="height: 512px; width: 512px;" xmlns="http://www.w3.org/2000/svg" viewBox="0 0 512 512"><rect fill="#000" fill-opacity="1" height="512" width="512" rx="32" ry="32"></rect><g class="" style="" transform="translate(0,0)"><g><path d="M305.6 17.3C298.5 17.3 291.6 19.1 286.4 22.8C281.3 26.7 277.2 32.5 274.1 39.8C264.5 67.4 266.2 93.7 266 122.7L266 122.8L247.3 122.8L247.3 122.7C247 96.1 248.5 62.4 239.2 39.8C236.1 32.5 232 26.7 226.9 22.8C215.9 16 193 14.2 182.9 25.2C179.3 29.5 177.4 35.3 182.8 47.4C188.6 56.2 193.2 68.3 197.2 83.8L179 88.5C172.3 62.2 163.9 51.6 158.2 49.1C143.6 44.2 118.9 66.8 119.2 79.5C123.1 93.5 134.5 100.9 147.2 106.9L139.2 123.8C134.1 121.3 129.6 118.8 125.5 116.2C110.8 108.1 100 104.6 94.2 105.1C80.27 106.6 73.17 137.9 78 146.4C80.4 150.3 86.5 154.5 100.9 155.9C105.7 155.7 109.5 156.6 113.7 156.5L113.9 175.2C109.6 175.2 105.6 175.1 101.8 174.8C89.7 174.7 82.5 175.7 79.5 177.2C73.05 183 71.13 195.7 74 203.5C75.1 206 76.6 207.9 80.3 209.9C87.7 213.9 104.7 216.4 132.9 214L134.5 232.6C112.9 234.4 96.6 234.1 84.1 231C82.3 249.5 100.1 257.8 117 258.1L220.8 258.1C232.9 258.1 243.4 249.2 247.5 233L255.5 201L265.5 232.5C270.8 249.1 281.7 258.1 292.4 258.1L396.2 258.1C402.5 258.1 414.6 254.2 421.8 247.9C426.7 243.3 430.5 237.2 429.3 230.8C416.7 234.1 400.2 234.5 377.9 232.6L379.5 214C407.7 216.4 424.6 213.9 432 209.9C440.1 202.8 442.9 182.1 432.8 177.2C429.9 175.7 422.6 174.7 410.6 174.8C406.8 175.1 402.8 175.2 398.5 175.2L398.7 156.5C403 156.3 407.5 156 411.5 155.9C425.9 154.5 432 150.3 434.3 146.4C439.5 133.6 429.5 106.4 418.2 105.1C412.4 104.6 401.6 108.1 386.9 116.2C382.8 118.8 378.3 121.3 373.2 123.8L365.2 106.9C370.3 104.7 373.9 102.1 378.2 99.6C389.7 91.94 393 84.9 393.3 79.4C392.3 65.6 367.5 43.2 354.3 49.1C352.3 49.9 350 51.8 347.5 55C341.1 65.1 335.9 78.7 333.3 88.4L315.3 83.8C319.7 66.5 324.9 53.4 331.6 44.4C335.5 34.4 333.7 29.1 330.4 25.2C324.2 20.1 314.8 17.3 305.6 17.3Z" class="" fill="#fc88fc" fill-opacity="1"></path><path d="M96.18 282C78.98 282 63.69 300.4 63.69 324.5C63.69 336.9 67.78 347.9 73.98 355.5L80.18 363.3L70.28 364.8C60.89 366.3 54.49 370.8 49.19 377.9C43.89 385 39.99 394.8 37.59 406.3C32.89 427.2 32.78 446.9 32.78 469.3L58.69 469.3L59.89 494L130.5 494L131.9 469.3L159.2 469.3C159.1 447.2 158 427.8 152.9 407C150.1 395.7 146.2 385.8 140.9 378.6C135.8 371.5 129.5 367 121 365.4L111.3 363.6L117.7 356.1C124.1 348.3 128.5 337.2 128.5 324.5C128.5 301.8 114.8 284.1 99.38 282Z" class="" fill="#70a0be" fill-opacity="1"></path><path d="M256.2 282C239 282 223.7 300.4 223.7 324.5C223.7 336.9 227.8 347.9 234 355.5L240.2 363.3L230.3 364.8C220.9 366.3 214.5 370.8 209.2 377.9C203.9 385 200 394.8 197.6 406.3C192.9 427.2 192.8 446.9 192.8 469.3L218.7 469.3L219.9 494L290.5 494L291.9 469.3L319.2 469.3C319.1 447.2 318 427.8 312.9 407C310.1 395.7 306.2 385.8 300.9 378.6C295.8 371.5 289.5 367 281 365.4L271.3 363.6L277.7 356.1C284.1 348.3 288.5 337.2 288.5 324.5C288.5 301.8 274.8 284.1 259.4 282Z" class="" fill="#70a0be" fill-opacity="1"></path><path d="M416.2 282C399.1 282 383.8 300.4 383.8 324.5C383.8 336.9 387.9 347.9 394.1 355.5L400.3 363.3L390.4 364.8C381 366.3 374.5 370.8 369.2 377.9C363.9 385 360 394.8 357.6 406.3C352.9 427.2 352.8 446.9 352.8 469.3L378.7 469.3L379.9 494L450.6 494L452 469.3L479.2 469.3C479.1 447.2 478 427.8 473 407C470.2 395.7 466.2 385.8 460.9 378.6C455.8 371.5 449.5 367 441.1 365.4L431.4 363.6L437.7 356.1C444.1 348.3 448.5 337.2 448.5 324.5C448.5 301.8 434.8 284.1 419.4 282Z" class="selected" fill="#70a0be" fill-opacity="1"></path></g></g></svg>