<svg style="height: 512px; width: 512px;" xmlns="http://www.w3.org/2000/svg" viewBox="0 0 512 512"><rect fill="#000" fill-opacity="1" height="512" width="512" rx="32" ry="32"></rect><g class="" style="" transform="translate(80,0)"><g><path d="M274.663 63.02L90.792 80.26L244.985 99.533C250.048 86.194 257.937 75.192 267.526 67.705C269.773 65.951 272.16 64.385 274.663 63.022Z" class="" fill="#fff" fill-opacity="1"></path><path d="M294.495 75.823C289.403 75.989 284.003 78.119 278.616 82.325C270.781 88.443 263.607 98.9 259.786 112.013C255.965 125.125 256.309 138.112 259.497 147.94C262.685 157.769 268.227 164.011 275.13 166.335C282.033 168.659 289.896 166.931 297.731 160.813C305.566 154.696 312.741 144.239 316.561 131.126C320.383 118.013 320.041 105.026 316.853 95.198C313.664 85.37 308.123 79.128 301.22 76.804C299.055 76.076 296.777 75.744 294.495 75.824Z" class="" fill="#fff" fill-opacity="1"></path><path d="M461.345 85.308C437.232 99.257 415.152 105.606 374.112 102.56L340.48 228.452C339.805 231.134 340.162 234.452 342.402 239.322C344.645 244.198 348.757 250.212 354.238 256.929C364.228 269.171 378.765 284.089 393.811 301.167C408.371 295.667 422.041 288.339 432.783 280.977C444.624 272.864 453.017 264.027 454.748 261.038L496.775 142.818C480.027 128.205 467.304 108.844 461.345 85.308Z" class="" fill="#000000" fill-opacity="1"></path><path d="M173.275 136.569L23.652 158.331L112.961 171.319L115.119 166.267Z" class="" fill="#fff" fill-opacity="1"></path><path d="M459.54 138.894L476.481 144.972L437.358 254.009L400.146 273.19L391.899 257.192L422.812 241.259Z" class="" fill="#000000" fill-opacity="1"></path><path d="M199.698 143.288L129.112 179.331L99.89 247.753L119.108 256.562L144.013 198.798L203.312 175.825L188.61 251.78L187.647 253.257C154.922 303.437 115.993 346.667 69.183 387.537L42.722 432.98L59.743 440.225L91.618 396.236L92.998 395.33C138.474 365.458 168.928 332.997 205.253 300.838L209.786 296.826L215.212 299.512C238.577 311.083 258.146 323.629 277.319 337.217L286.243 343.541L217.237 409.184L241.886 448.978L259.556 438.67L239.478 410.193L247.702 405.189C277.586 387.003 297.688 365.759 319.64 339.15C295.987 303.55 277.634 289.717 248.048 267.883L257.956 260.656C292.659 235.344 296.088 206.18 299.566 181.207C290.363 185.648 280.068 186.979 270.093 183.621C256.605 179.081 247.169 167.149 242.628 153.148C242.458 152.626 242.307 152.094 242.149 151.564Z" class="" fill="#fff" fill-opacity="1"></path><path d="M316.318 188.328C314.963 195.355 312.994 202.498 310.226 209.677L324.282 219.343L330.22 197.12Z" class="selected" fill="#000000" fill-opacity="1"></path><path d="M142.075 285.804L15.225 303.757L114.895 317.862C124.327 307.497 133.393 296.805 142.075 285.804Z" class="" fill="#fff" fill-opacity="1"></path><path d="M233.856 368.534L137.964 389.966L197.37 403.243Z" class="" fill="#fff" fill-opacity="1"></path></g></g></svg>