<svg style="height: 512px; width: 512px;" xmlns="http://www.w3.org/2000/svg" viewBox="0 0 512 512"><rect fill="#000" fill-opacity="1" height="512" width="512" rx="32" ry="32"></rect><g class="" style="" transform="translate(0,0)"><g><path d="M345.2 17.46C344.7 25.24 343.9 33.83 341.7 40.17C345.4 42.06 348.7 44.09 351.8 46.37C355.777 40.79 360.681 35.933 366.3 32.01C358.1 27.62 351.5 23.12 345.2 17.46Z" class="" fill="#4a90e2" fill-opacity="1"></path><path d="M336.4 55.58C333.5 68.03 334.9 81.48 340.7 92.46C355.8 110.9 372.2 121.2 393.2 115.2L391.9 104.7C396.6 103.9 401.5 104.3 405.5 105.6C406.9 100.2 404.6 92.19 400.8 88.13C392.8 88.13 384.2 89.76 377.3 89.9C370.5 89.9 362.8 89.06 356.2 84.49C349.5 79.92 344.8 71.74 343.6 60.97C341.2 58.37 339.5 57.29 336.4 55.58Z" class="" fill="#4a90e2" fill-opacity="1"></path><path d="M298.9 76.84C286.5 110.1 280.2 145.6 290.2 178.6C294.6 177.8 299 176.9 303.4 175.8C297.8 158.4 296.5 141.8 296.8 123.4C297 109.6 298.1 94.45 298.9 76.84Z" class="" fill="#9b9b9b" fill-opacity="1"></path><path d="M400.8 154.9C366.8 170.9 331.9 186.9 294.5 193.9C297.4 206.1 296.3 215.1 293.6 224.4C309.9 234.4 334.9 256.1 352.5 250.2C370.1 241 373.5 204.2 373.7 187.5C388.6 171.5 400.4 168.9 400.8 154.9Z" class="selected" fill="#9b9b9b" fill-opacity="1"></path><path d="M244.1 171.7C230.2 172 217.8 179.3 209.8 192.2C195.7 204.5 197.3 224.3 202.2 243.9C207 233.4 212.3 226.9 219.3 224.7C230.8 238.8 248 251 260.5 244.9L344.4 323.3C312.6 367.8 260.2 397.3 219.7 418.5C190.7 433.6 159.9 444.4 130 448.1C148.7 462.7 175.8 471.6 211 459C321.5 419.6 399.4 372 393.7 340.8C387.9 309.3 367.4 286.7 340.4 267.2C314.3 261.2 295.5 244 274.7 231.3C282.1 210.6 278.7 195.4 273.9 182C266.1 174 254.3 171.7 244.1 171.7Z" class="" fill="#8b7551" fill-opacity="1"></path><path d="M245.8 190.4L261.8 192C260 208.2 257.2 215.8 242.7 222.3C249.3 207.6 248.7 204.1 245.8 190.4Z" class="" fill="#000000" fill-opacity="1"></path><path d="M262.7 324.3C228.8 325 199.2 335.3 171.8 350.1C132.6 371.2 98.7 401.8 66.05 426.5C108 441.6 162.2 430.4 212.3 404.3C261 378.9 299.1 353.8 317.9 331.3C298.6 326.8 280.3 324.3 262.7 324.3Z" class="" fill="#8b7551" fill-opacity="1"></path><path d="M253.4 458.6L241.6 463.3C237.6 473.9 232.3 484.7 227.2 494.1L335.6 494.5C329.8 489.7 322.5 481.1 321.9 475.1C290.5 474.6 273.7 476.9 246.2 482.4C248.6 474.5 251.1 465.8 253.4 458.6Z" class="" fill="#f5a623" fill-opacity="1"></path></g></g></svg>