<svg style="height: 512px; width: 512px;" xmlns="http://www.w3.org/2000/svg" viewBox="0 0 512 512"><defs><filter id="shadow-2" height="300%" width="300%" x="-100%" y="-100%"><feFlood flood-color="rgba(248, 231, 28, 1)" result="flood"></feFlood><feComposite in="flood" in2="SourceGraphic" operator="atop" result="composite"></feComposite><feGaussianBlur in="composite" stdDeviation="15" result="blur"></feGaussianBlur><feOffset dx="0" dy="0" result="offset"></feOffset><feComposite in="SourceGraphic" in2="offset" operator="over"></feComposite></filter></defs><rect fill="#000" fill-opacity="1" height="512" width="512" rx="32" ry="32"></rect><g class="" style="" transform="translate(0,0)"><g><path d="M19.97 17.375L67.406 92.375L75.876 106.063L75.906 105.813L220.22 334L223.625 255.72L328.938 407.094L331.375 338.188L345.875 352.25L347.031 353.375L491.971 495.625L335.407 191.845L333.251 261.281L209.438 137.376L207.345 183.751L19.97 17.375Z" class="selected" fill="#fbf5ab" fill-opacity="1" filter="url(#shadow-2)"></path><path d="M466.47 18.905C465.947 18.91 465.407 18.935 464.875 18.969C458.809 19.341 452.079 21.677 444.969 26.719C451.647 28.972 458.052 32.469 463.811 36.655C473.886 43.975 482.634 53.717 487.405 64.937C497.595 48.819 493.893 34.977 485.655 26.78C480.917 22.067 474.295 18.857 466.468 18.906Z" class="" fill="#000000" fill-opacity="1"></path><path d="M404.343 42.72L93.5 57.843L113.563 75.561L392.188 62C395.646 55.562 399.685 49.125 404.344 42.72Z" class="" fill="#000000" fill-opacity="1"></path><path d="M428.123 42.813C423.851 47.693 420.066 52.595 416.686 57.5C427.306 58.642 437.773 63.43 446.686 69.906C454.179 75.35 460.912 82.159 465.843 89.906C467.883 87.368 470.12 84.776 472.563 82.126C472.083 72.388 463.973 59.836 452.843 51.75C444.657 45.803 435.573 42.66 428.123 42.812Z" class="" fill="#000000" fill-opacity="1"></path><path d="M411.843 76.063C411.357 76.056 410.878 76.073 410.405 76.093C408.607 76.173 406.9 76.488 405.343 76.969C388.879 111.022 389.213 144.367 388.093 171.999C387.291 191.794 385.743 210.879 376.78 232.499L408.78 294.562C437.296 249.762 443.675 209.688 444.938 178.562C445.815 156.919 444.476 141.42 447.875 125.499C449.115 119.694 451.061 114.021 453.905 108.249C451.025 100.071 444.273 91.246 435.719 85.029C427.842 79.309 419.132 76.157 411.843 76.061Z" class="" fill="#000000" fill-opacity="1"></path><path d="M56.843 110.843L37.25 408.782C43.743 403.67 50.284 399.174 56.844 395.19L73.78 138.125L56.844 110.845Z" class="" fill="#000000" fill-opacity="1"></path><path d="M267.123 350.563C235.595 369.113 207.696 374.473 178.686 378.843C150.256 383.126 119.131 386.233 87.811 399.937C95.055 404.781 101.306 411.525 106.218 418.937C112.336 428.173 116.768 438.857 118.061 449.687C121.791 448.122 125.543 446.765 129.341 445.594C148.091 439.812 167.451 438.099 191.561 434.469C223.205 429.703 260.485 421.739 300.936 398.155L267.123 350.561Z" class="" fill="#000000" fill-opacity="1"></path><path d="M66.25 411.219C61.566 414.093 56.876 417.269 52.22 420.779C62.875 425.322 71.91 434.132 78.53 444.124C83.18 451.14 86.837 458.984 88.906 467.094C92.428 464.312 95.919 461.814 99.406 459.561C100.209 450.548 96.989 438.838 90.656 429.281C83.896 419.077 74.453 412.267 66.25 411.218Z" class="" fill="#000000" fill-opacity="1"></path><path d="M35.344 435.124C34.187 436.228 33.028 437.346 31.874 438.499C13.426 456.947 17.208 474.273 27.688 484.655C37.786 494.66 54.46 498.395 71.906 482.405C72.013 473.758 68.768 463.189 62.969 454.435C55.321 442.895 44.239 435.675 35.405 436.249L35.343 435.124Z" class="" fill="#000000" fill-opacity="1"></path></g></g></svg>