<svg style="height: 512px; width: 512px;" xmlns="http://www.w3.org/2000/svg" viewBox="0 0 512 512"><rect fill="#000" fill-opacity="1" height="512" width="512" rx="32" ry="32"></rect><g class="" style="" transform="translate(0,0)"><g><path d="M345.688 65.844C310.07 66.344 273.158 84.03 246.875 121.438C256.948 141.636 261.195 164.278 257.938 187.594L239.405 185C245.981 137.933 216.425 93.393 166.435 72.72C97.079 49.46 16.635 90.49 19.593 183.22C23.927 318.958 218.186 398.093 239.093 476.125C246.513 448.441 281.721 417.723 321.78 382.937C318.93 383.447 315.998 383.719 313 383.719C279.742 383.719 254.844 351.177 254.844 313.529C254.844 275.883 279.744 243.374 313 243.374C328.437 243.374 342.067 250.408 352.25 261.687L380.312 261.687L380.312 242.624L353.72 242.624L353.72 223.936L425.625 223.936L425.625 242.624L399.03 242.624L399.03 261.687L433.469 261.687L433.469 265.53C449.187 239.917 458.857 212.552 457.936 183.22C455.61 109.114 404.396 66.787 349.124 65.844C347.978 65.824 346.834 65.828 345.686 65.844Z" class="" fill="#d0021b" fill-opacity="1"></path><path d="M313 262.064C292.322 262.062 273.53 283.992 273.53 313.531C273.53 343.071 292.322 365.031 313 365.031C324.58 365.031 335.595 358.154 343.03 346.907L326.813 346.907C315.723 346.907 306.317 342.745 300.469 336.001C294.619 329.257 292.419 320.611 292.936 312.407C293.454 304.205 296.586 296.177 302.343 289.845C308.099 283.513 316.823 279.095 326.813 279.095L342.28 279.095C334.866 268.499 324.202 262.065 313 262.065Z" class="" fill="#9b9b9b" fill-opacity="1"></path><path d="M364.563 280.374L364.563 343.281L414.781 343.281L414.781 280.376L364.564 280.376Z" class="" fill="#9b9b9b" fill-opacity="1"></path><path d="M326.813 297.781C321.99 297.781 318.805 299.528 316.188 302.407C313.57 305.287 311.851 309.517 311.594 313.595C311.337 317.672 312.454 321.315 314.594 323.782C316.732 326.249 319.994 328.222 326.814 328.222L345.874 328.222L345.874 297.782L326.812 297.782Z" class="" fill="#9b9b9b" fill-opacity="1"></path><path d="M433.469 297.939L433.469 328.5C443.935 329.767 448.843 335.682 448.843 347.25L448.843 381.5L479.28 381.5L479.28 347.25C479.28 319.84 465.51 299.98 433.47 297.937Z" class="" fill="#9b9b9b" fill-opacity="1"></path><path d="M463.436 401.157C458.206 444.517 438.916 438.84 438.53 466.157C438.363 478.537 449.96 488.782 464.344 488.782C478.726 488.782 490.594 478.542 490.594 466.158C490.594 438.703 469.21 444.348 463.438 401.158Z" class="selected" fill="#d0021b" fill-opacity="1"></path></g></g></svg>