<svg style="height: 512px; width: 512px;" xmlns="http://www.w3.org/2000/svg" viewBox="0 0 512 512"><rect fill="#000" fill-opacity="1" height="512" width="512" rx="32" ry="32"></rect><g class="" style="" transform="translate(0,0)"><g><path d="M173.625 15.72L189.781 69.53L95.407 20.625L158.47 98.25L45.187 117.406L158.467 137.031L98.749 212.221L163.779 178.814L161.999 237.657L181.843 200.313L181.843 136.095L182.593 134.345L214.499 59.595L173.624 15.72Z" class="selected" fill="#ffffff" fill-opacity="1"></path><path d="M319.875 15.72L282.97 55.343L316.312 134.373L317.062 136.123L317.062 205.846L332.562 235.033L330.937 180.597L396.469 214.659L333.405 137.034L446.685 117.41L333.405 98.254L396.468 20.629L304.028 68.535L319.873 15.725Z" class="" fill="#ffffff" fill-opacity="1"></path><path d="M249.28 23.56L200.094 138.06L200.094 291.56L235.03 326.5C237.946 261.065 243.006 197.564 250.28 138.78C257.886 200.213 263.024 267.555 265.812 336.78L298.437 304.156L298.437 138.062L249.281 23.562Z" class="" fill="#c9c9c9" fill-opacity="1"></path><path d="M33.126 206.845L70.47 300.907L264.375 494.845L295.188 494.845C228.848 426.342 166.705 355.843 114.563 288.97C189.268 347.216 269.667 419.303 345.875 494.844L376.938 494.844L126.813 244.688L33.125 206.844Z" class="" fill="#c9c9c9" fill-opacity="1"></path><path d="M477.97 206.845L384.344 244.657L268.75 360.25L286.906 378.375C323.184 346.273 359.221 316.11 394.031 288.969C366.729 323.984 336.671 359.989 304.721 396.186L325.06 416.5L440.592 300.97L477.967 206.844Z" class="" fill="#c9c9c9" fill-opacity="1"></path><path d="M186.06 442.938L134.154 494.844L162.748 494.844C175.344 482.358 188.062 469.969 200.842 457.719L186.062 442.936Z" class="" fill="#c9c9c9" fill-opacity="1"></path><path d="M225.435 482.344C221.44 486.517 217.432 490.684 213.405 494.844L237.935 494.844L225.435 482.344Z" class="" fill="#c9c9c9" fill-opacity="1"></path></g></g></svg>