<svg style="height: 512px; width: 512px;" xmlns="http://www.w3.org/2000/svg" viewBox="0 0 512 512"><rect fill="#000" fill-opacity="1" height="512" width="512" rx="32" ry="32"></rect><g class="" style="" transform="translate(0,0)"><g><path d="M144 26.43L76.99 65.1L76.99 142.5L97.08 154.1L136.4 91.23L151.6 100.8L112.7 163.1L144 181.2L211 142.5L211 131L301 131L301 142.5L368 181.2L399.3 163.1L360.4 100.8L375.6 91.23L414.9 154.1L435 142.5L435 65.13L368 26.43L301 65.1L301 77L211 77L211 65.13Z" class="" fill="#c9c9c9" fill-opacity="1"></path><path d="M211 95L301 95L301 113L211 113Z" class="" fill="#000000" fill-opacity="1"></path><path d="M233 185L233 253.3L247 274.3L247 480L265 480L265 274.3L279 253.3L279 185Z" class="selected" fill="#b8e986" fill-opacity="1"></path><path d="M215.4 259.2L118 332.3L151.2 482L168.8 478L138 339.7L225.3 274.2Z" class="" fill="#b8e986" fill-opacity="1"></path><path d="M296.6 259.2L286.7 274.2L374 339.7L343.2 478L360.8 482L394 332.3Z" class="" fill="#b8e986" fill-opacity="1"></path></g></g></svg>