<svg style="height: 512px; width: 512px;" xmlns="http://www.w3.org/2000/svg" viewBox="0 0 512 512"><rect fill="#000" fill-opacity="1" height="512" width="512" rx="32" ry="32"></rect><g class="" style="" transform="translate(0,0)"><g><path d="M216.242 23.555C214.728 23.513 213.168 23.68 211.654 23.68C179.321 23.68 152.998 57.058 152.998 98.416C152.998 119.358 159.968 138.256 170.811 151.856C103.738 162.259 105.201 267.574 105.201 340.432L145.611 340.432L155.603 492.074L234.013 492.074L224.517 340.724L183.937 340.724C183.937 267.868 182.652 162.369 249.727 151.969C238.885 138.367 231.897 119.419 231.897 98.479C231.897 76.342 239.37 56.599 251.271 43.019C242.236 32.396 230.604 25.349 217.739 23.679C217.247 23.604 216.749 23.569 216.243 23.554Z" class="" fill="#9b9b9b" fill-opacity="1" stroke="#ccc" stroke-opacity="1" stroke-width="8"></path><path d="M294.945 23.957C293.412 23.917 291.819 24.082 290.305 24.082L290.305 492.59L342.565 492.59L354.248 340.725L396.67 340.725C396.67 268.071 391.67 164.752 330.268 153.199C341.596 139.534 349.328 119.951 349.328 98.479C349.328 59.702 325.978 27.919 296.453 24.081C295.961 24.007 295.456 23.971 294.945 23.956Z" class="selected" fill="#9013fe" fill-opacity="1" stroke="#390369" stroke-opacity="1" stroke-width="8"></path></g></g></svg>