<svg style="height: 512px; width: 512px;" xmlns="http://www.w3.org/2000/svg" viewBox="0 0 512 512"><rect fill="#000" fill-opacity="1" height="512" width="512" rx="32" ry="32"></rect><g class="" style="" transform="translate(0,0)"><g><path d="M65.125 18.344C47.11 49.844 36.72 86.262 36.72 125.124C36.72 205.417 80.693 275.621 145.844 312.874C146.247 305.97 146.764 299.041 147.469 292.124C92.139 257.159 55.405 195.448 55.405 125.124C55.405 85.698 67.035 49.16 86.968 18.344L65.124 18.344Z" class="" fill="#bd10e0" fill-opacity="1"></path><path d="M134.155 18.344C108.545 46.617 92.781 83.979 92.781 125.124C92.781 176.204 116.833 221.78 154.221 251.094L154.281 250.844C155.893 244.234 157.754 237.836 159.971 231.719C130.241 205.823 111.471 167.693 111.471 125.124C111.471 82.276 130.725 44.287 160.907 18.344L134.157 18.344Z" class="" fill="#bd10e0" fill-opacity="1"></path><path d="M344.687 18.344C374.812 44.294 394.125 82.347 394.125 125.124C394.125 166.276 376.579 203.281 348.562 229.094C350.822 235.376 352.678 241.97 354.219 248.781C389.967 219.415 412.811 174.898 412.811 125.126C412.811 84.003 397.001 46.626 371.405 18.346L344.685 18.346Z" class="" fill="#bd10e0" fill-opacity="1"></path><path d="M418.094 18.344C438.154 49.211 450.188 85.731 450.188 125.124C450.188 194.581 414.368 255.629 360.188 290.814C360.733 297.851 361.121 304.921 361.375 311.937C425.642 274.454 468.905 204.757 468.905 125.125C468.905 86.2 458.16 49.797 440.031 18.345L418.095 18.345Z" class="" fill="#bd10e0" fill-opacity="1"></path><path d="M252.781 20.624C195.156 20.624 148.251 67.53 148.251 125.156C148.251 153.762 159.811 179.729 178.501 198.626C182.631 193.914 187.341 189.809 192.595 186.436C176.751 170.876 166.939 149.199 166.939 125.156C166.939 77.629 205.255 39.312 252.782 39.312C300.31 39.312 338.627 77.629 338.627 125.156C338.627 148.316 329.519 169.27 314.689 184.686C320.177 187.826 325.083 191.719 329.377 196.219C346.704 177.553 357.315 152.562 357.315 125.155C357.315 67.529 310.41 20.625 252.783 20.625Z" class="" fill="#bd10e0" fill-opacity="1"></path><path d="M248.595 76.188C226.973 78.988 207.625 104.098 207.625 136.468C207.625 154.314 213.798 170.121 222.907 181.063L233.095 193.281L217.439 196.221C205.555 198.447 196.819 204.733 189.407 214.876C181.997 225.019 176.384 239.092 172.437 255.282C165.249 284.782 163.701 320.78 163.47 352.408L202.469 352.408L203.124 361.064L213.03 493.564L296.72 493.564L305.47 361.127L306.062 352.407L343.187 352.407C343.167 320.407 342.797 283.917 336.281 254.19C332.711 237.893 327.289 223.85 319.781 213.815C312.276 203.78 303.127 197.527 289.814 195.471L273.875 193L283.969 180.375C292.682 169.485 298.561 153.88 298.561 136.469C298.561 101.954 276.903 76.249 253.093 76.249C250.421 76.249 248.818 76.157 248.593 76.186Z" class="selected" fill="#b8e986" fill-opacity="1"></path></g></g></svg>