<svg style="height: 512px; width: 512px;" xmlns="http://www.w3.org/2000/svg" viewBox="0 0 512 512"><rect fill="#000" fill-opacity="1" height="512" width="512" rx="32" ry="32"></rect><g class="" style="" transform="translate(0,0)"><g><path d="M218.195 28.5L231.945 138.5L280.055 138.5L293.805 28.5Z" class="" fill="#9b9b9b" fill-opacity="1"></path><path d="M311.264 33.959L295.945 156.5L216.055 156.5L200.754 34.08C183.364 43.273 167.207 56.771 153 73.975L153 220.5L97.623 220.5C96.603 230.803 96.061 241.147 96 251.5C96 379.63 167.634 483.5 256 483.5C327.065 483.438 389.586 415.417 409.496 316.5L402.125 316.5L370.125 332.5L300.434 332.5L263 297.3L263 234.5L399 234.5L399 250.5L415.965 250.5C415.63 153.72 373.897 67.407 311.264 33.959Z" class="" fill="#85a5c8" fill-opacity="1"></path><path d="M256 42.5C269.7 42.5 281 53.8 281 67.5C281 81.2 269.7 92.5 256 92.5C242.3 92.5 231 81.2 231 67.5C231 53.8 242.3 42.5 256 42.5Z" class="" fill="#000000" fill-opacity="1"></path><path d="M256 60.5C252.027 60.5 249 63.527 249 67.5C249 71.473 252.027 74.5 256 74.5C259.973 74.5 263 71.473 263 67.5C263 63.527 259.973 60.5 256 60.5Z" class="selected" fill="#d0021b" fill-opacity="1"></path><path d="M135 100.135C117.562 129.463 105.463 164.655 99.809 202.5L135 202.5Z" class="" fill="#9b9b9b" fill-opacity="1"></path><path d="M320 249.515L288 297.515L302.977 307.5L334.977 259.5Z" class="" fill="#4a4a4a" fill-opacity="1"></path><path d="M368 249.515L336 297.515L350.977 307.5L382.977 259.5Z" class="" fill="#4a4a4a" fill-opacity="1"></path><path d="M144 266.5L224 266.5L224 284.5L216.955 284.5C216.497 290.984 211.652 295.05 207.338 297.207C202.805 299.474 197.634 300.5 192 300.5C186.366 300.5 181.195 299.474 176.662 297.207C172.348 295.05 167.503 290.984 167.045 284.5L144 284.5Z" class="" fill="#000000" fill-opacity="1"></path><path d="M409 268.5L409 298.5L439 298.5L439 268.5Z" class="" fill="#4a4a4a" fill-opacity="1"></path><path d="M192 394.5L320 394.5L320 412.5L192 412.5Z" class="" fill="#000000" fill-opacity="1"></path><path d="M240 426.5L272 426.5L272 444.5L240 444.5Z" class="" fill="#000000" fill-opacity="1"></path></g></g></svg>