<svg style="height: 512px; width: 512px;" xmlns="http://www.w3.org/2000/svg" viewBox="0 0 512 512"><rect fill="#000" fill-opacity="1" height="512" width="512" rx="32" ry="32"></rect><g class="" style="" transform="translate(0,0)"><g><path d="M256 41C226.97 41 199.838 52.49 177.62 72.12C179.23 73.632 180.812 75.142 182.334 76.61C192.157 86.08 200.72 93.844 209.297 95.094C214.301 95.824 220.365 93.648 228.012 90.144C235.659 86.641 244.578 81.87 255.632 81.85C266.795 81.83 275.839 86.61 283.607 90.13C291.377 93.652 297.562 95.852 302.687 95.096C311.27 93.829 319.84 86.056 329.667 76.59C331.187 75.126 332.762 73.62 334.371 72.11C312.156 52.488 285.027 41 256 41Z" class="" fill="#b57204" fill-opacity="1"></path><path d="M143.572 72.99C141.977 72.914 137.694 75.033 134.362 78.363C130.224 82.503 125.612 87.387 122.877 91.758C120.141 96.128 119.674 98.86 120.412 100.801C124.016 110.281 133.34 114.949 147.568 118.356C161.796 121.764 179.238 122.992 194.473 127.346C214.963 133.203 235.513 138.286 255.525 138.314C275.865 138.34 296.747 133.258 317.537 127.344C332.77 123.012 350.209 121.781 364.434 118.37C378.658 114.958 387.984 110.282 391.588 100.8C392.326 98.86 391.858 96.128 389.123 91.758C386.387 87.388 381.776 82.502 377.637 78.363C374.307 75.033 370.023 72.913 368.427 72.99C359.964 73.392 351.824 80.234 342.154 89.55C332.484 98.867 321.618 110.498 305.314 112.904C293.914 114.587 284.276 110.197 276.176 106.524C268.076 102.854 261.206 99.839 255.666 99.85C250.244 99.86 243.492 102.852 235.51 106.51C227.527 110.167 218.004 114.553 206.703 112.906C190.386 110.529 179.513 98.89 169.843 89.566C160.171 80.243 152.03 73.392 143.573 72.99Z" class="" fill="#8b572a" fill-opacity="1"></path><path d="M135.135 133.545C126.11 155.883 121 181.13 121 208C121 275.545 153.248 332.872 199 359.332L199 353.537L217 353.537L217 362.537C217 362.537 216.927 367.441 221.2 373.137C225.47 378.833 234 385.537 256 385.537C278 385.537 286.53 378.833 290.8 373.137C295.073 367.441 295 362.537 295 362.537L295 353.537L313 353.537L313 359.332C358.752 332.872 391 275.545 391 208C391 181.135 385.89 155.89 376.87 133.557C374.14 134.445 371.38 135.214 368.63 135.873C352.314 139.786 334.855 141.133 322.463 144.656C301.27 150.684 278.811 156.343 255.503 156.312C232.506 156.282 210.39 150.617 189.527 144.654C177.147 141.116 159.692 139.767 143.375 135.859C140.625 135.199 137.865 134.431 135.135 133.544Z" class="" fill="#b57204" fill-opacity="1"></path><path d="M106.115 170.742C99.808 171.812 94.16 173.382 89.492 175.462C79.879 179.752 74.609 185.216 72.812 193.838C70.977 202.628 77.152 212.812 88.104 223.031C93.319 227.899 99.076 232.295 104.797 236.361C103.617 227.104 103 217.631 103 208.001C103 195.261 104.073 182.799 106.115 170.743Z" class="" fill="#b57204" fill-opacity="1"></path><path d="M405.885 170.742C407.927 182.798 409 195.262 409 208C409 217.63 408.384 227.103 407.203 236.36C412.923 232.294 418.681 227.898 423.896 223.03C434.849 212.812 441.023 202.63 439.189 193.838C437.389 185.216 432.119 179.751 422.507 175.463C417.839 173.381 412.192 171.811 405.884 170.743Z" class="" fill="#b57204" fill-opacity="1"></path><path d="M151 179.428L233 179.428L233 197.428L215.107 197.428C216.335 200.745 217 204.332 217 208C217 222.537 206.565 235.842 192 235.842C177.435 235.842 167 222.537 167 208C167 204.332 167.665 200.745 168.893 197.428L151 197.428L151 179.428Z" class="" fill="#000000" fill-opacity="1"></path><path d="M279 179.428L361 179.428L361 197.428L343.107 197.428C344.335 200.745 345 204.332 345 208C345 222.537 334.565 235.842 320 235.842C305.435 235.842 295 222.537 295 208C295 204.332 295.665 200.745 296.893 197.428L279 197.428L279 179.428Z" class="" fill="#000000" fill-opacity="1"></path><path d="M192 198.158C188.89 198.158 185 201.724 185 208C185 214.276 188.89 217.842 192 217.842C195.11 217.842 199 214.276 199 208C199 201.724 195.11 198.158 192 198.158Z" class="" fill="#8b572a" fill-opacity="1"></path><path d="M320 198.158C316.89 198.158 313 201.724 313 208C313 214.276 316.89 217.842 320 217.842C323.11 217.842 327 214.276 327 208C327 201.724 323.11 198.158 320 198.158Z" class="" fill="#8b572a" fill-opacity="1"></path><path d="M223.385 227.288L230.049 233.336C240.242 242.589 248.743 245.664 256.679 245.389C264.615 245.112 272.984 241.225 282.054 233.243L288.81 227.298L300.7 240.808L293.945 246.754C282.902 256.474 270.651 262.914 257.305 263.377C243.958 263.839 230.515 258.065 217.951 246.661L211.288 240.611L223.386 227.284Z" class="" fill="#000000" fill-opacity="1"></path><path d="M183.015 255.461L200.985 256.541C200.457 265.339 198.355 272.938 195.197 279.577C241.73 295.04 270.27 295.04 316.803 279.577C313.645 272.937 311.543 265.339 311.016 256.54L328.984 255.46C330.261 276.747 341.396 286.16 356.977 296.502L347.023 311.498C340.16 306.943 333.218 301.628 327.279 295.061L322.845 296.541C273.705 312.921 238.292 312.921 189.153 296.541L184.72 295.061C178.782 301.628 171.84 306.944 164.977 311.499L155.023 296.503C170.603 286.163 181.739 276.748 183.016 255.463Z" class="" fill="#000000" fill-opacity="1"></path><path d="M129.768 312.573C118.283 319.71 109.953 327.965 105.594 336.901C121.246 397.549 143.766 430.803 169.857 453.167C192.827 472.857 219.235 484.394 247 497.671L247 441L215 441L215 423L247 423L247 403.14C226.363 401.264 213.59 392.99 206.8 383.938C206.556 383.611 206.34 383.283 206.11 382.955C174.7 369.909 148.082 344.9 129.768 312.572Z" class="selected" fill="#c9c9c9" fill-opacity="1"></path><path d="M382.232 312.573C363.918 344.901 337.302 369.91 305.892 382.956C305.662 383.284 305.444 383.612 305.199 383.939C298.409 392.992 285.636 401.265 264.999 403.139L264.999 423L296.999 423L296.999 441L264.999 441L264.999 497.67C292.764 484.393 319.171 472.855 342.142 453.166C368.232 430.802 390.752 397.548 406.405 336.9C402.045 327.964 393.715 319.71 382.231 312.572Z" class="" fill="#c9c9c9" fill-opacity="1"></path><path d="M231 327L281 327L281 345L231 345L231 327Z" class="" fill="#000000" fill-opacity="1"></path><path d="M89.107 345.256C69.312 346.606 49.433 353.5 34.371 361.866C27.861 365.484 22.265 369.376 18.001 373.014L18.001 494L55.001 494L55.001 455L73.001 455L73.001 494L198.603 494C184.723 486.523 171.098 477.937 158.143 466.834C129.778 442.521 105.446 406.239 89.108 345.256Z" class="" fill="#4a4a4a" fill-opacity="1"></path><path d="M422.893 345.256C406.555 406.239 382.223 442.521 353.857 466.834C340.903 477.937 327.277 486.524 313.397 494L439 494L439 455L457 455L457 494L494 494L494 373.014C489.736 369.377 484.14 365.484 477.63 361.867C462.567 353.5 442.688 346.605 422.893 345.257Z" class="" fill="#4a4a4a" fill-opacity="1"></path></g></g></svg>