<svg style="height: 512px; width: 512px;" xmlns="http://www.w3.org/2000/svg" viewBox="0 0 512 512"><rect fill="#000" fill-opacity="1" height="512" width="512" rx="32" ry="32"></rect><g class="" style="" transform="translate(0,0)"><g><path d="M433.5 31.6C425 31.6 418.4 38.18 418.4 46.41C418.4 54.64 425 61.22 433.5 61.22C442 61.22 448.6 54.64 448.6 46.41C448.6 38.18 442 31.6 433.5 31.6Z" class="selected" fill="#432c18" fill-opacity="1"></path><path d="M267 59.05C273.6 74.89 284.1 77.08 298.1 83.82C286.9 104.8 274.9 134.9 254.6 143.1C189.9 169.2 155.9 201.4 142.3 241.8C129.2 280.8 135.3 329 155.6 387.2C217.4 392.1 282.9 396.4 315 390C313.7 385.6 309.2 382.5 306.4 381C277.9 371.2 261.2 370.1 234.9 369L236 359.4C238.2 339.8 236.4 315.1 228.3 298.1C224.2 289.6 218.8 283.2 211.8 279.3C204.8 275.4 196 273.6 183.4 276L180.2 258.2C193.7 255.8 209.6 257.6 220.6 263.6C231.5 269.7 239.3 279.4 244.5 290.3C253.6 309.2 255.6 331.9 254.4 352.1C264.4 352.7 273.3 353.7 281.2 355C300.4 324.3 318.2 294.6 320.7 264.3C306.9 260.3 288.3 253.6 286.4 239.9C283.7 220.3 290 194.9 305.7 184.4C304.7 212.2 301.4 228.3 303.4 234.1C309.2 245 333.7 249.3 343.5 251.5L343.5 251.6C360.9 256.4 375.4 258.6 378.3 277.2C396.5 247.7 363.9 232.2 342.1 222.7L342 216.9C341.7 193.4 347.5 177.5 355.5 163.8C363.5 150.2 373.2 138.8 382.4 120.6L382.4 120.5C373 119.2 363 120.4 355.3 121.8C361 101.9 378.5 98.07 393.9 105.7C399.8 97.4 407.3 86.87 418.8 75.74C406.1 66.35 398.9 55.34 400.7 41.82C372.7 38.42 343.3 37.37 322.1 51.66L318.1 47.94C302.4 30.07 257.2 35.64 267 59.05Z" class="" fill="#8b572a" fill-opacity="1"></path><path d="M334.9 54.88C338.9 62.8 349.8 67.83 364.1 68.76C356.1 75.25 343.4 80.18 333.8 74C326.5 69.29 330.1 60.93 334.9 54.88Z" class="" fill="#000000" fill-opacity="1"></path><path d="M129.4 364.6C114.8 367.8 90.63 371.6 79.77 380.6C71.27 388 64.74 400.4 63.58 412C62.41 423.6 65.57 433.6 76.43 440.8C120 469.7 165 466.4 205.4 454.9C245.8 443.3 280.8 422.3 324.8 432.1C333.2 434.6 340.5 438.6 339.3 448C338.9 450.8 337.8 452.8 336.6 454.5C326.9 465.3 305.7 472.2 303 476C296.6 485.2 337.2 478.8 348 468.4C352.2 464.2 356.1 455.4 356.9 447.1C357.7 438.8 355.6 431.8 352 428.8C340.8 419.2 327.9 413.7 312.2 413.7C296.5 413.6 278.2 415.4 258.7 420.2C219.6 429.8 175.1 447.7 131.3 438.8C114.3 435.4 103.9 432 97.53 423.9C94.31 419.9 93.14 413.3 95.05 408.5C102.5 393.3 123.2 390.7 136 388C133.6 380.8 131.4 371.6 129.4 364.6Z" class="" fill="#a874a8" fill-opacity="1"></path></g></g></svg>