<svg style="height: 512px; width: 512px;" xmlns="http://www.w3.org/2000/svg" viewBox="0 0 512 512"><rect fill="#000" fill-opacity="1" height="512" width="512" rx="32" ry="32"></rect><g class="" style="" transform="translate(0,0)"><g><path d="M255.64 20.564C237.43 20.564 221.093 25.377 210 32.428C198.907 39.478 193.58 47.935 193.58 56.258C193.58 64.58 198.907 73.038 210 80.088C214.246 82.788 219.266 85.152 224.86 87.051C205.868 94.359 188.664 108.341 174.57 127.567C172.1 130.937 169.738 134.472 167.484 138.147C194.811 125.494 225.224 119.159 255.644 119.159C286.064 119.159 316.478 125.494 343.804 138.146C341.551 134.471 339.19 130.936 336.721 127.566C322.628 108.339 305.424 94.356 286.433 87.05C292.023 85.15 297.037 82.785 301.28 80.088C312.372 73.038 317.7 64.58 317.7 56.258C317.7 47.936 312.372 39.478 301.28 32.428C290.186 25.378 273.852 20.564 255.64 20.564Z" class="" fill="#4a4a4a" fill-opacity="1"></path><path d="M171.492 32.217C156.732 32.217 144.965 43.984 144.965 58.744C144.965 73.504 156.731 85.27 171.492 85.27C175.48 85.27 179.247 84.404 182.625 82.86C176.641 75.148 172.992 66.132 172.992 56.258C172.992 48.003 175.538 40.345 179.867 33.548C177.239 32.688 174.427 32.218 171.492 32.218Z" class="" fill="#4a4a4a" fill-opacity="1"></path><path d="M339.809 32.217C336.869 32.217 334.049 32.69 331.417 33.555C335.744 40.349 338.287 48.005 338.287 56.258C338.287 66.128 334.641 75.142 328.661 82.852C332.043 84.402 335.814 85.27 339.808 85.27C354.568 85.27 366.334 73.505 366.334 58.744C366.334 43.982 354.568 32.217 339.807 32.217Z" class="" fill="#4a4a4a" fill-opacity="1"></path><path d="M55.882 59.94C65.88 72.384 68.966 83.954 69.27 95.1L45.96 90.438C53.926 101.088 61.792 110.431 65.697 129.728C64.45 142.888 65.537 156.11 76.51 170.205C85.284 185.432 97.722 195.092 112.178 198.215C115.694 198.975 119.275 199.359 122.91 199.44C124.087 193.03 125.515 186.755 127.184 180.627C123.167 180.89 119.467 180.67 116.124 179.947C107.614 178.109 100.564 173.495 94.338 163.657C91.964 98.917 126.642 65.289 55.883 59.943Z" class="" fill="#4a4a4a" fill-opacity="1"></path><path d="M454.645 59.94C383.887 65.287 418.565 98.914 416.19 163.656C409.967 173.493 402.915 178.106 394.406 179.946C391.276 180.621 387.842 180.869 384.121 180.682C385.781 186.785 387.206 193.037 388.378 199.418C391.753 199.301 395.081 198.92 398.353 198.213C412.811 195.09 425.253 185.426 434.028 170.193C443.931 157.469 445.764 145.457 445.11 133.559C448.708 111.621 457.068 101.766 465.545 90.435L441.238 95.295C441.512 84.09 444.59 72.455 454.646 59.94Z" class="" fill="#4a4a4a" fill-opacity="1"></path><path d="M246.3 138.57C240.426 138.838 234.57 139.372 228.754 140.145L216.936 361.295L207.053 144.258C200.988 145.768 195.016 147.57 189.173 149.662L176.633 306.622L166.623 159.552C161.989 161.995 157.481 164.645 153.125 167.51C144.5 190.1 139.539 215.94 139.539 243.424C139.539 289.008 153.171 330.089 174.569 359.284C193.805 385.528 218.839 401.997 246.299 405.059L246.299 138.57Z" class="" fill="#8b572a" fill-opacity="1"></path><path d="M264.988 138.57L264.988 405.06C292.451 401.998 317.484 385.53 336.721 359.283C358.121 330.089 371.753 289.008 371.753 243.423C371.753 215.939 366.793 190.096 358.165 167.503C354.889 165.35 351.525 163.318 348.089 161.403L338.204 306.621L325.771 151.011C319.891 148.761 313.871 146.811 307.745 145.163L297.903 361.296L286.113 140.663C279.126 139.606 272.071 138.893 264.989 138.571Z" class="selected" fill="#8b572a" fill-opacity="1"></path><path d="M115.023 233.445C102.756 233.61 90.753 238.49 80.078 247.797C61.814 259.799 56.598 278.554 52.564 297.85C43.734 315.88 33.624 322.934 23.062 331.244L43.725 332.578C39.029 344.348 31.625 354.665 17.985 361.68C84.785 385.572 65.645 322.67 93.857 260.496C101.671 253.976 109.097 251.771 117.109 252.164C117.767 252.196 118.434 252.252 119.109 252.326C119.004 249.376 118.949 246.408 118.949 243.424C118.949 240.124 119.017 236.844 119.145 233.584C118.771 233.558 118.399 233.516 118.025 233.498C117.022 233.448 116.022 233.432 115.022 233.445Z" class="" fill="#4a4a4a" fill-opacity="1"></path><path d="M395.506 233.445C394.506 233.432 393.506 233.449 392.504 233.498C392.384 233.504 392.264 233.518 392.144 233.525C392.272 236.805 392.342 240.103 392.342 243.425C392.342 246.387 392.287 249.333 392.184 252.262C392.597 252.226 393.012 252.184 393.42 252.164C401.432 251.771 408.86 253.977 416.674 260.498C444.886 322.671 425.746 385.572 492.544 361.68C478.921 354.675 471.521 344.376 466.824 332.625L488.236 331.245C477.12 322.497 466.502 315.145 457.354 294.91C453.381 276.662 447.788 259.19 430.451 247.797C419.777 238.49 407.775 233.61 395.507 233.445Z" class="" fill="#4a4a4a" fill-opacity="1"></path><path d="M132.658 323.48C126.106 326.248 120.231 329.813 115.193 334.38C103.879 344.634 97.91 359.848 98.328 378.195C96.276 390.915 105.228 401.819 118.424 414.305C125.028 433.431 122.857 445.619 121.258 459.012L141.088 441.59C144.598 456.162 142.834 466.647 141.478 477.998L163.218 458.896C170.196 467.652 176.668 477.46 181.948 488.672C205.958 417.008 127.05 411.062 119.336 360.535C121.166 355.558 124.011 351.61 127.746 348.225C130.926 345.342 134.98 342.86 139.846 340.799C137.219 335.219 134.824 329.434 132.658 323.479Z" class="" fill="#4a4a4a" fill-opacity="1"></path><path d="M378.528 323.768C376.353 329.718 373.948 335.496 371.314 341.07C375.9 343.077 379.744 345.468 382.784 348.225C386.52 351.61 389.364 355.558 391.194 360.535C383.479 411.063 304.571 417.008 328.58 488.672C333.775 477.645 340.12 467.979 346.97 459.334L368.21 477.998C366.856 466.648 365.093 456.162 368.602 441.59L388.43 459.012C386.863 445.892 384.75 433.932 390.87 415.472C404.74 402.498 414.322 391.302 412.203 378.189C412.62 359.844 406.649 344.632 395.336 334.379C390.468 329.965 384.814 326.494 378.526 323.767Z" class="" fill="#4a4a4a" fill-opacity="1"></path></g></g></svg>