<svg style="height: 512px; width: 512px;" xmlns="http://www.w3.org/2000/svg" viewBox="0 0 512 512"><rect fill="#000" fill-opacity="1" height="512" width="512" rx="32" ry="32"></rect><g class="" style="" transform="translate(0,0)"><g><path d="M256 41C227.75 41 197.64 59.25 174.834 85.857C171.696 89.517 168.711 93.334 165.887 97.26L208 69.184L231.127 84.602C231.633 77.666 233.695 71.29 237.197 66.037C241.265 59.937 247.934 55 256 55C264.066 55 270.735 59.936 274.803 66.037C278.305 71.29 280.367 77.667 280.873 84.602L304 69.184L346.113 97.26C343.289 93.334 340.303 89.518 337.166 85.857C314.36 59.25 284.25 41 256 41Z" class="" fill="#4a4a4a" fill-opacity="1"></path><path d="M256 73C255.23 73 253.897 73.436 252.174 76.02C250.45 78.608 249 82.995 249 88C249 91.83 249.85 95.29 251.02 97.865L256 101.185L260.98 97.865C262.15 95.29 263 91.83 263 88C263 82.994 261.55 78.607 259.826 76.02C258.103 73.437 256.77 73 256 73Z" class="" fill="#4a90e2" fill-opacity="1"></path><path d="M208 90.816L179.377 109.896L184.713 110.963C201.635 113.053 221.241 114.389 241.318 114.83C239.934 113.53 238.692 112.09 237.618 110.562L208 90.817Z" class="" fill="#f8e71c" fill-opacity="1"></path><path d="M304 90.816L274.383 110.563C273.308 112.09 272.066 113.531 270.683 114.83C290.76 114.388 310.368 113.053 327.291 110.963L332.624 109.896L304 90.816Z" class="" fill="#f8e71c" fill-opacity="1"></path><path d="M32 112C65.318 145.318 90.914 201.742 103.463 238.506C106.639 212.714 110.896 186.449 116.003 163.848C117.18 158.645 118.366 153.671 119.588 148.926C98.66 132.53 44.818 112 32 112Z" class="" fill="#000000" fill-opacity="1"></path><path d="M480 112C467.182 112 413.34 132.53 392.412 148.926C393.634 153.671 394.82 158.646 395.996 163.848C401.104 186.448 405.361 212.714 408.536 238.506C421.087 201.742 446.683 145.318 480 112Z" class="" fill="#000000" fill-opacity="1"></path><path d="M148.53 122.086C143.888 130.842 138.155 147.484 133.56 167.816C128.085 192.046 123.5 221.256 120.303 249.26C117.583 273.072 115.943 295.765 115.471 314.035C122.334 290.755 130.799 262.513 141.587 234.092C156.535 194.712 175.067 155.579 201.345 132.648L148.532 122.086Z" class="" fill="#4a4a4a" fill-opacity="1"></path><path d="M363.47 122.086L310.656 132.648C336.933 155.578 355.466 194.711 370.414 234.092C381.202 262.512 389.667 290.756 396.529 314.035C396.055 295.765 394.415 273.072 391.696 249.26C388.499 221.257 383.914 192.047 378.438 167.816C373.843 147.484 368.11 130.842 363.468 122.086Z" class="" fill="#4a4a4a" fill-opacity="1"></path><path d="M234.715 132.706L228.025 136.051C221.655 139.238 215.45 144.071 209.451 150.169C216.118 150.989 222.441 152.281 228.041 154.032C236.755 156.76 244.826 159.444 248.405 168.782L231.597 175.222C232.313 177.09 229.334 173.299 222.665 171.212C215.995 169.127 206.74 167.606 197.333 167.222C196.697 167.197 196.06 167.189 195.423 167.174C192.193 171.729 189.043 176.614 185.981 181.77C190.804 180.595 195.403 180.002 200.001 180.002C212.001 180.002 224.001 184.002 240.001 192.002C240.001 208.002 224.001 224.002 208.001 224.002C198.141 224.002 182.217 217.924 171.438 209.518C166.785 219.488 162.428 229.911 158.415 240.482C156.091 246.604 153.877 252.749 151.753 258.862C160.927 283.658 173.531 305.025 187.105 322.477C200.58 339.803 215.018 353.232 227.681 362.143C240.342 371.05 251.75 375 256 375C260.25 375 271.658 371.05 284.32 362.14C296.983 353.23 311.42 339.8 324.896 322.475C338.47 305.023 351.074 283.655 360.248 258.861C358.124 252.748 355.91 246.603 353.586 240.481C349.573 229.911 345.216 219.486 340.562 209.517C329.784 217.922 313.86 224 304 224C288 224 272 208 272 192C288 184 300 180 312 180C316.598 180 321.197 180.593 326.02 181.768C322.977 176.644 319.847 171.788 316.637 167.256C307.447 167.68 298.45 169.171 291.93 171.211C285.26 173.298 282.282 177.089 282.998 175.221L266.188 168.781C269.768 159.443 277.841 156.759 286.558 154.031C291.508 152.483 297.034 151.303 302.854 150.481C296.761 144.233 290.454 139.291 283.974 136.051L277.284 132.706C270.25 132.902 263.134 133.001 256 133.001C248.867 133.001 241.75 132.901 234.715 132.706Z" class="" fill="#ffe0af" fill-opacity="1"></path><path d="M200 192C195.582 192 192 195.582 192 200C192 204.418 195.582 208 200 208C204.418 208 208 204.418 208 200C208 195.582 204.418 192 200 192Z" class="" fill="#ffffff" fill-opacity="1"></path><path d="M311.648 192C307.23 192 303.648 195.582 303.648 200C303.648 204.418 307.23 208 311.648 208C316.066 208 319.648 204.418 319.648 200C319.648 195.582 316.066 192 311.648 192Z" class="" fill="#ffffff" fill-opacity="1"></path><path d="M240 256L256 260.098L272 256C272 272 256 272 256 272C256 272 240 272 240 256Z" class="" fill="#000000" fill-opacity="1"></path><path d="M143.164 284.87C138.674 299.12 134.89 311.993 131.342 324.03C121.972 386.558 101.764 423.09 78.692 470.383C83.408 469.903 88.335 469.067 93.154 467.461C103.447 464.031 113.024 457.829 119.949 443.976L127.999 427.876L136.049 443.976C143.884 459.644 148.183 465.119 150.321 466.749C151.391 467.564 152.161 467.893 154.263 468.542C154.513 468.622 154.946 468.756 155.247 468.85C168.154 439.095 181 386.868 182.782 345.436C179.452 341.671 176.147 337.708 172.895 333.526C162.032 319.56 151.769 303.256 143.163 284.871Z" class="" fill="#4a4a4a" fill-opacity="1"></path><path d="M368.836 284.87C360.23 303.255 349.966 319.558 339.104 333.525C335.852 337.705 332.547 341.669 329.217 345.435C331.041 387.83 344.449 441.531 357.652 470.889C358.594 470.836 359.354 470.769 359.807 470.679C360.905 470.456 360.707 470.599 361.643 469.657C363.516 467.771 367.949 459.974 375.949 443.974L383.999 427.874L392.049 443.974C398.976 457.827 408.552 464.029 418.845 467.46C424.148 469.23 429.565 470.09 434.702 470.533C417.052 424.727 395.952 391.033 384.192 335.971C379.839 321.424 374.802 303.808 368.835 284.871Z" class="" fill="#4a4a4a" fill-opacity="1"></path><path d="M240 288C240 288 256 288 256 294.693C256 288 272 288 272 288C288 288 304 304 320 304C320 304 291.1 333.78 272 336C266.347 336.657 256 330.04 256 330.04C256 330.04 245.653 336.657 240 336C220.9 333.78 192 304 192 304C208 304 224.012 288.003 240 288Z" class="" fill="#000000" fill-opacity="1"></path><path d="M199.518 362.475C199.083 367.175 198.564 371.915 197.938 376.682L199.488 379.008L225.398 417.873L249.638 393.637L250.686 392.587C240.456 391.091 229.521 385.445 217.32 376.859C211.537 372.789 205.55 367.977 199.518 362.474Z" class="" fill="#b8e986" fill-opacity="1"></path><path d="M312.482 362.475C306.449 367.978 300.462 372.789 294.68 376.859C282.48 385.444 271.546 391.089 261.316 392.587L286.602 417.872L312.512 379.007L314.062 376.681C313.436 371.914 312.917 367.173 312.482 362.474Z" class="" fill="#b8e986" fill-opacity="1"></path><path d="M193.662 402.717C188.712 427.887 181.64 452.107 173.882 471L244.24 471L216.074 435.928L193.662 402.718Z" class="" fill="#ffe0af" fill-opacity="1"></path><path d="M318.338 402.717L295.926 435.927L267.76 471L338.12 471C330.36 452.107 323.29 427.887 318.338 402.717Z" class="selected" fill="#ffe0af" fill-opacity="1"></path><path d="M256 412.727L236.12 432.609L256 456.942L275.88 432.608L256 412.726Z" class="" fill="#4a90e2" fill-opacity="1"></path></g></g></svg>