<svg style="height: 512px; width: 512px;" xmlns="http://www.w3.org/2000/svg" viewBox="0 0 512 512"><rect fill="#000" fill-opacity="1" height="512" width="512" rx="32" ry="32"></rect><g class="" style="" transform="translate(0,0)"><g><path d="M60.307 17.998C56.773 33.077 54.993 48.513 55.002 64C55.002 142.375 100.004 210.35 165.541 243.486C156.758 232.93 149.063 220.828 142.441 207.574C100.123 174.074 72.998 122.247 72.998 64C72.998 48.105 75.033 32.695 78.83 17.998L60.307 17.998Z" class="" fill="#2f9ee0" fill-opacity="1"></path><path d="M126.951 17.998C121.809 32.382 119.002 47.868 119.002 64C119.002 115.245 147.272 159.989 189.033 183.482C182.769 173.255 177.863 161.878 174.01 150.324C151.2 128.657 136.998 98.02 136.998 64C136.998 47.681 140.273 32.144 146.191 17.998L126.951 17.998Z" class="" fill="#2f9ee0" fill-opacity="1"></path><path d="M199.396 17.998C189.156 30.565 183.002 46.585 183.002 64C183.002 90.543 197.295 113.845 218.574 126.623C214.768 117.139 211.994 106.206 210.242 94.609C204.402 85.871 200.998 75.35 200.998 64C200.998 52.65 204.401 42.13 210.242 33.39C211.02 28.215 212.038 23.078 213.295 17.998L199.396 17.998Z" class="" fill="#2f9ee0" fill-opacity="1"></path><path d="M298.706 17.998C299.962 23.079 300.981 28.215 301.758 33.391C307.598 42.129 311.002 52.65 311.002 64C311.002 75.35 307.599 85.87 301.758 94.61C300.007 106.206 297.232 117.139 293.426 126.623C314.705 113.845 328.998 90.543 328.998 64C328.998 46.585 322.845 30.565 312.604 17.998L298.705 17.998Z" class="" fill="#2f9ee0" fill-opacity="1"></path><path d="M365.809 17.998C371.727 32.144 375.002 47.681 375.002 64C375.002 98.02 360.8 128.657 337.99 150.324C334.138 161.878 329.23 173.254 322.967 183.482C364.728 159.99 392.998 115.245 392.998 64C392.998 47.868 390.191 32.382 385.048 17.998L365.808 17.998Z" class="" fill="#2f9ee0" fill-opacity="1"></path><path d="M433.169 17.998C437.049 33.024 439.01 48.481 439.003 64C439.003 122.247 411.878 174.074 369.56 207.574C362.938 220.828 355.243 232.93 346.46 243.486C411.996 210.35 456.998 142.375 456.998 64C456.998 48.175 455.161 32.774 451.693 17.998L433.17 17.998Z" class="" fill="#2f9ee0" fill-opacity="1"></path><path d="M256 40.998C243.19 40.998 232.998 51.19 232.998 64C232.998 76.81 243.19 87.002 256 87.002C268.81 87.002 279.002 76.81 279.002 64C279.002 51.19 268.81 40.998 256 40.998Z" class="" fill="#9b9b9b" fill-opacity="1"></path><path d="M235.65 99.535L119.398 477.354L136.602 482.646L149.752 439.906L256 415.39L362.248 439.907L375.398 482.647L392.602 477.355L276.35 99.535C271.09 102.575 265.215 104.395 259.158 104.863L308.812 266.244L256 283.848L203.187 266.244L252.842 104.864C246.785 104.396 240.91 102.575 235.65 99.535Z" class="" fill="#9b9b9b" fill-opacity="1"></path><path d="M197.893 283.45L227.543 293.335L191.115 305.478L197.893 283.45Z" class="" fill="#000000" fill-opacity="1"></path><path d="M314.107 283.45L320.885 305.478L284.457 293.335L314.107 283.45Z" class="" fill="#000000" fill-opacity="1"></path><path d="M256 302.82L308.652 320.37L256 339.516L203.35 320.369L256 302.82Z" class="" fill="#000000" fill-opacity="1"></path><path d="M182.926 332.095L229.666 349.093L171.148 370.373L182.926 332.095Z" class="" fill="#000000" fill-opacity="1"></path><path d="M329.074 332.095L340.852 370.372L282.332 349.092L329.074 332.095Z" class="" fill="#000000" fill-opacity="1"></path><path d="M256 358.666L320.354 382.068L256 396.92L191.645 382.068L256 358.666Z" class="" fill="#000000" fill-opacity="1"></path><path d="M163.84 394.121L215.984 406.154L155.869 420.027L163.839 394.121Z" class="" fill="#000000" fill-opacity="1"></path><path d="M348.158 394.121L356.131 420.025L296.018 406.155L348.158 394.121Z" class="selected" fill="#000000" fill-opacity="1"></path></g></g></svg>