<svg style="height: 512px; width: 512px;" xmlns="http://www.w3.org/2000/svg" viewBox="0 0 512 512"><rect fill="#000" fill-opacity="1" height="512" width="512" rx="32" ry="32"></rect><g class="" style="" transform="translate(0,0)"><g><path d="M219.615 401.84L235.615 401.84L235.615 489.9L219.615 489.9L219.615 401.84Z" class="selected" fill="#9b9b9b" fill-opacity="1"></path><path d="M439.555 130.24L461.385 117.06L439.565 103.9L455.565 84.1L430.565 79.22L438.815 55.1L413.625 59.1L413.165 33.61L390.885 45.9L381.705 22.1L365.005 41.34L348.225 22.1L339.005 45.9L316.705 33.59L316.245 59.08L291.055 55.08L299.305 79.2L274.305 84.08L290.305 103.88L268.475 117.06L290.305 130.2L323.715 130.2L353.005 206.54L365.005 192.78L381.745 212.02L390.915 188.26L413.215 200.57L413.675 175.08L438.865 179.08L430.585 154.9L455.585 150.02Z" class="" fill="#f8e71c" fill-opacity="1"></path><path d="M185.005 176.55L94.005 176.55L125.005 257.4L216.005 257.4Z" class="" fill="#fff" fill-opacity="1"></path><path d="M293.255 176.55L202.255 176.55L233.195 257.4L324.195 257.4Z" class="" fill="#fff" fill-opacity="1"></path><path d="M222.445 273.97L131.445 273.97L162.385 354.82L253.385 354.82Z" class="" fill="#fff" fill-opacity="1"></path><path d="M330.695 273.97L239.695 273.97L270.635 354.82L361.635 354.82Z" class="" fill="#fff" fill-opacity="1"></path><path d="M404.585 385.84L142.365 385.84L50.615 146.2L312.715 146.2Z" class="" fill="#c9c9c9" fill-opacity="1"></path><path d="M384.895 370.84L341.585 257.97L304.305 160.55L70.785 160.55L151.255 370.82L384.935 370.82Z" class="" fill="#4a4a4a" fill-opacity="1"></path></g></g></svg>