<svg style="height: 512px; width: 512px;" xmlns="http://www.w3.org/2000/svg" viewBox="0 0 512 512"><defs><linearGradient x1="0" x2="1" y1="0" y2="1" id="lorc-thorned-arrow-gradient-2"><stop offset="0%" stop-color="#c9c9c9" stop-opacity="1"></stop><stop offset="100%" stop-color="#fff" stop-opacity="1"></stop></linearGradient></defs><rect fill="#000" fill-opacity="1" height="512" width="512" rx="32" ry="32"></rect><g class="" style="" transform="translate(0,0)"><g><path d="M19.03 19.875L19.03 38.875L75.657 95.5L27.187 123.625L113.845 136.095L66.907 163.345L154.97 176.031L107.28 203.721L196.78 216.626L200.187 220.032L151.719 248.127L239.843 260.815L192.093 288.533L281.563 301.409L281.623 301.472L281.655 301.44L304.78 304.752L276.062 333.472C307.366 353.042 347.262 372.652 376.656 380.346C369.046 348.792 350.32 312.124 329.75 279.783L314.136 294.991C297.886 277.745 313.672 294.381 294.281 274.128L279.438 170.908L251.72 218.658L239.03 130.534L208.594 183.034L194.624 86.098L166.906 133.848L154.22 45.72L121.78 101.625L40.03 19.875Z" class="" fill="url(#lorc-thorned-arrow-gradient-2)"></path><path d="M390.47 185.47L382.406 222.28C417.463 289.5 445.878 366.688 445.876 437.75L445.876 447.094L436.531 447.094C373.879 447.094 291.576 418.617 224.751 385.188L181.251 394.718C270.867 446.464 401.969 497.315 493.064 497.312C493.069 394.942 444.639 279.29 390.47 185.469Z" class="selected" fill="#8b572a" fill-opacity="1"></path><path d="M376.03 251.375L364.875 302.281C380.895 331.629 393.765 362.531 397.781 391.001L399.531 403.314L387.221 401.564C361.593 397.949 329.523 384.744 299.563 368.814L254.688 378.626C311.866 404.66 377.168 425.619 426.908 428.096C424.715 371.326 403.628 308.656 376.032 251.376Z" class="" fill="#417505" fill-opacity="1"></path></g></g></svg>