<svg style="height: 512px; width: 512px;" xmlns="http://www.w3.org/2000/svg" viewBox="0 0 512 512"><rect fill="#000" fill-opacity="1" height="512" width="512" rx="32" ry="32"></rect><g class="" style="" transform="translate(0,0)"><g><path d="M378.321 58.818C374.371 65.403 372.947 73.163 376.093 79.579C384.518 85.073 427.061 95.381 423.379 109.352C422.595 111.653 422.292 112.892 421.864 114.576C414.464 107.812 399.402 104.526 393.962 105.527C389.13 106.37 384.241 108.577 379.522 108.775C373.536 108.743 368.182 107.259 363.597 104.521C366.837 113.464 378.447 120.058 385.646 118.933C396.964 116.675 409.181 122.656 417.425 125.603C412.37 139.463 395.411 132.937 395.411 132.937L273.474 104.917L253.44 90.45L236.1 108.17L325.045 137.301L205.022 139.977L175.115 127.491L134.345 151.108L317.335 164.399L261.123 223.825L360.343 223.825C379.684 208.079 423.352 172.625 423.988 173.032C436.855 203.005 457.244 192.055 472.803 174.582C477.318 169.513 482.273 186.944 484.824 158.567C485.464 157.567 486.041 156.556 486.596 155.537C468.568 147.876 438.016 161.269 454.779 137.545C459.914 130.283 475.555 132.249 491.65 141.515C492.232 126.253 490.594 99.119 476.166 93.125C461.316 86.956 442.142 87.645 434.85 95.807C424.904 78.927 395.276 76.737 383.543 75.043C380.09 69.614 378.985 64.564 378.32 58.817Z" class="" fill="#4a4a4a" fill-opacity="1"></path><path d="M189.993 118.054L185.435 122.088L201.573 128.941L212.425 118.054Z" class="" fill="#d0021b" fill-opacity="1"></path><path d="M466.571 142.408C473.113 147.216 473.581 148.351 477.964 148.508C479.561 147.487 483.084 143.895 479.821 143.138L468.781 140.935C467.641 140.731 466.761 141.581 466.571 142.408Z" class="" fill="#fff" fill-opacity="1"></path><path d="M148.167 160.44L142.217 165.704L164.647 165.704L170.599 160.44Z" class="" fill="#d0021b" fill-opacity="1"></path><path d="M108.882 174.038L96.882 189.395L112.737 189.395L118.198 182.981L160.79 182.981L152.853 189.921L168.806 189.921L184.806 174.565Z" class="" fill="#9b9b9b" fill-opacity="1"></path><path d="M124.546 189.971L20.251 309.592L43.278 305.076L141.896 189.972Z" class="" fill="#fff" fill-opacity="1"></path><path d="M251.3 234.216L119.878 373.16L103.181 377.425C103.181 377.425 90.283 407.238 84.347 442.484C92.006 446.597 101.737 434.464 101.737 434.464C101.737 434.464 100.637 447.554 108.377 444.207C122.474 415.638 138.241 385.959 138.241 385.959L297.962 264.082L318.956 269.666L346.714 277.052L284.157 335.779L272.919 323.629C272.919 323.629 238.6 361.698 225.614 389.853C229.744 394.593 245.944 382.213 245.944 382.213C245.944 382.213 240.575 391.828 247.876 391.523C265.684 374.829 277.558 361.697 277.558 361.697L410.378 263.154L362.148 234.216Z" class="selected" fill="#4a4a4a" fill-opacity="1"></path></g></g></svg>