<svg style="height: 512px; width: 512px;" xmlns="http://www.w3.org/2000/svg" viewBox="0 0 512 512"><rect fill="#000" fill-opacity="1" height="512" width="512" rx="32" ry="32"></rect><g class="" style="" transform="translate(0,0)"><g><path d="M63.648 18.836L41.742 24.056L45.916 41.564L67.82 36.344L63.648 18.836Z" class="" fill="#9b9b9b" fill-opacity="1"></path><path d="M119.058 28.412C108.246 28.43 99.765 32.078 94.553 38.756C88.993 45.879 87.686 55.768 91.059 67.139C94.431 78.509 102.661 90.785 115.032 100.427C127.404 110.067 141.322 115.052 153.182 115.552C165.038 116.052 174.318 112.374 179.878 105.252C185.438 98.128 186.744 88.24 183.371 76.87C183.021 75.712 182.63 74.566 182.199 73.436C173.409 80.19 167.567 92.006 160.185 87.08C158.165 85.733 164.39 69.796 173.675 58.1C170.869 54.351 167.718 50.873 164.265 47.71L138.937 59.88L125.241 47.236C127.269 45.491 143.456 42.773 156.781 41.633C145.091 33.271 132.278 28.921 121.249 28.457C120.518 28.426 119.787 28.411 119.056 28.412Z" class="" fill="#417505" fill-opacity="1"></path><path d="M254.273 39.787L233.145 47.577L239.371 64.465L260.501 56.675L254.274 39.787Z" class="" fill="#9b9b9b" fill-opacity="1"></path><path d="M307.205 62.064L293.709 73.974L308.606 90.857L322.104 78.949L307.204 62.063Z" class="" fill="#9b9b9b" fill-opacity="1"></path><path d="M41.405 86.794L25.81 95.788L37.06 115.294L52.652 106.302L41.402 86.797Z" class="" fill="#9b9b9b" fill-opacity="1"></path><path d="M196.945 112.124C196.076 113.579 195.119 114.979 194.078 116.316C184.328 128.809 168.605 134.211 152.42 133.529C146.447 133.277 140.34 132.234 134.254 130.433C133.562 139.135 133.592 147.956 134.236 156.806L141.536 153.436L142.036 170.321L154.946 172.806L147.498 187.704L164.878 203.099L148.49 209.556L156.934 218.991L149.967 225.441C160.664 254.418 175.184 280.963 188.969 301.397C205.749 326.274 222.376 371.843 223.075 399.749L185.481 495.046L299.056 496.233L299.849 475.669L292.272 474.349L279.599 486.671L269.169 477.731L260.229 477.731L258.917 468.538L237.637 464.83L266.007 401.52C267.341 364.282 255.82 338.34 247.287 301.102C264.627 312.989 281.417 324.619 297.507 336.576C300.897 333.418 305.257 330.906 312.377 330.234C317.157 338.224 317.424 344.927 316.79 351.371C341.976 371.431 365.08 393.021 385.326 418.727L440.729 322.239L424.354 313.175L378.994 356.249C353.672 321.869 316.948 296.259 277.099 267.689C274.085 258.134 269.807 249.177 264.903 240.634C261.546 245.43 257.03 249.757 253.276 252.759C245.962 258.609 232.988 254.901 229.936 248.786C226.886 242.67 241.03 239.128 237.882 233.391C234.734 227.653 220.729 236.549 216.03 231.404C211.333 226.259 210.005 218.304 216.03 211.539C219.798 207.311 228.45 205.522 236.78 205.584C238.439 205.598 240.097 205.686 241.748 205.85C232.935 193.283 224.833 181.122 220.232 168.642C249.698 171.852 279.159 175.074 307.064 186.084C312.73 201.301 308.252 216.519 302.148 231.736C306.664 232.649 311.886 232.743 316.558 226.238C328.692 209.338 336.896 188.302 330.945 167.824C329.563 163.068 290.92 153.608 253.15 145.598C280.96 142.101 311.14 139.79 342.656 138.146C357.008 143.116 363.922 157.586 364.484 178.412C380.064 170.869 384.384 162.959 384.99 151.642C385.927 134.162 372.558 118.969 363.14 116.125C359.38 114.885 225.704 116.388 196.945 112.12Z" class="selected" fill="#513f0a" fill-opacity="1"></path><path d="M427.02 136.34L409.705 150.734L421.213 164.576L438.527 150.18L427.021 136.34Z" class="" fill="#9b9b9b" fill-opacity="1"></path><path d="M83.875 140.95L78.418 158.104L99.878 164.932L105.334 147.777L83.874 140.951Z" class="" fill="#9b9b9b" fill-opacity="1"></path><path d="M402.043 264.514L385.993 280.307L398.615 293.139L414.668 277.345L402.043 264.513Z" class="" fill="#9b9b9b" fill-opacity="1"></path><path d="M143.965 294.408L138.51 311.561L159.97 318.388L165.424 301.235L143.964 294.409Z" class="" fill="#9b9b9b" fill-opacity="1"></path></g></g><g class="" style="" transform="translate(256,256)"><g><circle cx="128" cy="128" r="128" fill="#000" fill-opacity="1"></circle><circle stroke="#4a90e2" stroke-opacity="1" fill="#000" fill-opacity="1" stroke-width="18" cx="128" cy="128" r="101"></circle><path fill="#4a90e2" fill-opacity="1" d="M64 94l64-38 64 38c0 32-48 108-64 108-16 .25-64-76-64-108z"></path></g></g></svg>