<svg style="height: 512px; width: 512px;" xmlns="http://www.w3.org/2000/svg" viewBox="0 0 512 512"><rect fill="#000" fill-opacity="1" height="512" width="512" rx="32" ry="32"></rect><g class="" style="" transform="translate(0,0)"><g><path d="M30.653 470.114L85.993 449.794L170.083 430.174L180.863 448.394L205.863 464.314L247.203 458.904L275.063 467.314L314.473 468.714L351.183 433.994L397.863 453.294L435.703 462.404L494.331 495.141L17.67 495.141Z" class="" fill="#8b572a" fill-opacity="1"></path><path d="M269.253 267.344L263.253 277.344C273.343 283.444 284.833 283.734 296.133 280.554C301.552 278.966 306.814 276.884 311.853 274.334C311.543 280.614 311.493 290.914 311.663 303.624L292.843 300.754L296.703 415.754L316.423 414.904C317.113 424.434 317.873 433.374 318.693 441.344L307.973 451.484L277.883 450.414L252.093 442.644L248.593 441.584L244.973 442.054L209.773 446.644L204.883 443.524C212.993 405.644 222.333 320.414 224.393 301.824C225.283 294.554 225.619 287.224 225.393 279.904L235.283 274.564L235.983 268.174L232.983 261.654L224.103 261.654L219.453 252.524L217.623 253.154C216.818 252.059 215.939 251.02 214.993 250.044L214.913 249.964L190.913 224.084L193.273 218.084L192.093 211.004L183.583 208.644L181.513 198.644L168.163 199.514L137.213 166.124C137.743 161.794 140.213 156.294 144.113 151.964C147.813 147.804 152.373 145.154 155.993 144.424L214.993 206.834L224.483 200.284L181.393 111.204C183.123 107.204 187.103 103.064 192.123 100.374C196.963 97.774 202.233 96.884 205.873 97.374L251.373 189.644L262.373 186.114L246.083 87.194C248.763 84.514 253.743 81.964 259.083 81.194C260.259 81.026 261.445 80.936 262.633 80.924L263.803 80.924C267.275 80.965 270.684 81.854 273.733 83.514L288.793 177.834L300.223 178.184L317.993 97.774C323.883 102.414 337.233 113.544 337.233 113.544L344.483 111.244L324.863 200.574L324.923 200.574L323.483 206.884L322.843 209.764L331.723 215.544C346.023 206.684 360.103 197.544 371.993 193.374C379.773 190.674 386.193 190.174 391.353 192.204C395.603 193.874 399.613 197.574 403.253 204.634C373.523 219.144 347.403 239.184 325.003 253.374C313.133 260.894 302.313 266.714 293.003 269.374C283.693 272.034 276.273 271.594 269.253 267.344Z" class="selected" fill="#223d02" fill-opacity="1"></path><path d="M259.413 332.734L259.413 358.734L270.793 367.884L266.013 374.084L266.293 392.974L274.593 402.124L286.533 412.024L282.933 304.764L274.593 310.324L266.853 332.754L259.413 332.754Z" class="" fill="#000000" fill-opacity="1"></path></g></g></svg>