<svg style="height: 512px; width: 512px;" xmlns="http://www.w3.org/2000/svg" viewBox="0 0 512 512"><rect fill="#000" fill-opacity="1" height="512" width="512" rx="32" ry="32"></rect><g class="" style="" transform="translate(0,0)"><g><path d="M256 23C239.924 23 223.625 26.73 207.822 33.24C205.696 39.765 203.945 48 202.945 56.994C201.635 68.784 201.215 81.7 201.075 93.813C234.939 90.109 277.061 90.109 310.925 93.813C310.785 81.7 310.365 68.783 309.055 56.993C308.055 48.001 306.305 39.765 304.178 33.24C288.375 26.73 272.076 23 256 23Z" class="" fill="#4a90e2" fill-opacity="1"></path><path d="M356.564 42.332C365.879 49.386 374.671 57.21 382.846 65.566C384.376 58.916 387.536 52.87 391.876 47.871Z" class="" fill="#9b9b9b" fill-opacity="1"></path><path d="M186.534 43.822C151.859 64.042 121.487 96.536 103.982 130.156C70.902 193.692 64.292 287.112 103.452 344.956C132.786 388.278 200.276 405 256 405C311.725 405 379.215 388.28 408.547 344.955C447.709 287.112 441.097 193.692 408.017 130.155C390.513 96.535 360.141 64.043 325.467 43.822C326.045 47.472 326.524 51.21 326.945 55.006C328.467 68.7 328.857 83.203 328.959 96.273C347.664 99.427 362 104 368 110C400 142 443.537 244.695 384 334C346.346 390.48 165.654 390.48 128 334C68.463 244.695 112 142 144 110C150 104 164.335 99.427 183.04 96.273C183.143 83.203 183.533 68.7 185.055 55.006C185.475 51.21 185.955 47.472 186.533 43.822Z" class="" fill="#fff" fill-opacity="1"></path><path d="M64 48C55.163 48 48 55.163 48 64C48.001 69.296 50.621 74.248 55 77.227L55 145.5L73 132L73 77.21C77.374 74.235 79.994 69.29 80 64C80 55.163 72.837 48 64 48Z" class="" fill="#9b9b9b" fill-opacity="1"></path><path d="M422.81 51.68C410 51.68 399.81 61.87 399.81 74.68C399.81 87.49 410 97.68 422.81 97.68C435.62 97.68 445.81 87.49 445.81 74.68C445.81 61.87 435.62 51.68 422.81 51.68Z" class="" fill="#9b9b9b" fill-opacity="1"></path><path d="M448.082 106.885C441.102 112.382 432.324 115.68 422.812 115.68C422.067 115.68 421.332 115.653 420.598 115.613C421.408 117.061 422.201 118.517 422.978 119.983L452.83 142.373Z" class="" fill="#9b9b9b" fill-opacity="1"></path><path d="M209.26 109.385C192.003 109.475 172.004 113.142 156.027 125.505C129.393 146.113 112.993 240.268 122.537 272.268C139.121 210.501 154.53 148.248 230.457 110.994C223.445 109.895 216.357 109.356 209.26 109.384Z" class="" fill="#fff" fill-opacity="1"></path><path d="M74.205 153.595L40.15 179.138L25.67 251.546L63.85 297.36C52.903 250.837 58.074 198.637 74.205 153.596Z" class="" fill="#fff" fill-opacity="1"></path><path d="M437.795 153.595C453.925 198.637 459.097 250.837 448.15 297.359L486.33 251.544L471.85 179.136Z" class="" fill="#fff" fill-opacity="1"></path><path d="M106.645 375.93C103.062 377.1 99.393 379.336 96.363 382.365C92.227 386.501 89.683 391.795 89.199 396.469C89.409 396.833 89.802 397.626 90.929 398.631C93.382 400.819 97.622 403.801 103.056 406.989C113.923 413.369 129.606 420.746 147.261 427.612C168.438 435.849 192.611 443.316 214.999 447.992L214.999 420.382C175.529 415.262 135.102 402.057 106.644 375.93Z" class="" fill="#d0021b" fill-opacity="1"></path><path d="M405.355 375.93C376.897 402.055 336.47 415.26 297 420.38L297 447.99C319.387 443.314 343.56 435.847 364.738 427.61C382.393 420.745 398.076 413.367 408.943 406.988C414.377 403.798 418.617 400.818 421.07 398.628C422.197 397.624 422.59 396.831 422.8 396.468C422.318 391.793 419.773 386.498 415.637 382.363C412.607 379.333 408.937 377.099 405.355 375.928Z" class="selected" fill="#d0021b" fill-opacity="1"></path><path d="M77.322 410.602L18 450.15L18 494L55 494L55 476L73 476L73 494L439 494L439 476L457 476L457 494L494 494L494 450.15L434.678 410.602C434.141 411.09 433.598 411.572 433.055 412.059C429.133 415.556 424.123 418.949 418.057 422.511C405.924 429.631 389.607 437.254 371.262 444.388C334.572 458.656 290.25 471 256 471C221.75 471 177.428 458.657 140.738 444.39C122.393 437.255 106.076 429.633 93.943 422.512C87.877 418.952 82.867 415.557 78.945 412.059C78.402 411.572 77.859 411.089 77.322 410.601Z" class="" fill="#fff" fill-opacity="1"></path><path d="M233 422.184L233 451.176C241.236 452.338 249.012 453 256 453C262.988 453 270.764 452.338 279 451.176L279 422.184C271.18 422.739 263.477 423 256 423C248.523 423 240.82 422.74 233 422.184Z" class="" fill="#fff" fill-opacity="1"></path></g></g></svg>