<svg style="height: 512px; width: 512px;" xmlns="http://www.w3.org/2000/svg" viewBox="0 0 512 512"><rect fill="#000" fill-opacity="1" height="512" width="512" rx="32" ry="32"></rect><g class="" style="" transform="translate(0,0)"><g><path d="M45.906 23.625L45.906 32.969C45.906 135.649 56.396 238.056 87.031 321.124C117.668 404.192 169.395 468.539 250.781 490.904L253.001 491.53L255.221 491.03C344.49 472 396.864 407.39 425.593 323.47C454.321 239.55 460.843 135.693 460.843 32.97L460.843 23.625L45.906 23.625Z" class="" fill="#9b9b9b" fill-opacity="1"></path><path d="M64.72 42.313L442.06 42.313C441.647 141.113 434.563 239.655 407.935 317.438C380.725 396.925 334.545 454.075 253.56 472.218C180.28 451.188 133.646 393.522 104.56 314.656C76.085 237.444 65.354 140.526 64.717 42.312Z" class="" fill="#000000" fill-opacity="1"></path><path d="M83.53 61.063C84.337 145.193 96.016 233.886 122.844 305.875C130.669 326.873 139.718 346.37 150.094 363.938L195.938 325.5L155.188 250.437L149.718 240.375L160.688 237.031C160.688 237.031 199.553 225.245 221.094 218.781L241.531 211.531L146.688 61.063L83.53 61.063Z" class="selected" fill="#50e3c2" fill-opacity="1"></path><path d="M243.78 61.063L289.562 152.563L421.969 109.406C422.659 93.201 423.022 77.04 423.124 61.062L243.78 61.062Z" class="" fill="#50e3c2" fill-opacity="1"></path><path d="M420.937 129.406L298.031 169.47L322.939 219.25L348.814 267.97L402.094 266.125C412.339 223.291 418.124 176.461 420.938 129.405Z" class="" fill="#50e3c2" fill-opacity="1"></path><path d="M310.908 236.47L280.158 246.844L347.408 392.031C365.221 368.831 379.145 340.431 390.032 308.345C392.61 300.75 394.998 292.955 397.222 285.001L343.596 286.845L337.752 287.065L335.002 281.907L310.908 236.47Z" class="" fill="#50e3c2" fill-opacity="1"></path><path d="M211.688 241.156C198.555 245.128 184.342 249.418 177.063 251.626L216 323.28L219.625 330L213.781 334.906L160.221 379.812C184.891 415.722 216.108 441.64 254.876 452.937C285.216 446.027 310.236 431.441 330.906 410.875L211.69 241.155Z" class="" fill="#50e3c2" fill-opacity="1"></path></g></g><g class="" style="" transform="translate(256,256)"><g><circle cx="128" cy="128" r="128" fill="#000" fill-opacity="1"></circle><circle stroke="#50e3c2" stroke-opacity="1" fill="#000" fill-opacity="1" stroke-width="18" cx="128" cy="128" r="101"></circle><path fill="#50e3c2" fill-opacity="1" d="M128.133 49.472L98.398 66.735l16.032 27.789a35.849 35.849 0 0 0-8.432 4.889L89.967 71.64 60.282 88.87v33.958h32.211a36.405 36.405 0 0 0-.348 4.956c0 1.69.123 3.356.349 4.99H60.281v34.357l29.651 17.212 16.132-27.938a35.877 35.877 0 0 0 8.397 4.938L98.363 189.25l29.768 17.28 29.752-17.23-16.148-27.955a35.929 35.929 0 0 0 8.397-4.956l16.185 28.038 29.402-17.029v-34.624h-32.031c.226-1.634.35-3.298.35-4.99 0-1.679-.127-3.336-.35-4.955h32.03V88.587l-29.436-17.03L150.2 99.43a35.908 35.908 0 0 0-8.43-4.905l16.08-27.855-29.716-17.197zm-.05 52.136c14.485 0 26.193 11.689 26.193 26.176 0 14.488-11.705 26.176-26.193 26.176-14.488 0-26.176-11.69-26.176-26.176 0-14.486 11.69-26.176 26.176-26.176z"></path></g></g></svg>