<svg style="height: 512px; width: 512px;" xmlns="http://www.w3.org/2000/svg" viewBox="0 0 512 512"><rect fill="#000" fill-opacity="1" height="512" width="512" rx="32" ry="32"></rect><g class="" style="" transform="translate(0,0)"><g><path d="M414.666 22.572L19.91 114.15L271.71 380.178L212.05 439.868L494.652 493.308L441.242 210.558L409.697 242.121L446.523 326.981L367.27 239.474L286.627 160.257L327.652 240.634L192.272 125.849L414.667 22.572Z" class="" fill="#50e3c2" fill-opacity="1"></path><path d="M232.484 215.77C243.966 215.77 253.271 225.078 253.271 236.56C253.271 239.022 252.841 241.384 252.056 243.576L287.606 277.786L320.666 246.976L333.406 260.648L316.032 276.838L454.318 410.478L473.236 471L412.721 453.553L272.171 317.713L254.075 334.573L241.335 320.903L273.913 290.545L238.495 256.463C236.592 257.037 234.575 257.35 232.485 257.35C221.005 257.35 211.698 248.04 211.698 236.56C211.698 225.078 221.004 215.77 232.485 215.77Z" class="" fill="#000000" fill-opacity="1"></path><path d="M301.367 291.387L288.404 304.85L426.96 438.256L439.924 424.793L301.367 291.387Z" class="selected" fill="#9b9b9b" fill-opacity="1"></path></g></g></svg>