<svg style="height: 512px; width: 512px;" xmlns="http://www.w3.org/2000/svg" viewBox="0 0 512 512"><rect fill="#000" fill-opacity="1" height="512" width="512" rx="32" ry="32"></rect><g class="" style="" transform="translate(0,0)"><g><path d="M17.47 26.563L17.47 47.438L84.812 81.06L70.312 111.53L226.28 135.56L109.313 29.626L92.876 64.188L17.47 26.562Z" class="" fill="#b57204" fill-opacity="1"></path><path d="M372.312 59.063C367.882 59.087 363.468 59.199 359.094 59.406C314.004 61.543 272.857 73.946 245.814 98.188C245.986 175.382 250.87 250.728 268.938 311.875C286.921 372.74 317.265 418.847 368.625 441.781C414.595 421.508 445.462 370.151 464.595 303.221C483.662 236.511 490.8 155.479 491.187 79.095C456.421 66.889 415.917 59.415 376.75 59.065C375.27 59.05 373.79 59.055 372.312 59.063Z" class="" fill="#9b9b9b" fill-opacity="1"></path><path d="M365.812 87.031C366.859 87.025 367.919 87.023 368.969 87.031C398.353 87.296 428.357 93.744 453.999 104.471L459.719 106.876L459.719 113.096C459.719 171.531 455.144 234.201 441.655 286.876C428.167 339.551 405.812 383.376 367.28 400.564L363.375 402.282L359.531 400.502C318.901 381.572 295.741 341.712 282.939 293.346C270.136 244.98 267.126 187.276 267.126 128.846L267.126 125.158L269.626 122.471C291.161 99.324 323.164 89.074 356.439 87.314C359.559 87.148 362.674 87.054 365.814 87.032Z" class="" fill="#000000" fill-opacity="1"></path><path d="M368.812 105.721C364.992 105.681 361.194 105.771 357.437 105.971C328.79 107.485 303.011 116.104 285.875 132.781C286.02 189.164 289.237 244.124 301 288.563C312.566 332.26 331.844 365.005 363.5 381.563C391.39 366.797 411.236 330.263 423.53 282.251C435.913 233.897 440.575 175.081 440.906 119.471C418.868 111.108 393.376 105.971 368.812 105.721Z" class="" fill="#9b9b9b" fill-opacity="1"></path><path d="M91.875 162.155L89.031 195.935L17.471 189.343L17.471 208.093L87.439 214.563L84.595 248.187L231.565 217.312L91.875 162.155Z" class="" fill="#b57204" fill-opacity="1"></path><path d="M101.845 290.311L109.875 317.843L17.47 344.47L17.47 363.937L115.094 335.75L124.531 368.094L242.781 291.406L101.845 290.312Z" class="" fill="#b57204" fill-opacity="1"></path><path d="M273.281 375.405L128.126 419.843L147.156 448.343L77.063 495.123L77.439 495.686L109.907 495.686L157.532 463.906L176.564 492.436L273.284 375.406Z" class="selected" fill="#b57204" fill-opacity="1"></path></g></g></svg>