<svg style="height: 512px; width: 512px;" xmlns="http://www.w3.org/2000/svg" viewBox="0 0 512 512"><rect fill="#000" fill-opacity="1" height="512" width="512" rx="32" ry="32"></rect><g class="" style="" transform="translate(0,0)"><g><path d="M300.56 39.29C298.142 39.313 295.425 40.42 293.29 42.355C291.153 44.29 289.783 46.885 289.52 49.287C289.26 51.689 289.694 54.069 292.553 57.227L298.59 63.897L338.94 108.457L344.982 115.129C347.842 118.285 350.166 118.953 352.582 118.931C354.998 118.908 357.717 117.801 359.854 115.866C361.99 113.932 363.36 111.336 363.621 108.936C363.883 106.532 363.451 104.153 360.591 100.996L308.16 43.09C305.3 39.932 302.975 39.267 300.56 39.29Z" class="" fill="#ffffff" fill-opacity="1"></path><path d="M285.25 75.98L246.646 110.932L240.606 104.26C217.468 78.705 204.046 77.466 187.5 76.674L23.285 225.364L151.018 366.43L315.23 217.74C316.08 201.196 316.176 187.72 293.037 162.164L286.997 155.492L325.597 120.539L285.25 75.979Z" class="" fill="#ffffff" fill-opacity="1"></path><path d="M173.104 130.256L206.964 167.652L244.361 133.792L264.021 155.506L226.628 189.366L260.488 226.762L238.774 246.424L204.914 209.027L109.614 295.317L89.95 273.604L185.252 187.314L151.392 149.918L173.104 130.256Z" class="" fill="#000000" fill-opacity="1"></path><path d="M370.482 134.619C370.482 134.619 344.622 187.389 354.482 208.429C360.719 221.735 380.246 221.735 386.482 208.429C396.344 187.389 370.482 134.619 370.482 134.619Z" class="" fill="#48baff" fill-opacity="1"></path><path d="M372.678 237.639L367.023 283.919C368.191 283.603 369.493 283.415 370.99 283.415C373.398 283.415 375.435 283.919 377.22 284.722L372.678 237.64Z" class="" fill="#ffe0af" fill-opacity="1"></path><path d="M313.711 252.639L341.798 318.706C344.255 312.876 346.878 307.528 349.542 302.851L313.712 252.638Z" class="" fill="#ffe0af" fill-opacity="1"></path><path d="M431.247 254.136L394.003 303.616C396.663 308.282 399.215 313.559 401.571 319.278L431.247 254.135Z" class="" fill="#ffe0af" fill-opacity="1"></path><path d="M270.143 295.11L333.518 342.814C334.088 340.704 334.682 338.606 335.318 336.539C336.388 333.059 337.545 329.665 338.764 326.369L270.144 295.109Z" class="" fill="#ffe0af" fill-opacity="1"></path><path d="M473.715 297.705L404.58 327.095C405.683 330.195 406.724 333.385 407.684 336.641C408.349 338.898 408.957 341.191 409.539 343.499L473.714 297.706Z" class="" fill="#ffe0af" fill-opacity="1"></path><path d="M371.395 302.655C369.881 304.351 367.835 307.171 365.689 310.848C361.161 318.61 356.219 329.816 352.522 341.832C348.825 353.848 346.367 366.738 346.337 377.824C346.307 388.911 348.759 397.771 353.307 403.049C355.839 405.984 363.193 408.933 370.989 408.933C378.785 408.933 386.142 405.983 388.673 403.048C393.27 397.713 395.863 388.768 396.017 377.672C396.171 366.575 393.947 353.706 390.417 341.727C386.887 329.747 382.033 318.594 377.452 310.929C375.2 307.161 372.992 304.269 371.394 302.653Z" class="selected" fill="#48baff" fill-opacity="1"></path><path d="M332.668 346.057L253.646 353.677L329.396 362.937C330.15 357.283 331.276 351.619 332.668 346.057Z" class="" fill="#ffe0af" fill-opacity="1"></path><path d="M410.422 347.102C411.695 352.662 412.685 358.315 413.302 363.947L488.715 356.672L410.422 347.102Z" class="" fill="#ffe0af" fill-opacity="1"></path><path d="M328.666 369.818L268.646 412.646L328.796 387.076C328.474 384.013 328.329 380.901 328.338 377.773C328.345 375.143 328.46 372.487 328.666 369.818Z" class="" fill="#ffe0af" fill-opacity="1"></path><path d="M413.891 371.334C413.998 373.544 414.047 375.744 414.017 377.924C413.967 381.451 413.731 384.954 413.265 388.384L472.222 415.24L413.892 371.334Z" class="" fill="#ffe0af" fill-opacity="1"></path><path d="M333.956 406.08L311.116 456.215L341.116 416.357C340.622 415.859 340.143 415.341 339.676 414.801C337.361 412.116 335.483 409.185 333.956 406.081Z" class="" fill="#ffe0af" fill-opacity="1"></path><path d="M407.314 407.514C405.911 410.088 404.264 412.534 402.31 414.801C401.528 415.708 400.695 416.538 399.836 417.327L428.652 457.712L407.312 407.516Z" class="" fill="#ffe0af" fill-opacity="1"></path><path d="M365.241 426.658L369.685 472.708L375.298 426.788C373.862 426.888 372.422 426.934 370.991 426.934C369.079 426.934 367.156 426.84 365.241 426.658Z" class="" fill="#ffe0af" fill-opacity="1"></path></g></g></svg>