<svg style="height: 512px; width: 512px;" xmlns="http://www.w3.org/2000/svg" viewBox="0 0 512 512"><rect fill="#000" fill-opacity="1" height="512" width="512" rx="32" ry="32"></rect><g class="" style="" transform="translate(0,0)"><g><path d="M51.34 23.63L44.66 40.35L124.7 72.36L131.3 55.64L51.34 23.63Z" class="" fill="#f8e71c" fill-opacity="1"></path><path d="M460.7 23.64L380.7 55.64L387.3 72.36L467.3 40.36L460.7 23.64Z" class="" fill="#f8e71c" fill-opacity="1"></path><path d="M256 25C227 25 206 39.08 191.3 59.29C176.6 79.51 169 106 169 128C169 141 176 155.8 183.5 167C191 178.2 198.4 185.6 198.4 185.6L199.9 187.1L209.2 215L228 215L194.7 98.07L256 118.5L317.3 98.07L284 215L302.8 215L312.1 187.1L313.6 185.6C313.6 185.6 321 178.2 328.5 167C336 155.8 343 141 343 128C343 106 335.4 79.51 320.7 59.29C306 39.08 285 25 256 25Z" class="" fill="#f8e71c" fill-opacity="1"></path><path d="M384 119L384 137L480 137L480 119L384 119Z" class="" fill="#f8e71c" fill-opacity="1"></path><path d="M32 119.1L32 137.1L128 137.1L128 119.1L32 119.1Z" class="" fill="#f8e71c" fill-opacity="1"></path><path d="M221.3 125.9L246.8 215L265.2 215L290.7 125.9L256 137.5L221.3 125.9Z" class="" fill="#f8e71c" fill-opacity="1"></path><path d="M387.3 183.6L380.7 200.4L460.7 232.4L467.3 215.6L387.3 183.6Z" class="" fill="#f8e71c" fill-opacity="1"></path><path d="M124.7 183.7L44.66 215.7L51.34 232.5L131.3 200.5L124.7 183.7Z" class="" fill="#f8e71c" fill-opacity="1"></path><path d="M217 233L217 247L295 247L295 233L217 233Z" class="" fill="#9b9b9b" fill-opacity="1"></path><path d="M217 265L217 279L295 279L295 265L217 265Z" class="" fill="#9b9b9b" fill-opacity="1"></path><path d="M170.1 267.6C143 268.1 117.5 272.6 103.2 278.7L29.8 484.1C100.9 470 173.7 458.1 247 483.2L247 297L199 297L199 268.7C191.1 268 183 267.6 175.1 267.6L170.1 267.6Z" class="" fill="#ffffff" fill-opacity="1"></path><path d="M336.9 267.6C329 267.6 320.9 268 313 268.7L313 297L265 297L265 483.2C338.3 458.1 411.1 470 482.2 484.1L408.8 278.7C394.5 272.6 369 268.1 341.9 267.6L336.9 267.6Z" class="selected" fill="#ffffff" fill-opacity="1"></path></g></g></svg>