<svg style="height: 512px; width: 512px;" xmlns="http://www.w3.org/2000/svg" viewBox="0 0 512 512"><rect fill="#000" fill-opacity="1" height="512" width="512" rx="32" ry="32"></rect><g class="" style="" transform="translate(0,0)"><g><path d="M73.094 16.406L84.656 85.376L15.094 74.406L64.437 145.686L123.375 141.312L352.563 391.844L362.906 403.124L348.156 407.156L317.156 415.626L475.406 477.188L414.094 319.156L406.594 348.594L402.75 363.656L391.25 353.219L140.47 125.843L144.97 65.123L73.094 16.405Z" class="" fill="#ffffff" fill-opacity="1"></path><path d="M292.47 37.438C310.91 61.454 328.61 92.888 343.906 129.531C296.361 89.143 245.446 61.503 199.281 48.688C179.008 43.061 159.807 40.29 142.188 40.408C179.935 58.696 222.176 88.174 263.126 126.345C243.041 124.195 224.556 125.895 208.938 131.532C237.555 137.292 272.565 152.937 307.97 177.096C292.626 176.541 278.413 178.932 266.062 184.316C290.102 188.924 319.035 202.328 348.25 223.566C370.944 256.094 387.27 287.514 395.906 314.876L403.219 286.252L410.405 257.972L420.968 285.189L480.498 438.627C487.682 422.865 490.973 404.272 490.468 383.657L491.154 384.752C491.152 231.038 452.42 98.982 396.592 37.972C409.295 78.517 418.819 130.148 423.842 188.377C390.259 114.782 342.112 60.117 292.467 37.439Z" class="" fill="#c9c9c9" fill-opacity="1"></path><path d="M38.874 148.156C39.206 164.564 41.959 182.266 47.124 200.876C60.141 247.768 88.439 299.564 129.874 347.75C89.844 331.742 55.598 312.847 29.874 293.094C52.554 342.739 107.217 390.886 180.812 424.469C122.582 419.445 70.982 409.891 30.437 397.186C91.165 452.751 222.27 491.416 375.062 491.78L375.187 491.78C398.427 493.265 419.279 490.076 436.717 482.188L283.97 422.75L257.564 412.5L284.908 405.03L309.878 398.22C284.178 389.814 255.022 374.74 224.783 354.094C200.039 322.187 184.475 290.09 179.44 263.844C173.554 277.352 171.226 293.122 172.44 310.124C147.577 274.107 131.548 238.384 125.69 209.281C120.102 224.763 118.377 243.058 120.44 262.938C84.677 224.064 56.772 184.16 38.878 148.158Z" class="selected" fill="#c9c9c9" fill-opacity="1"></path></g></g></svg>