<svg style="height: 512px; width: 512px;" xmlns="http://www.w3.org/2000/svg" viewBox="0 0 512 512"><rect fill="#000" fill-opacity="1" height="512" width="512" rx="32" ry="32"></rect><g class="" style="" transform="translate(0,0)"><g><path d="M140.2 23.414C155.285 55.759 172.856 87.154 192.578 117.289L197.695 123.847L197.672 88.933L269.166 209.093L281.376 178.421L343.866 289.995L354.658 266.942L401.638 332.662C430.332 352.605 460.276 370.47 491.201 385.932C481.628 332.177 468.227 278.986 445.034 227.232L429.649 264.085L368.829 157.285L361.499 179.097L302.876 78.313L293.353 114.417L236.193 44.467L227.401 71.544L140.201 23.414Z" class="" fill="#f8e71c" fill-opacity="1"></path><path d="M32.905 30.65C33.403 31.735 33.915 32.81 34.417 33.89L162.967 216.576L147.897 219.018L233.731 276.715L202.431 286.639L340.753 372.104L306.36 388.249L311.76 391.571C311.06 390.557 310.367 389.539 309.662 388.528C313.827 391.743 318.029 394.895 322.246 398.018L431.543 465.238C446.125 472.493 460.933 479.223 475.961 485.394C465.915 463.9 454.341 442.196 441.451 420.496L358.038 303.803L345.353 330.896L284.235 221.769L272.501 251.243L216.407 156.968L216.421 178.223L167.995 116.163C123.39 81.91 77.68 52.7 32.904 30.65Z" class="" fill="#f5a623" fill-opacity="1"></path><path d="M19.557 136.71L48.865 198.38L14.425 197.635L95.765 265.325L60.59 275.1L184.43 370.617L139.73 374.377L287.75 457.864L254.777 469.897L372.754 496.974C361.58 473.429 349.12 450.437 335.5 428.11L267.09 386.036L301.56 369.853L157.963 281.127L191.148 270.607L98.2 208.132L128.89 203.162C94.145 177.7 57.52 155.358 19.556 136.71Z" class="selected" fill="#50e3c2" fill-opacity="1"></path></g></g></svg>