<svg style="height: 512px; width: 512px;" xmlns="http://www.w3.org/2000/svg" viewBox="0 0 512 512"><defs><clipPath id="icon-bg"><rect fill="#000" fill-opacity="1" transform="translate(0, 0) scale(1, 1) rotate(-45, 256, 256) skewX(0) skewY(0)" height="512" width="512" rx="32" ry="32"></rect></clipPath></defs><rect fill="#000" fill-opacity="1" height="512" width="512" rx="32" ry="32"></rect><g class="" style="" transform="translate(70,-80)"><g transform="translate(0, 0) scale(1, 1) rotate(-45, 256, 256) skewX(0) skewY(0)" clip-path="url(#icon-bg)"><path d="M185.6 29.02C167.8 29.66 150.3 45.51 142.7 67.79C133.3 95.22 142 123 162.1 129.9C182.2 136.7 206.1 120 215.4 92.6C224.8 65.18 216.1 37.39 196 30.52C192.7 29.4 189.2 28.89 185.6 29.02Z" class="" fill="#b57204" fill-opacity="1"></path><path d="M341.6 48.62C331.3 48.72 319.6 49.6 306.4 51.48C342.9 59.97 374.2 72.66 399.2 90.72L298.6 207.1C306.5 212.9 307.7 214.8 315.4 220.9L416.7 105.2C439.1 126.6 454.4 153.9 460.9 188.1C464.7 152.2 458.2 112.1 433.5 86.02C440.9 78.13 448.9 70.33 439.1 61.85C426.2 53.96 424.2 61.53 416 71.1C399 58.47 378.6 48.35 341.6 48.62Z" class="" fill="#000000" fill-opacity="1"></path><path d="M115.1 145.5C69.21 171.2 19.21 253.6 84.86 381C96.15 403 50.3 446.6 24.58 471.3L68.53 477.5C98.35 445.8 121.5 416.8 131.7 379.4C133.3 373.8 114.9 344.7 103.9 317.3C131.8 331.4 177 375.7 174.4 393.9C169.3 429.2 158.9 447.1 143.7 478.8L190.4 483C201.6 458.9 209.3 430.5 216 385.7C218 371.9 192.2 338.7 154.2 300.6C140.5 286.8 127.1 244.2 164.9 192.7C212.6 211 243.7 236.6 283.3 260.3L301.7 238.6C263.2 208.6 222.2 173.6 171.9 150.6C154 142.4 132 136 115.1 145.5Z" class="selected" fill="#b57204" fill-opacity="1"></path><path d="M460.9 188.1C444.3 190.2 368.9 225.9 335.8 244.4L405.1 238.3L318.4 338.5L421 264.2L406.3 391.4L453.5 259.7L487.4 340.6C480.2 256.1 476.2 231.5 460.9 188.1Z" class="" fill="#000000" fill-opacity="1"></path></g></g></svg>