<svg style="height: 512px; width: 512px;" xmlns="http://www.w3.org/2000/svg" viewBox="0 0 512 512"><rect fill="#000" fill-opacity="1" height="512" width="512" rx="32" ry="32"></rect><g class="" style="" transform="translate(0,0)"><path d="M72.02 21.88l-.9 64.34L32.88 108l.93 6.3c18.95 128 92.49 254.1 216.79 369.8l6.4 6 6.4-6c123.2-115.5 195.2-242 214.8-369.6l.9-6.3-38.7-22.21-.8-60.64C320.4 41.15 182 38.72 72.02 21.88zm18.4 21.71c32.58 4.95 64.88 8.72 97.18 11.22v31.85L138.9 115 89.82 86.44zm330.78 3.56l.5 39.29L372.6 115l-49.2-28.6V56.82c32.1-1.63 64.6-4.67 97.8-9.67zm-214.5 9.13c32.5 1.98 65 2.47 97.9 1.42v28.7l-48.9 28.5-49-28.53zM80.22 102.6l49.18 28.6v57.4l-48.38 28.2c-13.02-32.9-22.25-65.9-27.63-99zm351.48 0l26.9 15.3c-5.5 33.1-14.8 66.1-27.6 98.9l-48.5-28.2v-57.4zm-117.7 0l49.1 28.6v57.4L314 217.2l-48.7-28.3v-58zm-116.8.2l48.9 28.4v57.7l-48.7 28.3-49.1-28.6v-57.4zM140 206.2l49.2 28.6v57.4l-52.5 30.6c-18.9-28.7-34.8-57.7-47.68-86.9zm117.2 0l48.7 28.4v57.9l-48.7 28.3-49.2-28.6v-57.4zm116.5 0l49.7 28.9c-12.8 29.3-28.5 58.4-47.1 87.2L325 292.5v-57.9zm-66.5 107.7l40.7 23.6v25.4c-11.9 15.7-24.6 31.3-38.3 46.8-14.4-8.4-28.7-16.9-43.1-25.3v-46.9zm-100.3 0l40.7 23.6v46.8c-14.3 8.4-29.7 17.6-43.5 25.6a816.7 816.7 0 0 1-37.9-45.6v-26.8zm50.2 86.9l26.8 15.6v20.7c-11.3 11.4-19.1 19.2-26.9 27.2-9.3-8.8-18.3-17.7-27-26.6v-21.2z" fill="#b8e986" fill-opacity="1"></path></g><g class="" style="" transform="translate(256,256)"><g><circle cx="128" cy="128" r="128" fill="#000" fill-opacity="1"></circle><circle stroke="#7ed321" stroke-opacity="1" fill="#000" fill-opacity="1" stroke-width="18" cx="128" cy="128" r="101"></circle><path fill="#7ed321" fill-opacity="1" d="M128 200.732a72.575 72.575 0 0 1-39.958-12.04l22.855-34.618c4.92 3.27 10.804 5.188 17.103 5.188 6.305 0 12.192-1.92 17.115-5.196l22.851 34.612A72.574 72.574 0 0 1 128 200.732zm0-60.132c-6.982 0-12.441-5.46-12.441-12.441 0-6.982 5.46-12.442 12.441-12.442 6.982 0 12.441 5.46 12.441 12.442 0 6.981-5.46 12.44-12.441 12.44zm-72.357-8.094a72.574 72.574 0 0 1-.217-4.347A72.574 72.574 0 0 1 95.581 63.32l18.528 37.056c-10.169 5.139-17.212 15.697-17.212 27.783 0 .627.025 1.248.063 1.867zm144.777-.006l-41.378-2.482c.037-.616.061-1.235.061-1.86 0-12.085-7.043-22.643-17.212-27.781l18.555-37.11a72.574 72.574 0 0 1 40.128 64.892 72.627 72.627 0 0 1-.154 4.341z"></path></g></g></svg>