<svg style="height: 512px; width: 512px;" xmlns="http://www.w3.org/2000/svg" viewBox="0 0 512 512"><rect fill="#000" fill-opacity="1" height="512" width="512" rx="32" ry="32"></rect><g class="" style="" transform="translate(0,0)"><g><path d="M18.62 18.707L20.922 475.42C41.094 481.517 71.268 480.614 89.016 470.12C98.756 464.358 104.846 456.806 106.334 445.363C107.824 433.921 104.22 417.497 90.559 395.513C25.409 290.675 47.469 178.241 114.679 112.357C181.887 46.474 294.484 27.692 404.491 105.143C422.803 118.035 432.901 118.569 439.647 115.451C446.395 112.334 452.733 102.901 457.683 89.265C462.633 75.628 466.198 58.733 469.989 43.298C472.083 34.771 474.097 26.808 476.845 19.651L18.62 18.707Z" class="" fill="#b57204" fill-opacity="1"></path><path d="M257.69 72.727C248.962 72.691 240.405 73.257 232.05 74.379L388.504 167.179L409.541 129.743C404.469 127.367 399.195 124.267 393.735 120.423C346.595 87.233 300.115 72.9 257.692 72.726Z" class="" fill="#fff" fill-opacity="1"></path><path d="M127.913 125.56L127.763 125.703C100.835 152.1 81.656 186.627 73.833 225.389C149.333 215.317 195.543 297.734 251.213 286.884C257.893 229.416 191.717 160.846 127.913 125.558Z" class="" fill="#d0021b" fill-opacity="1"></path><path d="M355.21 172.77C348.34 208.807 325.51 250.385 289.207 286.69C253.114 322.785 211.447 345.945 175.561 352.96C216.501 361.466 267.809 344.29 307.308 304.79C346.951 265.144 363.938 213.79 355.21 172.77Z" class="" fill="#c9c9c9" fill-opacity="1"></path><path d="M421.313 177.072L421.313 177.076L421.313 177.072Z" class="" fill="#c9c9c9" fill-opacity="1"></path><path d="M421.313 177.076C412.115 225.324 381.547 280.994 332.939 329.604C284.612 377.932 228.826 408.941 180.772 418.336C235.588 429.726 304.286 406.728 357.172 353.838C410.252 300.756 432.994 231.996 421.312 177.076Z" class="" fill="#c9c9c9" fill-opacity="1"></path><path d="M488.641 188.061C477.263 247.759 439.438 316.641 379.296 376.786C319.502 436.584 250.476 474.956 191.016 486.576C258.841 500.67 343.844 472.212 409.28 406.772C474.957 341.094 503.095 256.015 488.64 188.062Z" class="selected" fill="#c9c9c9" fill-opacity="1"></path><path d="M71.07 243.337C66.276 288.027 76.37 337.275 106.432 385.651C114.238 398.213 119.489 409.764 122.442 420.401L158.545 398.989L71.07 243.336Z" class="" fill="#fff" fill-opacity="1"></path></g></g></svg>