<svg style="height: 512px; width: 512px;" xmlns="http://www.w3.org/2000/svg" viewBox="0 0 512 512"><rect fill="#000" fill-opacity="1" height="512" width="512" rx="32" ry="32"></rect><g class="" style="" transform="translate(0,0)"><g><path d="M253.78 17.188C123.052 17.188 16.875 123.365 16.875 254.094C16.875 384.824 123.052 491 253.78 491C384.51 491 490.687 384.82 490.687 254.094C490.687 123.364 384.51 17.188 253.781 17.188Z" class="" fill="#4a4a4a" fill-opacity="1"></path><path d="M253.78 35.875C374.41 35.875 472 133.465 472 254.095C472 374.721 374.41 472.313 253.78 472.313C133.152 472.313 35.562 374.723 35.562 254.093C35.562 133.463 133.152 35.875 253.782 35.875Z" class="" fill="#f8e71c" fill-opacity="1"></path><path d="M354.97 82.188L278.56 215.063C294.476 224.698 303.737 241.393 304.685 258.843L453.092 258.843C454.736 188.833 419.602 119.976 354.967 82.187Z" class="" fill="#000000" fill-opacity="1"></path><path d="M149.844 84.656C122.744 101.381 99.164 124.803 82.124 154.312C63.114 187.24 55.198 223.432 56.124 258.844L196 258.844C196.41 250.491 198.737 242.114 203.188 234.406C208.398 225.382 215.828 218.406 224.406 213.781L149.844 84.657Z" class="" fill="#000000" fill-opacity="1"></path><path d="M250.438 225.812C249.574 225.81 248.702 225.847 247.844 225.906C236.398 226.699 225.556 232.99 219.344 243.75C209.404 260.966 215.254 282.717 232.469 292.656C249.682 302.596 271.404 296.776 281.343 279.562C291.283 262.347 285.463 240.595 268.249 230.656C262.601 227.396 256.481 225.832 250.436 225.812Z" class="" fill="#000000" fill-opacity="1"></path><path d="M278.656 308.187C262.529 317.937 241.792 319.033 224.25 309.437L156.22 426.657C185.674 443.442 217.264 451.834 248.97 452.657C283.537 453.555 317.69 444.871 348.094 428.625L278.656 308.187Z" class="selected" fill="#000000" fill-opacity="1"></path></g></g></svg>