<svg style="height: 512px; width: 512px;" xmlns="http://www.w3.org/2000/svg" viewBox="0 0 512 512"><rect fill="#000" fill-opacity="1" height="512" width="512" rx="32" ry="32"></rect><g class="" style="" transform="translate(0,0)"><g><path d="M105 41L105 439L407 439L407 377L247 377L247 231L279 231L279 176C279 138 315.5 119 352 119C372.5 119 393 125 407 137L407 41L105 41Z" class="" fill="#9b9b9b" fill-opacity="1"></path><path d="M352 137C324.5 137 297 150 297 176L297 231L407 231L407 176C407 150 379.5 137 352 137Z" class="" fill="#9b9b9b" fill-opacity="1"></path><path d="M160 215C178.1 215 193 229.9 193 248C193 266.1 178.1 281 160 281C141.9 281 127 266.1 127 248C127 229.9 141.9 215 160 215Z" class="" fill="#000000" fill-opacity="1"></path><path d="M160 233C151.6 233 145 239.6 145 248C145 256.4 151.6 263 160 263C168.4 263 175 256.4 175 248C175 239.6 168.4 233 160 233Z" class="" fill="#4a90e2" fill-opacity="1"></path><path d="M265 249L265 359L439 359L439 249L265 249Z" class="" fill="#f8e71c" fill-opacity="1"></path><path d="M352 272C360.837 272 368 279.163 368 288C368.015 294.884 363.625 301.006 357.1 303.2L368 336L336 336L346.9 303.2C340.375 301.006 335.985 294.884 336 288C336 279.163 343.163 272 352 272Z" class="" fill="#000000" fill-opacity="1"></path><path d="M73 457L73 487L439 487L439 457L73 457Z" class="selected" fill="#000000" fill-opacity="1"></path></g></g></svg>