<svg style="height: 512px; width: 512px;" xmlns="http://www.w3.org/2000/svg" viewBox="0 0 512 512"><rect fill="#000" fill-opacity="1" height="512" width="512" rx="32" ry="32"></rect><g class="" style="" transform="translate(0,0)"><g><path d="M230.844 47.688C202.629 47.771 172.274 50.613 139.844 56.468C339.666 41.874 441.95 144.504 495.938 292.75C495.938 149.434 403.268 47.18 230.844 47.687Z" class="" fill="#417505" fill-opacity="1"></path><path d="M228.188 81.312C171.485 103.686 130.781 162.506 130.781 232.156C130.781 281.162 150.934 324.796 182.626 354.156C205.266 362.744 229.189 365.06 254.032 363.719C227.82 267.623 245.51 178.349 286.532 92.719C267.998 86.209 248.572 82.337 228.19 81.312Z" class="" fill="#f8e71c" fill-opacity="1"></path><path d="M186.344 83.094C143.026 88.78 95.694 106.391 43.844 137.624C68.831 234.727 100.389 292.662 136.624 325.594C121.066 298.334 112.094 266.324 112.094 232.156C112.094 170.226 141.516 115.316 186.344 83.094Z" class="" fill="#fff" fill-opacity="1"></path><path d="M320.5 108.094C322.052 114.364 323.42 120.646 324.656 126.938C322.88 126.585 321.036 126.406 319.156 126.406C303.67 126.406 291.126 138.956 291.126 154.436C291.126 169.919 303.67 182.469 319.156 182.469C323.486 182.469 327.588 181.502 331.25 179.749C334.51 241.974 321.615 303.572 290.22 359.593C322.817 354.213 356.64 344.943 391 337.187C413.463 309.102 427.094 272.453 427.094 232.155C427.094 224.135 426.541 216.255 425.5 208.561C394.23 164.144 359.48 129.868 320.5 108.093Z" class="" fill="#f8e71c" fill-opacity="1"></path><path d="M18.625 156.564C36.78 459.957 249.36 479.842 493.063 343.717C306.578 348.125 115.88 532.286 18.625 156.56Z" class="" fill="#417505" fill-opacity="1"></path><path d="M445.625 239.314C444.375 273.307 434.283 304.947 417.687 331.594C441.679 326.999 465.827 323.801 489.907 323.781C475.983 293.196 461.271 264.933 445.625 239.314Z" class="" fill="#fff" fill-opacity="1"></path><path d="M487.155 369.124C360.095 448.2 219.811 480.754 66.125 408.25C196.371 524.106 408.235 490.623 487.155 369.125Z" class="selected" fill="#417505" fill-opacity="1"></path></g></g></svg>