<svg style="height: 512px; width: 512px;" xmlns="http://www.w3.org/2000/svg" viewBox="0 0 512 512"><rect fill="#000" fill-opacity="1" height="512" width="512" rx="32" ry="32"></rect><g class="" style="" transform="translate(0,0)"><g><path d="M280.938 19.22L259.844 83.688L204.78 48L211.25 135.313L126.156 79.343L173.936 64.469L101.876 20.719L22.406 20.719L22.406 84.062L119.344 130.155L60.564 147.655L189.5 225.78L94.594 229L168.5 276.125L65.75 317.938L149.75 342.75L82.97 420.97L179.53 395.687L190.72 493.875L255.813 417.155L303.188 493.281L321.531 420.439L369.095 445.157L358.532 328.157L443.158 379.437L392.688 386.689L492.5 456.03L493.53 373.53L430.22 320.094L485.187 315.5L384.281 249.125L469.439 210.469L397.157 186.155L467.627 151.53L409.72 131.47L454.25 79.97L373.344 94.313L379.314 23.656L318.156 82.156L280.936 19.219Z" class="selected" fill="#fc88fc" fill-opacity="1"></path><path d="M279.531 91.47L288.531 93.875L356.751 112.155L365.781 114.595L363.376 123.625L361.096 132.125L383.03 138L392.063 140.406L389.625 149.436L324.595 392.186L322.187 401.219L313.157 398.779L183 363.907L173.97 361.501L176.375 352.471L241.438 109.721L243.844 100.721L252.874 103.126L274.814 109.001L277.094 100.501L279.531 91.471Z" class="" fill="#000000" fill-opacity="1"></path><path d="M292.595 114.22L287.815 132L269.938 127.22L269.97 127.094L257.062 123.624L196.844 348.281L308.938 378.314L369.156 153.657L356.25 150.187L356.22 150.345L338.312 145.532L343.094 127.752L292.594 114.222Z" class="" fill="#48baff" fill-opacity="1"></path><path d="M270.47 146.72L345.97 166.938L318.937 267.75L295.157 257.03L312.781 223.313L256.907 197.375L270.47 146.719Z" class="" fill="#000000" fill-opacity="1"></path><path d="M242.75 250.125L266.97 261.063L253.375 286.75L306.219 315.188L295.499 355.188L220.029 334.968L242.749 250.125Z" class="" fill="#000000" fill-opacity="1"></path></g></g></svg>